<svg id="coworking" width="599" height="461" viewBox="0 0 599 461" fill="none" xmlns="http://www.w3.org/2000/svg">
<path opacity="0.1" d="M492.671 137.052H470.814V170.136H492.671V137.052Z" fill="#66288E"/>
<path opacity="0.1" d="M490.544 140.27H472.936V166.919H490.544V140.27Z" fill="#66288E"/>
<path opacity="0.1" d="M460.017 114.069H426.448V147.154H460.017V114.069Z" fill="#66288E"/>
<path opacity="0.1" d="M456.751 117.286H429.709V143.935H456.751V117.286Z" fill="#66288E"/>
<path opacity="0.1" d="M137.144 64.8428H34.5414V67.574H137.144V64.8428Z" fill="#66288E"/>
<path opacity="0.1" d="M137.144 78.2002H34.5414V80.9314H137.144V78.2002Z" fill="#66288E"/>
<path d="M218.11 241.922H207.628V359.048H218.11V241.922Z" fill="#D6D6E3"/>
<path d="M524.289 254.22V146.18C524.29 143.169 525.487 140.282 527.617 138.153C529.747 136.024 532.636 134.828 535.647 134.828C538.655 134.834 541.538 136.032 543.664 138.16C545.789 140.289 546.983 143.173 546.985 146.18V276.936C546.985 279.948 545.788 282.837 543.658 284.967C541.528 287.097 538.639 288.294 535.626 288.294H465.277C462.264 288.294 459.375 287.097 457.245 284.967C455.115 282.837 453.918 279.948 453.918 276.936C453.918 273.924 455.115 271.035 457.245 268.905C459.375 266.775 462.264 265.578 465.277 265.578H512.93C515.942 265.578 518.832 264.381 520.962 262.251C523.092 260.121 524.289 257.233 524.289 254.22Z" fill="#AEBEE1"/>
<path d="M524.289 254.22V146.18C524.29 143.169 525.487 140.282 527.617 138.153C529.747 136.024 532.636 134.828 535.647 134.828C538.655 134.834 541.538 136.032 543.664 138.16C545.789 140.289 546.983 143.173 546.985 146.18V276.936C546.985 279.948 545.788 282.837 543.658 284.967C541.528 287.097 538.639 288.294 535.626 288.294H465.277C462.264 288.294 459.375 287.097 457.245 284.967C455.115 282.837 453.918 279.948 453.918 276.936C453.918 273.924 455.115 271.035 457.245 268.905C459.375 266.775 462.264 265.578 465.277 265.578H512.93C515.942 265.578 518.832 264.381 520.962 262.251C523.092 260.121 524.289 257.233 524.289 254.22Z" fill="#535461"/>
<path d="M453.934 276.326C454.09 273.424 455.353 270.691 457.463 268.692C459.573 266.692 462.369 265.578 465.277 265.578H512.93C515.942 265.578 518.832 264.381 520.962 262.251C523.092 260.121 524.289 257.233 524.289 254.22V146.18C524.287 143.261 525.409 140.453 527.422 138.34C529.436 136.226 532.186 134.968 535.102 134.828V276.326H453.934Z" fill="#D6D6E3"/>
<path d="M102.897 257.865V149.825C102.897 146.818 101.704 143.933 99.5797 141.804C97.4553 139.675 94.573 138.475 91.5651 138.468C88.5526 138.468 85.6634 139.664 83.5332 141.794C81.4031 143.924 80.2063 146.813 80.2063 149.825V280.581C80.2028 282.075 80.494 283.554 81.0633 284.935C81.6325 286.316 82.4687 287.572 83.5238 288.629C84.5789 289.687 85.8323 290.526 87.2121 291.098C88.592 291.671 90.0712 291.965 91.5651 291.965H161.909C164.922 291.965 167.811 290.769 169.941 288.639C172.071 286.509 173.268 283.62 173.268 280.607C173.268 277.595 172.071 274.706 169.941 272.576C167.811 270.446 164.922 269.25 161.909 269.25H114.261C112.767 269.25 111.287 268.956 109.907 268.384C108.526 267.812 107.272 266.973 106.216 265.916C105.161 264.858 104.324 263.603 103.755 262.221C103.185 260.84 102.894 259.36 102.897 257.865Z" fill="#AEBEE1"/>
<path d="M102.897 257.865V149.825C102.897 146.818 101.704 143.933 99.5797 141.804C97.4553 139.675 94.573 138.475 91.5651 138.468C88.5526 138.468 85.6634 139.664 83.5332 141.794C81.4031 143.924 80.2063 146.813 80.2063 149.825V280.581C80.2028 282.075 80.494 283.554 81.0633 284.935C81.6325 286.316 82.4687 287.572 83.5238 288.629C84.5789 289.687 85.8323 290.526 87.2121 291.098C88.592 291.671 90.0712 291.965 91.5651 291.965H161.909C164.922 291.965 167.811 290.769 169.941 288.639C172.071 286.509 173.268 283.62 173.268 280.607C173.268 277.595 172.071 274.706 169.941 272.576C167.811 270.446 164.922 269.25 161.909 269.25H114.261C112.767 269.25 111.287 268.956 109.907 268.384C108.526 267.812 107.272 266.973 106.216 265.916C105.161 264.858 104.324 263.603 103.755 262.221C103.185 260.84 102.894 259.36 102.897 257.865Z" fill="#535461"/>
<path d="M173.252 279.971C173.096 277.068 171.833 274.336 169.723 272.336C167.613 270.337 164.816 269.223 161.909 269.223H114.261C112.769 269.223 111.291 268.93 109.913 268.36C108.534 267.789 107.281 266.953 106.226 265.898C105.17 264.843 104.333 263.591 103.762 262.213C103.191 260.834 102.897 259.357 102.897 257.865V149.825C102.896 146.91 101.775 144.107 99.7654 141.996C97.7555 139.885 95.0109 138.627 92.0995 138.483V279.971H173.252Z" fill="#D6D6E3"/>
<path d="M425.491 241.922H415.009V361.779H425.491V241.922Z" fill="#D6D6E3"/>
<path opacity="0.1" d="M218.11 241.922H207.628V250.58H218.11V241.922Z" fill="black"/>
<path opacity="0.1" d="M425.491 241.922H415.009V250.58H425.491V241.922Z" fill="black"/>
<path opacity="0.1" d="M245.066 170.596C244.899 172.441 244.687 174.312 244.43 176.208H242.949V170.596H245.066Z" fill="black"/>
<path d="M288.016 228.896C288.048 230.794 286.679 232.349 284.985 232.349H252.993V229.014H279.613C280.762 229.014 281.478 227.624 280.901 226.513L256.762 177.421C256.591 177.067 256.326 176.767 255.996 176.554C255.666 176.341 255.283 176.223 254.891 176.213H242.949V170.601H258.028C258.303 170.608 258.571 170.69 258.802 170.839C259.033 170.988 259.218 171.198 259.338 171.445L287.011 224.893C287.648 226.133 287.992 227.503 288.016 228.896Z" fill="#535461"/>
<path d="M229.26 219.992L228.822 220.73L224.722 217.993L237.406 120.467H240.672C240.672 120.467 240.806 120.916 241.025 121.771C243.211 130.2 253.95 177.934 229.26 219.992Z" fill="#535461"/>
<path opacity="0.1" d="M241.02 121.771L229.26 219.992L228.822 220.73L224.722 217.993L237.406 120.467H240.672C240.672 120.467 240.801 120.932 241.02 121.771Z" fill="black"/>
<path d="M233.045 119.457L221.012 219.911L228.708 220.833L240.741 120.379L233.045 119.457Z" fill="#D6D6E3"/>
<path d="M194.639 228.934C194.637 229.176 194.54 229.408 194.369 229.579C194.198 229.75 193.966 229.847 193.724 229.848H192.356C192.114 229.848 191.881 229.752 191.71 229.58C191.538 229.409 191.442 229.176 191.442 228.934C191.438 228.899 191.438 228.863 191.442 228.827C191.469 228.606 191.576 228.403 191.742 228.256C191.909 228.108 192.123 228.026 192.345 228.025H193.714C193.917 228.028 194.114 228.097 194.273 228.223C194.433 228.348 194.546 228.523 194.596 228.72C194.619 228.789 194.634 228.861 194.639 228.934Z" fill="#E3EDF9"/>
<path d="M198.738 228.934C198.737 229.176 198.64 229.408 198.469 229.579C198.298 229.75 198.066 229.847 197.824 229.848H196.456C196.214 229.848 195.981 229.752 195.81 229.58C195.638 229.409 195.542 229.176 195.542 228.934C195.542 228.849 195.555 228.764 195.579 228.683C195.62 228.535 195.699 228.4 195.809 228.293C195.893 228.207 195.993 228.14 196.103 228.094C196.213 228.048 196.331 228.025 196.451 228.025H197.819C197.995 228.025 198.168 228.075 198.317 228.169C198.466 228.264 198.584 228.4 198.658 228.56C198.71 228.678 198.738 228.805 198.738 228.934Z" fill="#E3EDF9"/>
<path d="M202.384 228.935C202.383 229.176 202.286 229.408 202.115 229.579C201.944 229.75 201.712 229.847 201.47 229.848H200.101C199.859 229.848 199.627 229.752 199.455 229.581C199.284 229.409 199.187 229.177 199.187 228.935C199.185 228.804 199.212 228.674 199.268 228.555C199.342 228.397 199.459 228.263 199.605 228.169C199.752 228.074 199.922 228.023 200.096 228.021H201.465C201.585 228.02 201.704 228.043 201.815 228.089C201.926 228.134 202.027 228.202 202.112 228.287C202.197 228.372 202.265 228.473 202.31 228.584C202.356 228.695 202.379 228.814 202.379 228.935H202.384Z" fill="#E3EDF9"/>
<path d="M206.489 228.934C206.488 229.176 206.391 229.408 206.22 229.579C206.049 229.75 205.817 229.847 205.575 229.848H204.207C204.04 229.848 203.876 229.802 203.733 229.715C203.59 229.628 203.474 229.504 203.397 229.356C203.319 229.208 203.284 229.041 203.295 228.874C203.306 228.708 203.363 228.547 203.458 228.41L203.565 228.293C203.649 228.207 203.749 228.14 203.859 228.094C203.969 228.048 204.087 228.025 204.207 228.025H205.575C205.7 228.027 205.823 228.054 205.937 228.104C206.051 228.155 206.153 228.228 206.238 228.319C206.399 228.484 206.489 228.704 206.489 228.934Z" fill="#E3EDF9"/>
<path opacity="0.1" d="M194.612 228.715C194.63 228.786 194.639 228.86 194.639 228.934C194.637 229.176 194.54 229.408 194.369 229.579C194.198 229.75 193.966 229.847 193.724 229.848H192.356C192.114 229.848 191.881 229.752 191.71 229.58C191.538 229.409 191.442 229.176 191.442 228.934C191.438 228.898 191.438 228.863 191.442 228.827L194.612 228.715Z" fill="black"/>
<path opacity="0.1" d="M198.664 228.57C198.712 228.684 198.737 228.805 198.738 228.928C198.737 229.17 198.64 229.402 198.469 229.573C198.298 229.744 198.066 229.841 197.824 229.842H196.456C196.214 229.842 195.981 229.746 195.81 229.575C195.638 229.403 195.542 229.171 195.542 228.928C195.542 228.843 195.555 228.759 195.579 228.677L198.664 228.57Z" fill="black"/>
<path opacity="0.1" d="M202.25 228.447C202.34 228.592 202.388 228.758 202.389 228.928C202.388 229.17 202.291 229.402 202.12 229.573C201.949 229.744 201.717 229.841 201.475 229.842H200.107C199.864 229.842 199.632 229.746 199.46 229.575C199.289 229.403 199.193 229.171 199.193 228.928C199.19 228.797 199.218 228.668 199.273 228.549L202.25 228.447Z" fill="black"/>
<path opacity="0.1" d="M206.489 228.934C206.488 229.176 206.391 229.408 206.22 229.579C206.049 229.75 205.817 229.847 205.575 229.848H204.207C204.04 229.848 203.876 229.802 203.733 229.716C203.59 229.629 203.474 229.505 203.397 229.356C203.319 229.208 203.284 229.042 203.295 228.875C203.306 228.708 203.363 228.548 203.458 228.411L206.238 228.314C206.4 228.48 206.49 228.703 206.489 228.934Z" fill="black"/>
<path d="M214.689 232.579H188.256V231.377C188.256 230.843 188.463 230.33 188.834 229.946C189.205 229.562 189.711 229.337 190.245 229.319L211.444 228.587C211.865 228.572 212.285 228.643 212.679 228.794C213.072 228.945 213.431 229.174 213.734 229.467C214.037 229.759 214.279 230.11 214.443 230.498C214.608 230.886 214.694 231.303 214.694 231.724L214.689 232.579Z" fill="#D6D6E3"/>
<path d="M345.098 228.896C345.066 230.794 346.434 232.349 348.129 232.349H380.137V229.014H353.485C352.336 229.014 351.619 227.624 352.197 226.513L376.336 177.421C376.507 177.067 376.772 176.767 377.102 176.554C377.432 176.341 377.814 176.223 378.207 176.213H390.154V170.601H375.085C374.815 170.611 374.552 170.694 374.325 170.842C374.098 170.99 373.916 171.196 373.797 171.44L346.124 224.888C345.478 226.127 345.127 227.499 345.098 228.896Z" fill="#535461"/>
<path d="M403.859 219.992L404.297 220.73L408.397 217.993L395.713 120.467H392.447C392.447 120.467 392.313 120.916 392.094 121.771C389.902 130.2 379.142 177.934 403.859 219.992Z" fill="#535461"/>
<path opacity="0.1" d="M392.094 121.771L403.854 219.992L404.292 220.73L408.392 217.993L395.713 120.467H392.447C392.447 120.467 392.313 120.932 392.094 121.771Z" fill="black"/>
<path d="M400.078 119.447L392.383 120.369L404.416 220.823L412.111 219.901L400.078 119.447Z" fill="#D6D6E3"/>
<path d="M438.475 228.934C438.477 229.176 438.573 229.408 438.744 229.579C438.916 229.75 439.147 229.847 439.389 229.848H440.758C441 229.848 441.233 229.752 441.404 229.58C441.575 229.409 441.672 229.176 441.672 228.934C441.676 228.899 441.676 228.863 441.672 228.827C441.644 228.606 441.538 228.403 441.371 228.256C441.205 228.108 440.991 228.026 440.768 228.025H439.4C439.197 228.028 439 228.097 438.841 228.223C438.681 228.348 438.568 228.523 438.518 228.72C438.495 228.789 438.48 228.861 438.475 228.934Z" fill="#E3EDF9"/>
<path d="M434.375 228.934C434.377 229.176 434.474 229.408 434.645 229.579C434.816 229.75 435.047 229.847 435.289 229.848H436.658C436.778 229.848 436.897 229.824 437.008 229.778C437.118 229.732 437.219 229.665 437.304 229.58C437.389 229.495 437.456 229.395 437.502 229.284C437.548 229.173 437.572 229.054 437.572 228.934C437.571 228.849 437.559 228.764 437.534 228.683C437.494 228.535 437.415 228.4 437.305 228.293C437.221 228.207 437.121 228.14 437.011 228.094C436.901 228.048 436.782 228.025 436.663 228.025H435.268C435.092 228.025 434.919 228.075 434.77 228.169C434.621 228.264 434.503 228.4 434.429 228.56C434.386 228.68 434.368 228.807 434.375 228.934Z" fill="#E3EDF9"/>
<path d="M430.73 228.935C430.731 229.176 430.828 229.408 430.999 229.579C431.17 229.75 431.402 229.847 431.644 229.848H433.012C433.255 229.848 433.487 229.752 433.659 229.581C433.83 229.409 433.926 229.177 433.926 228.935C433.929 228.804 433.901 228.674 433.846 228.555C433.772 228.397 433.655 228.263 433.509 228.169C433.362 228.074 433.192 228.023 433.018 228.021H431.649C431.529 228.02 431.41 228.043 431.299 228.089C431.187 228.134 431.086 228.202 431.001 228.287C430.916 228.372 430.849 228.473 430.803 228.584C430.758 228.695 430.734 228.814 430.735 228.935H430.73Z" fill="#E3EDF9"/>
<path d="M426.625 228.934C426.626 229.176 426.723 229.408 426.894 229.579C427.065 229.75 427.297 229.847 427.539 229.848H428.907C429.074 229.848 429.238 229.802 429.381 229.715C429.524 229.628 429.64 229.504 429.717 229.356C429.794 229.208 429.829 229.041 429.818 228.874C429.808 228.708 429.751 228.547 429.655 228.41L429.549 228.293C429.465 228.207 429.365 228.14 429.255 228.094C429.145 228.048 429.026 228.025 428.907 228.025H427.539C427.414 228.027 427.291 228.054 427.177 228.104C427.063 228.155 426.961 228.228 426.876 228.319C426.715 228.484 426.625 228.704 426.625 228.934Z" fill="#E3EDF9"/>
<path opacity="0.1" d="M438.502 228.715C438.483 228.786 438.474 228.86 438.475 228.934C438.477 229.176 438.573 229.408 438.744 229.579C438.916 229.75 439.147 229.847 439.389 229.848H440.758C441 229.848 441.233 229.752 441.404 229.58C441.575 229.409 441.672 229.176 441.672 228.934C441.676 228.898 441.676 228.863 441.672 228.827L438.502 228.715Z" fill="black"/>
<path opacity="0.1" d="M434.45 228.57C434.402 228.684 434.377 228.805 434.375 228.928C434.377 229.17 434.474 229.402 434.645 229.573C434.816 229.744 435.047 229.841 435.289 229.842H436.658C436.778 229.842 436.897 229.819 437.008 229.773C437.118 229.727 437.219 229.66 437.304 229.575C437.389 229.49 437.456 229.389 437.502 229.278C437.548 229.167 437.572 229.048 437.572 228.928C437.571 228.843 437.559 228.759 437.534 228.677L434.45 228.57Z" fill="black"/>
<path opacity="0.1" d="M430.863 228.447C430.774 228.592 430.725 228.758 430.724 228.928C430.726 229.17 430.823 229.402 430.994 229.573C431.165 229.744 431.397 229.841 431.639 229.842H433.007C433.249 229.842 433.482 229.746 433.653 229.575C433.825 229.403 433.921 229.171 433.921 228.928C433.923 228.797 433.896 228.668 433.841 228.549L430.863 228.447Z" fill="black"/>
<path opacity="0.1" d="M426.625 228.934C426.626 229.176 426.723 229.408 426.894 229.579C427.065 229.75 427.297 229.847 427.539 229.848H428.907C429.074 229.848 429.238 229.802 429.381 229.716C429.524 229.629 429.64 229.505 429.717 229.356C429.794 229.208 429.829 229.042 429.819 228.875C429.808 228.708 429.751 228.548 429.655 228.411L426.876 228.314C426.714 228.48 426.624 228.703 426.625 228.934Z" fill="black"/>
<path d="M418.425 232.579H444.858V231.377C444.858 230.843 444.651 230.33 444.28 229.946C443.908 229.562 443.403 229.337 442.869 229.319L421.67 228.587C421.248 228.572 420.829 228.643 420.435 228.794C420.042 228.945 419.683 229.174 419.38 229.467C419.076 229.759 418.835 230.11 418.67 230.498C418.505 230.886 418.42 231.303 418.42 231.724L418.425 232.579Z" fill="#D6D6E3"/>
<path d="M529.062 247.068C541.394 226.154 536.925 183.968 537.422 183.161C537.866 182.45 536.166 162.583 524.834 157.73C522.787 153.673 520.772 149.104 520.772 149.104C520.573 149.29 520.354 149.453 520.119 149.59C520.03 149.348 519.943 149.102 519.858 148.852C519.713 148.43 519.58 147.997 519.446 147.564C519.763 147.666 520.086 147.748 520.413 147.81C521.278 148.021 522.187 147.94 523.001 147.58C523.278 147.432 523.529 147.238 523.744 147.008C524.636 146.415 525.128 145.346 525.545 144.336L528.843 136.436C530.329 132.871 531.826 129.285 532.617 125.506C533.794 119.82 533.338 113.916 531.302 108.478C530.521 106.404 529.442 104.33 527.608 103.09C523.936 100.599 518.826 102.321 514.63 100.861C513.251 100.38 512.005 99.5679 510.626 99.0762C507.649 98.0073 504.287 98.5791 501.422 99.91C498.556 101.241 496.237 103.357 493.73 105.255C492.495 106.201 490.522 107.179 489.069 108.462C487.657 109.563 486.572 110.894 486.781 112.647C487.016 114.651 489.127 115.854 491.094 116.324C491.42 116.399 491.757 116.458 492.089 116.516C489.754 118.881 488.072 121.81 487.205 125.019C486.339 128.227 486.319 131.605 487.146 134.823C487.974 138.042 489.62 140.991 491.926 143.384C494.232 145.777 497.119 147.532 500.304 148.478C501.307 150.362 502.176 152.314 502.902 154.32C502.998 154.594 503.093 154.871 503.186 155.149C499.946 156.068 497.413 156.832 496.905 157.254C495.371 158.526 498.583 169.665 498.583 169.665C497.765 170.702 496.932 171.883 496.087 173.15C489.682 182.877 485.627 193.96 484.242 205.523C483.707 209.751 483.012 214.075 482.13 218.185L443.821 210.505L443.74 211.451L442.826 211.226L439.951 210.515L439.838 211.162L439.4 210.954C432.275 207.613 420.269 203.348 412.139 207.747C403.56 212.365 422.076 218.501 433.958 221.766C430.019 221.959 426.251 222.905 423.268 225.117C414.651 231.574 439.02 234.936 450.529 236.128L450.994 236.176V236.422L454.982 236.79L455.917 236.876L456.008 238.298C456.008 238.298 461.717 239.233 469.344 240.366C460.637 242.541 449.877 244.049 442.404 244.931C434.482 245.861 427.737 251.376 425.609 259.068C424.921 261.273 424.855 263.625 425.417 265.866C427.64 273.632 424.925 330.763 424.31 343.066L410.225 351.175C410.225 351.175 388.31 353.847 402.908 358.983C404.223 359.432 405.568 359.79 406.933 360.052C405.008 361.292 405.174 362.912 410.845 364.9C425.454 370.02 459.413 364.676 459.413 364.676C459.413 364.676 458.67 358.657 457.462 353.655L457.836 353.687C457.836 353.687 454.329 340.64 459.648 334.061C464.967 327.481 458.755 277.406 458.755 277.406C458.755 277.406 468.067 273.552 495.9 273.301C518.35 279.062 529.292 258.437 529.137 247.774C529.089 247.533 529.078 247.288 529.062 247.068Z" fill="url(#paint0_linear)"/>
<path d="M446.092 214.658L443.714 224.278C443.714 224.278 441.575 223.797 438.368 222.974C427.507 220.163 404.597 213.412 413.78 208.458C421.696 204.182 433.354 208.34 440.277 211.584C442.81 212.776 444.713 213.845 445.563 214.348C445.921 214.551 446.092 214.658 446.092 214.658Z" fill="#F8B9BF"/>
<path opacity="0.1" d="M445.424 217.374L443.714 224.322C443.714 224.322 441.575 223.841 438.368 223.018L440.298 211.628C442.832 212.82 444.735 213.889 445.584 214.391L445.424 217.374Z" fill="black"/>
<path d="M445.429 224.978L438.791 223.338L440.854 211.173L446.162 212.482L445.429 224.978Z" fill="#D9DFE8"/>
<path opacity="0.1" d="M445.429 224.978L442.564 224.273L443.644 211.862L446.162 212.482L445.429 224.978Z" fill="black"/>
<path d="M509.488 174.593C509.488 174.593 496.739 167.228 491.073 188.356C485.407 209.484 484.872 219.217 484.872 219.217L444.612 211.168L443.334 225.871C443.334 225.871 486.38 239.768 491.795 238.758C497.209 237.748 514.78 208.292 514.78 208.292C514.78 208.292 530.751 185.465 509.488 174.593Z" fill="#66288E"/>
<g opacity="0.1">
<path opacity="0.1" d="M446.092 214.658L443.714 224.278C443.714 224.278 441.575 223.797 438.368 222.974C427.507 220.163 404.597 213.412 413.78 208.458C421.696 204.182 433.354 208.34 440.277 211.584C442.81 212.776 444.713 213.845 445.563 214.348C445.921 214.551 446.092 214.658 446.092 214.658Z" fill="black"/>
<path opacity="0.1" d="M445.424 217.373L443.714 224.321C443.714 224.321 441.575 223.84 438.368 223.017L440.298 211.627C442.832 212.819 444.735 213.888 445.585 214.39L445.424 217.373Z" fill="black"/>
<path opacity="0.1" d="M445.429 224.978L438.791 223.338L440.854 211.173L446.162 212.482L445.429 224.978Z" fill="black"/>
<path opacity="0.1" d="M445.429 224.978L442.564 224.273L443.644 211.862L446.162 212.482L445.429 224.978Z" fill="black"/>
<path opacity="0.1" d="M509.488 175.128C509.488 175.128 496.739 167.762 491.073 188.89C485.407 210.018 484.872 219.751 484.872 219.751L444.612 211.702L443.334 226.406C443.334 226.406 486.38 240.302 491.795 239.292C497.209 238.282 514.78 208.827 514.78 208.827C514.78 208.827 530.751 185.999 509.488 175.128Z" fill="black"/>
</g>
<path d="M428.399 338.305L411.963 347.771C411.963 347.771 390.667 350.379 404.853 355.349C419.04 360.32 452.02 355.13 452.02 355.13C452.02 355.13 450.187 340.315 447.632 338.246C445.077 336.178 428.399 338.305 428.399 338.305Z" fill="#68739D"/>
<path d="M492.463 232.104C492.463 232.104 484.284 236.38 469.756 240.073C461.241 242.211 450.582 243.729 443.216 244.595C439.446 245.005 435.882 246.526 432.978 248.965C430.073 251.404 427.959 254.651 426.903 258.293C426.23 260.443 426.165 262.737 426.716 264.921C429.137 273.382 425.524 342.159 425.524 342.159L450.486 344.468C450.486 344.468 447.081 331.795 452.25 325.408C457.419 319.021 451.384 270.405 451.384 270.405C451.384 270.405 460.428 266.663 487.454 266.418C512.492 272.831 522.808 245.428 518.943 237.748C515.079 230.068 492.463 232.104 492.463 232.104Z" fill="#6394E2"/>
<g opacity="0.1">
<path opacity="0.1" d="M428.399 338.305L411.963 347.771C411.963 347.771 390.667 350.379 404.853 355.349C419.04 360.32 452.02 355.13 452.02 355.13C452.02 355.13 450.187 340.315 447.632 338.246C445.077 336.178 428.399 338.305 428.399 338.305Z" fill="black"/>
<path opacity="0.1" d="M492.463 232.104C492.463 232.104 484.284 236.38 469.756 240.073C461.241 242.211 450.582 243.729 443.216 244.595C439.446 245.005 435.882 246.526 432.978 248.965C430.073 251.404 427.959 254.651 426.903 258.293C426.23 260.443 426.165 262.737 426.716 264.921C429.137 273.382 425.524 342.159 425.524 342.159L450.486 344.468C450.486 344.468 447.081 331.795 452.25 325.408C457.419 319.021 451.384 270.405 451.384 270.405C451.384 270.405 460.428 266.663 487.454 266.418C512.492 272.831 522.808 245.428 518.943 237.748C515.079 230.068 492.463 232.104 492.463 232.104Z" fill="black"/>
</g>
<path d="M436.107 344.05L419.67 353.516C419.67 353.516 398.385 356.103 412.561 361.095C426.737 366.087 459.728 360.875 459.728 360.875C459.728 360.875 457.895 346.06 455.34 343.991C452.785 341.923 436.107 344.05 436.107 344.05Z" fill="#68739D"/>
<path d="M495.135 272.163C468.11 272.409 459.065 276.15 459.065 276.15C459.065 276.15 465.1 324.788 459.931 331.154C454.762 337.519 458.167 350.213 458.167 350.213L433.205 347.904C433.205 347.904 433.247 347.092 433.317 345.638C433.916 333.687 436.551 278.208 434.386 270.667C433.84 268.489 433.904 266.203 434.573 264.06C435.624 260.413 437.735 257.16 440.639 254.715C443.543 252.27 447.108 250.744 450.882 250.33C458.242 249.469 468.901 247.972 477.416 245.808L477.833 245.701C492.105 242.034 500.123 237.839 500.123 237.839C500.123 237.839 522.739 235.808 526.603 243.488C527.148 244.706 527.418 246.029 527.394 247.363C527.587 257.727 516.95 277.759 495.135 272.163Z" fill="#6394E2"/>
<path d="M457.488 226.646L456.574 236.534C456.574 236.534 454.377 236.379 451.111 236.037C439.956 234.877 416.292 231.617 424.658 225.347C431.852 219.96 443.997 222.311 451.325 224.492C453.998 225.294 456.051 226.069 456.965 226.438C457.301 226.566 457.488 226.646 457.488 226.646Z" fill="#F8B9BF"/>
<path d="M523.882 162.002C523.882 162.002 520.536 164.62 516.447 167.496C511.962 168.511 506.756 169.351 503.004 169.896C504.345 165.62 503.538 160.81 502.025 156.593C500.38 152.186 498.122 148.033 495.317 144.257L517.938 137.196C516.164 141.691 516.966 146.817 518.473 151.275C519.804 155.069 521.622 158.675 523.882 162.002Z" fill="#F8B9BF"/>
<path opacity="0.1" d="M457.232 229.431L456.574 236.535C456.574 236.535 454.378 236.38 451.112 236.037L451.325 224.487C453.998 225.289 456.051 226.064 456.965 226.433L457.232 229.431Z" fill="black"/>
<path d="M458.37 236.951L451.561 236.32L451.785 223.984L457.232 224.487L458.37 236.951Z" fill="#D9DFE8"/>
<path opacity="0.1" d="M523.883 162.001C523.883 162.001 520.536 164.62 516.447 167.495C511.962 168.511 506.756 169.35 503.004 169.895C504.345 165.619 503.538 160.809 502.026 156.592C507.553 154.988 515.458 152.915 518.478 151.247C519.805 155.051 521.622 158.666 523.883 162.001Z" fill="black"/>
<path d="M519.36 151.515C519.36 151.515 523.145 160.104 525.529 163.984C527.913 167.864 497.829 171.467 497.829 171.467C497.829 171.467 494.708 160.654 496.199 159.414C497.69 158.174 516.843 154.027 519.36 151.515Z" fill="#D9DFE8"/>
<path opacity="0.1" d="M527.437 247.369C526.172 249.601 524.595 251.641 522.755 253.43C509.466 266.054 487.684 252.895 477.854 245.701C492.126 242.034 500.144 237.839 500.144 237.839C500.144 237.839 522.76 235.808 526.625 243.488C527.178 244.706 527.455 246.031 527.437 247.369Z" fill="black"/>
<path d="M522.84 252.526C507.734 266.872 481.681 247.876 474.658 242.28C473.519 241.372 472.883 240.811 472.883 240.811C475.657 238.213 478.095 232.708 480.024 225.973C481.823 219.53 483.122 212.958 483.91 206.315C485.255 195.084 489.193 184.319 495.413 174.872C496.231 173.642 497.017 172.493 497.835 171.488C503.538 164.235 513.122 159.628 513.122 159.628C533.349 153.717 536.07 183.717 535.53 184.583C534.99 185.449 540.4 235.845 522.84 252.526Z" fill="#66288E"/>
<path opacity="0.1" d="M524.797 211.516C524.797 211.516 511.791 243.264 506.59 245.076C503.613 246.107 487.711 244.151 474.658 242.286C473.519 241.377 472.883 240.816 472.883 240.816C475.657 238.218 478.095 232.713 480.024 225.979L496.835 226.78C496.835 226.78 495.9 217.085 498.369 195.342C500.839 173.6 514.528 178.987 514.528 178.987C537.176 186.571 524.797 211.516 524.797 211.516Z" fill="black"/>
<path opacity="0.1" d="M458.37 236.951L455.431 236.679L454.65 224.252L457.232 224.487L458.37 236.951Z" fill="black"/>
<path d="M514.202 177.586C514.202 177.586 500.513 172.204 498.043 193.942C495.574 215.679 496.509 225.38 496.509 225.38L455.495 223.418L456.419 238.148C456.419 238.148 501.058 245.476 506.259 243.67C511.46 241.863 524.465 210.11 524.465 210.11C524.465 210.11 536.829 185.165 514.202 177.586Z" fill="#66288E"/>
<path opacity="0.1" d="M515.122 145.4C514.523 142.15 517.917 142.193 519.136 139.136L496.515 146.196C498.085 148.304 499.486 150.533 500.705 152.861C501.879 153.21 503.084 153.442 504.303 153.556C509.696 154.069 511.38 148.762 515.122 145.4Z" fill="black"/>
<path d="M523.416 134.72C524.366 124.444 516.805 115.344 506.528 114.394C496.251 113.444 487.15 121.005 486.2 131.281C485.251 141.556 492.812 150.657 503.089 151.606C513.366 152.556 522.467 144.995 523.416 134.72Z" fill="#F8B9BF"/>
<path opacity="0.1" d="M486.369 116.121C486.599 118.067 488.652 119.253 490.56 119.691C492.468 120.13 494.537 120.151 496.21 121.172C498.883 122.818 499.604 126.474 499.267 129.617C499.08 131.391 498.813 133.567 500.267 134.598C500.724 134.878 501.233 135.06 501.764 135.133C503.28 135.44 504.837 135.494 506.371 135.293C507.269 135.175 508.194 134.972 509.044 135.223C510.444 135.63 511.273 137.105 511.546 138.532C511.818 139.959 511.668 141.445 511.888 142.883C512.193 144.683 513.037 146.348 514.308 147.659C515.579 148.97 517.218 149.865 519.008 150.226C519.847 150.43 520.73 150.351 521.52 150.002C522.535 149.467 523.054 148.329 523.492 147.265L526.699 139.59C528.143 136.132 529.597 132.642 530.366 128.975C531.509 123.453 531.066 117.72 529.089 112.439C528.33 110.429 527.282 108.414 525.502 107.206C521.937 104.785 516.95 106.458 512.898 105.068C511.556 104.603 510.348 103.812 509.012 103.336C506.12 102.305 502.854 102.85 500.069 104.149C497.284 105.448 495.034 107.495 492.586 109.36C490.464 111.011 485.968 112.759 486.369 116.121Z" fill="black"/>
<path d="M486.861 115.71C487.091 117.655 489.143 118.842 491.052 119.28C492.96 119.719 495.029 119.74 496.702 120.761C499.374 122.407 500.096 126.063 499.759 129.206C499.572 130.98 499.305 133.155 500.759 134.187C501.215 134.467 501.725 134.649 502.255 134.721C503.772 135.028 505.329 135.083 506.863 134.882C507.761 134.764 508.686 134.561 509.536 134.812C510.936 135.218 511.765 136.694 512.037 138.121C512.31 139.548 512.16 141.034 512.379 142.471C512.685 144.272 513.529 145.937 514.8 147.248C516.071 148.559 517.709 149.454 519.499 149.815C520.339 150.019 521.222 149.94 522.012 149.591C523.027 149.056 523.546 147.918 523.984 146.854L527.191 139.179C528.634 135.721 530.088 132.231 530.858 128.564C532.001 123.042 531.558 117.309 529.58 112.027C528.821 110.018 527.774 108.003 525.994 106.795C522.428 104.374 517.441 106.047 513.39 104.657C512.048 104.192 510.84 103.401 509.504 102.925C506.612 101.894 503.346 102.439 500.561 103.738C497.776 105.036 495.526 107.083 493.077 108.949C490.961 110.6 486.465 112.348 486.861 115.71Z" fill="#B96B6B"/>
<path opacity="0.1" d="M502.341 189.526C502.341 189.526 495.205 217.245 488.101 219.81C480.997 222.376 484.135 223.102 484.135 223.102" fill="black"/>
<path d="M502.678 291.067H494.922V342.041H502.678V291.067Z" fill="#D6D6E3"/>
<path opacity="0.1" d="M502.678 291.067H494.922V294.846H502.678V291.067Z" fill="black"/>
<path d="M479.404 290.8V291.869C479.404 292.198 479.469 292.524 479.595 292.828C479.721 293.132 479.906 293.408 480.138 293.641C480.371 293.874 480.648 294.059 480.952 294.185C481.256 294.311 481.582 294.375 481.911 294.375H515.683C516.012 294.375 516.338 294.311 516.642 294.185C516.946 294.059 517.223 293.874 517.455 293.641C517.688 293.408 517.873 293.132 517.999 292.828C518.125 292.524 518.19 292.198 518.19 291.869V290.8C518.19 290.47 518.125 290.145 517.999 289.84C517.873 289.536 517.688 289.26 517.455 289.027C517.223 288.794 516.946 288.61 516.642 288.484C516.338 288.358 516.012 288.293 515.683 288.293H481.911C481.582 288.293 481.256 288.358 480.952 288.484C480.648 288.61 480.371 288.794 480.138 289.027C479.906 289.26 479.721 289.536 479.595 289.84C479.469 290.145 479.404 290.47 479.404 290.8Z" fill="#D6D6E3"/>
<path opacity="0.1" d="M479.982 289.207H517.618C517.383 288.921 517.088 288.69 516.753 288.532C516.419 288.374 516.053 288.292 515.683 288.293H481.911C481.542 288.293 481.177 288.375 480.844 288.533C480.51 288.691 480.216 288.921 479.982 289.207Z" fill="black"/>
<path d="M527.726 339.267H469.884C468.261 339.267 466.944 340.583 466.944 342.206V342.42C466.944 344.044 468.261 345.36 469.884 345.36H527.726C529.349 345.36 530.666 344.044 530.666 342.42V342.206C530.666 340.583 529.349 339.267 527.726 339.267Z" fill="#D6D6E3"/>
<path d="M527.063 353.12C529.206 353.12 530.944 351.383 530.944 349.24C530.944 347.097 529.206 345.359 527.063 345.359C524.92 345.359 523.182 347.097 523.182 349.24C523.182 351.383 524.92 353.12 527.063 353.12Z" fill="#535461"/>
<path d="M470.542 353.12C472.685 353.12 474.422 351.383 474.422 349.24C474.422 347.097 472.685 345.359 470.542 345.359C468.398 345.359 466.661 347.097 466.661 349.24C466.661 351.383 468.398 353.12 470.542 353.12Z" fill="#535461"/>
<path d="M498.802 353.12C500.946 353.12 502.683 351.383 502.683 349.24C502.683 347.097 500.946 345.359 498.802 345.359C496.659 345.359 494.922 347.097 494.922 349.24C494.922 351.383 496.659 353.12 498.802 353.12Z" fill="#535461"/>
<path d="M546.969 228.458H495.103C492.594 228.458 490.56 230.492 490.56 233.001V233.332C490.56 235.842 492.594 237.876 495.103 237.876H546.969C549.478 237.876 551.512 235.842 551.512 233.332V233.001C551.512 230.492 549.478 228.458 546.969 228.458Z" fill="#D6D6E3"/>
<path opacity="0.1" d="M502.678 339.267C502.678 339.267 499.631 342.276 494.922 339.267H502.678Z" fill="black"/>
<path opacity="0.1" d="M551.512 233.264V234.007C551.512 235.034 551.104 236.02 550.377 236.747C549.651 237.473 548.665 237.882 547.637 237.882H494.435C493.407 237.882 492.422 237.473 491.695 236.747C490.968 236.02 490.56 235.034 490.56 234.007V233.264H551.512Z" fill="black"/>
<path d="M450.101 241.922H439.619V375.467H450.101V241.922Z" fill="#D6D6E3"/>
<path opacity="0.1" d="M450.101 241.922H439.619V250.58H450.101V241.922Z" fill="black"/>
<path d="M132.27 294.713H124.514V345.686H132.27V294.713Z" fill="#D6D6E3"/>
<path opacity="0.1" d="M132.27 294.713H124.514V298.492H132.27V294.713Z" fill="black"/>
<path d="M147.782 294.45V295.519C147.782 296.184 147.517 296.822 147.047 297.292C146.577 297.762 145.94 298.026 145.275 298.026H111.503C110.838 298.026 110.201 297.762 109.73 297.292C109.26 296.822 108.996 296.184 108.996 295.519V294.45C109.002 293.789 109.268 293.157 109.738 292.691C110.207 292.226 110.842 291.965 111.503 291.965H145.275C145.604 291.965 145.93 292.03 146.234 292.156C146.538 292.282 146.815 292.466 147.047 292.699C147.28 292.932 147.465 293.208 147.591 293.512C147.717 293.816 147.782 294.142 147.782 294.472V294.45Z" fill="#D6D6E3"/>
<path opacity="0.1" d="M147.21 292.852H109.568C109.805 292.571 110.102 292.345 110.436 292.192C110.771 292.039 111.135 291.961 111.503 291.965H145.275C145.643 291.961 146.007 292.039 146.342 292.192C146.676 292.345 146.973 292.571 147.21 292.852Z" fill="black"/>
<path d="M157.312 342.912H99.4708C97.8471 342.912 96.5309 344.228 96.5309 345.852V346.066C96.5309 347.689 97.8471 349.005 99.4708 349.005H157.312C158.936 349.005 160.252 347.689 160.252 346.066V345.852C160.252 344.228 158.936 342.912 157.312 342.912Z" fill="#D6D6E3"/>
<path d="M100.134 356.766C102.277 356.766 104.014 355.028 104.014 352.885C104.014 350.742 102.277 349.005 100.134 349.005C97.9903 349.005 96.2528 350.742 96.2528 352.885C96.2528 355.028 97.9903 356.766 100.134 356.766Z" fill="#535461"/>
<path d="M156.649 356.766C158.793 356.766 160.53 355.028 160.53 352.885C160.53 350.742 158.793 349.005 156.649 349.005C154.506 349.005 152.769 350.742 152.769 352.885C152.769 355.028 154.506 356.766 156.649 356.766Z" fill="#535461"/>
<path d="M128.389 356.766C130.532 356.766 132.27 355.028 132.27 352.885C132.27 350.742 130.532 349.005 128.389 349.005C126.246 349.005 124.508 350.742 124.508 352.885C124.508 355.028 126.246 356.766 128.389 356.766Z" fill="#535461"/>
<path opacity="0.1" d="M124.513 342.912C124.513 342.912 127.56 345.921 132.269 342.912H124.513Z" fill="black"/>
<path d="M322.381 189.463C322.381 189.463 313.678 173.647 316.859 159.901C318.229 154.143 317.695 148.097 315.336 142.669C314.203 140.102 312.838 137.644 311.257 135.325" stroke="#535461" stroke-width="2" stroke-miterlimit="10"/>
<path d="M313.187 126.645C313.641 128.719 311.209 135.555 311.209 135.555C311.209 135.555 306.136 130.371 305.676 128.297C305.523 127.79 305.475 127.257 305.537 126.731C305.599 126.205 305.77 125.697 306.037 125.24C306.305 124.783 306.664 124.386 307.092 124.074C307.52 123.762 308.009 123.542 308.526 123.428C309.043 123.314 309.578 123.308 310.098 123.411C310.618 123.513 311.111 123.722 311.546 124.024C311.981 124.326 312.349 124.715 312.627 125.166C312.905 125.617 313.086 126.121 313.16 126.645H313.187Z" fill="#66288E"/>
<path d="M321.915 136.762C321.172 138.751 315.416 143.176 315.416 143.176C315.416 143.176 313.972 136.068 314.721 134.09C314.881 133.598 315.139 133.143 315.48 132.753C315.82 132.362 316.236 132.045 316.702 131.82C317.169 131.594 317.676 131.465 318.193 131.441C318.71 131.416 319.227 131.497 319.713 131.677C320.198 131.857 320.642 132.133 321.018 132.49C321.394 132.846 321.694 133.274 321.901 133.749C322.107 134.224 322.215 134.736 322.218 135.254C322.222 135.772 322.121 136.285 321.921 136.762H321.915Z" fill="#66288E"/>
<path d="M325.957 156.442C324.31 157.784 317.11 158.687 317.11 158.687C317.11 158.687 319.457 151.824 321.103 150.483C321.494 150.159 321.945 149.916 322.43 149.767C322.915 149.619 323.425 149.567 323.93 149.617C324.435 149.666 324.926 149.815 325.373 150.055C325.82 150.295 326.215 150.621 326.536 151.015C326.856 151.408 327.096 151.861 327.24 152.348C327.384 152.834 327.431 153.345 327.377 153.849C327.323 154.354 327.17 154.843 326.926 155.288C326.682 155.733 326.353 156.125 325.957 156.442Z" fill="#66288E"/>
<path d="M325.663 172.017C324.267 173.621 317.324 175.727 317.324 175.727C317.324 175.727 318.473 168.565 319.868 166.966C320.195 166.569 320.597 166.24 321.053 166.001C321.509 165.762 322.008 165.617 322.52 165.574C323.033 165.531 323.549 165.592 324.038 165.752C324.527 165.913 324.979 166.17 325.367 166.508C325.754 166.846 326.07 167.259 326.296 167.722C326.521 168.184 326.651 168.687 326.678 169.201C326.705 169.715 326.629 170.229 326.453 170.713C326.278 171.197 326.007 171.64 325.657 172.017H325.663Z" fill="#66288E"/>
<path d="M307.622 145.299C309.429 146.416 316.682 146.368 316.682 146.368C316.682 146.368 313.475 139.863 311.669 138.746C311.24 138.464 310.758 138.271 310.253 138.178C309.748 138.085 309.23 138.094 308.729 138.205C308.227 138.315 307.753 138.525 307.334 138.822C306.915 139.119 306.56 139.497 306.29 139.933C306.019 140.37 305.839 140.856 305.76 141.363C305.681 141.871 305.704 142.389 305.828 142.887C305.952 143.385 306.175 143.853 306.483 144.264C306.791 144.674 307.179 145.019 307.622 145.278V145.299Z" fill="#66288E"/>
<path d="M307.515 163.524C309.573 164.059 316.485 161.856 316.485 161.856C316.485 161.856 311.476 156.608 309.418 156.084C308.448 155.878 307.435 156.055 306.592 156.578C305.749 157.101 305.141 157.93 304.895 158.891C304.649 159.852 304.785 160.871 305.273 161.734C305.761 162.598 306.565 163.239 307.515 163.524Z" fill="#66288E"/>
<path d="M309.83 181.247C311.765 182.113 318.954 181.119 318.954 181.119C318.954 181.119 314.902 175.101 312.967 174.235C312.037 173.819 310.979 173.79 310.027 174.154C309.074 174.517 308.306 175.245 307.889 176.175C307.473 177.106 307.444 178.164 307.808 179.116C308.172 180.068 308.899 180.837 309.83 181.253V181.247Z" fill="#66288E"/>
<path d="M313.187 126.645C313.641 128.719 311.209 135.555 311.209 135.555C311.209 135.555 306.136 130.371 305.676 128.297C305.523 127.79 305.475 127.257 305.537 126.731C305.599 126.205 305.77 125.697 306.037 125.24C306.305 124.783 306.664 124.386 307.092 124.074C307.52 123.762 308.009 123.542 308.526 123.428C309.043 123.314 309.578 123.308 310.098 123.411C310.618 123.513 311.111 123.722 311.546 124.024C311.981 124.326 312.349 124.715 312.627 125.166C312.905 125.617 313.086 126.121 313.16 126.645H313.187Z" fill="#66288E"/>
<path d="M321.915 136.762C321.172 138.751 315.416 143.176 315.416 143.176C315.416 143.176 313.972 136.068 314.721 134.09C314.881 133.598 315.139 133.143 315.48 132.753C315.82 132.362 316.236 132.045 316.702 131.82C317.169 131.594 317.676 131.465 318.193 131.441C318.71 131.416 319.227 131.497 319.713 131.677C320.198 131.857 320.642 132.133 321.018 132.49C321.394 132.846 321.694 133.274 321.901 133.749C322.107 134.224 322.215 134.736 322.218 135.254C322.222 135.772 322.121 136.285 321.921 136.762H321.915Z" fill="#66288E"/>
<path d="M325.957 156.442C324.31 157.784 317.11 158.687 317.11 158.687C317.11 158.687 319.457 151.824 321.103 150.483C321.494 150.159 321.945 149.916 322.43 149.767C322.915 149.619 323.425 149.567 323.93 149.617C324.435 149.666 324.926 149.815 325.373 150.055C325.82 150.295 326.215 150.621 326.536 151.015C326.856 151.408 327.096 151.861 327.24 152.348C327.384 152.834 327.431 153.345 327.377 153.849C327.323 154.354 327.17 154.843 326.926 155.288C326.682 155.733 326.353 156.125 325.957 156.442Z" fill="#66288E"/>
<path d="M325.663 172.017C324.267 173.621 317.324 175.727 317.324 175.727C317.324 175.727 318.473 168.565 319.868 166.966C320.195 166.569 320.597 166.24 321.053 166.001C321.509 165.762 322.008 165.617 322.52 165.574C323.033 165.531 323.549 165.592 324.038 165.752C324.527 165.913 324.979 166.17 325.367 166.508C325.754 166.846 326.07 167.259 326.296 167.722C326.521 168.184 326.651 168.687 326.678 169.201C326.705 169.715 326.629 170.229 326.453 170.713C326.278 171.197 326.007 171.64 325.657 172.017H325.663Z" fill="#66288E"/>
<path d="M307.622 145.299C309.429 146.416 316.682 146.368 316.682 146.368C316.682 146.368 313.475 139.863 311.669 138.746C311.24 138.464 310.758 138.271 310.253 138.178C309.748 138.085 309.23 138.094 308.729 138.205C308.227 138.315 307.753 138.525 307.334 138.822C306.915 139.119 306.56 139.497 306.29 139.933C306.019 140.37 305.839 140.856 305.76 141.363C305.681 141.871 305.704 142.389 305.828 142.887C305.952 143.385 306.175 143.853 306.483 144.264C306.791 144.674 307.179 145.019 307.622 145.278V145.299Z" fill="#66288E"/>
<path d="M307.515 163.524C309.573 164.059 316.485 161.856 316.485 161.856C316.485 161.856 311.476 156.608 309.418 156.084C308.448 155.878 307.435 156.055 306.592 156.578C305.749 157.101 305.141 157.93 304.895 158.891C304.649 159.852 304.785 160.871 305.273 161.734C305.761 162.598 306.565 163.239 307.515 163.524Z" fill="#66288E"/>
<path d="M309.83 181.247C311.765 182.113 318.954 181.119 318.954 181.119C318.954 181.119 314.902 175.101 312.967 174.235C312.037 173.819 310.979 173.79 310.027 174.154C309.074 174.517 308.306 175.245 307.889 176.175C307.473 177.106 307.444 178.164 307.808 179.116C308.172 180.068 308.899 180.837 309.83 181.253V181.247Z" fill="#66288E"/>
<path d="M318.842 233.328C317.59 233.328 316.351 233.072 315.202 232.575C314.053 232.078 313.018 231.35 312.161 230.438C311.304 229.525 310.643 228.447 310.219 227.269C309.795 226.091 309.617 224.839 309.696 223.59L312.257 183.022H325.427L327.988 223.59C328.067 224.839 327.889 226.091 327.465 227.269C327.041 228.447 326.38 229.525 325.523 230.438C324.666 231.35 323.631 232.078 322.482 232.575C321.333 233.072 320.094 233.328 318.842 233.328Z" fill="#66288E"/>
<path opacity="0.1" d="M52.1702 33.8965H44.6868V64.8963H52.1702V33.8965Z" fill="#66288E"/>
<path opacity="0.1" d="M61.7918 33.8965H54.3083V64.8963H61.7918V33.8965Z" fill="#66288E"/>
<path opacity="0.1" d="M71.4132 33.8965H63.9298V64.8963H71.4132V33.8965Z" fill="#66288E"/>
<path opacity="0.1" d="M81.0348 33.8965H73.5514V64.8963H81.0348V33.8965Z" fill="#66288E"/>
<path opacity="0.1" d="M100.278 33.8965H92.7944V64.8963H100.278V33.8965Z" fill="#66288E"/>
<path opacity="0.1" d="M109.899 33.8965H102.416V64.8963H109.899V33.8965Z" fill="#66288E"/>
<path opacity="0.1" d="M52.1702 39.7764H44.6868V41.3798H52.1702V39.7764Z" fill="#66288E"/>
<path opacity="0.1" d="M52.1702 59.0176H44.6868V60.621H52.1702V59.0176Z" fill="#66288E"/>
<path opacity="0.1" d="M61.7918 39.7764H54.3083V41.3798H61.7918V39.7764Z" fill="#66288E"/>
<path opacity="0.1" d="M61.7918 59.0176H54.3083V60.621H61.7918V59.0176Z" fill="#66288E"/>
<path opacity="0.1" d="M71.4132 39.7764H63.9298V41.3798H71.4132V39.7764Z" fill="#66288E"/>
<path opacity="0.1" d="M71.4132 59.0176H63.9298V60.621H71.4132V59.0176Z" fill="#66288E"/>
<path opacity="0.1" d="M81.0348 39.7764H73.5514V41.3798H81.0348V39.7764Z" fill="#66288E"/>
<path opacity="0.1" d="M81.0348 59.0176H73.5514V60.621H81.0348V59.0176Z" fill="#66288E"/>
<path opacity="0.1" d="M90.6564 39.7764H83.173V41.3798H90.6564V39.7764Z" fill="#66288E"/>
<path opacity="0.1" d="M90.6564 59.0176H83.173V60.621H90.6564V59.0176Z" fill="#66288E"/>
<path opacity="0.1" d="M100.278 39.7764H92.7944V41.3798H100.278V39.7764Z" fill="#66288E"/>
<path opacity="0.1" d="M100.278 59.0176H92.7944V60.621H100.278V59.0176Z" fill="#66288E"/>
<path opacity="0.1" d="M109.899 39.7764H102.416V41.3798H109.899V39.7764Z" fill="#66288E"/>
<path opacity="0.1" d="M109.899 59.0176H102.416V60.621H109.899V59.0176Z" fill="#66288E"/>
<path opacity="0.1" d="M90.6564 33.8965H83.173V64.8963H90.6564V33.8965Z" fill="#66288E"/>
<path opacity="0.1" d="M116.937 33.7541L110.146 36.8975L123.17 65.0293L129.961 61.886L116.937 33.7541Z" fill="#66288E"/>
<path opacity="0.1" d="M119.409 39.0949L112.618 42.2383L113.292 43.6934L120.083 40.55L119.409 39.0949Z" fill="#66288E"/>
<path opacity="0.1" d="M127.489 56.5539L120.698 59.6973L121.371 61.1524L128.162 58.009L127.489 56.5539Z" fill="#66288E"/>
<path d="M208.007 353.543L194.425 344.879C194.355 332.677 194.163 276.027 196.702 268.448C197.357 266.254 197.394 263.922 196.809 261.709C195.045 254.007 188.609 248.256 180.81 246.989C173.455 245.792 162.871 243.83 154.351 241.297C161.947 240.511 167.639 239.832 167.639 239.832L167.789 238.427L172.68 238.192V237.983L173.145 237.956C184.568 237.278 208.825 235.017 200.583 228.25C197.755 225.931 194.067 224.835 190.175 224.466C202.074 221.751 220.67 216.492 212.38 211.548C204.501 206.855 192.436 210.543 185.236 213.541L184.792 213.728L184.712 213.082L181.837 213.659L180.923 213.841L180.88 212.9L140.528 219.132C140.212 214.509 139.662 209.905 138.882 205.337C139.785 199.319 143.986 190.543 142.506 185.834C140.785 180.366 133.718 178.576 130.746 173.637C129.966 172.349 129.191 171.141 128.432 170.083C126.77 167.825 124.861 165.762 122.739 163.931C122.867 160.755 123.578 157.63 124.834 154.711C125.64 152.758 126.583 150.865 127.657 149.046C132.36 147.879 136.441 144.962 139.067 140.89C141.694 136.818 142.667 131.897 141.79 127.132C144.345 128.228 147.45 128.34 149.048 126.202L148.289 125.908C148.364 125.828 148.439 125.748 148.503 125.657C146.948 125.063 145.296 124.39 144.077 123.31C143.769 122.964 143.508 122.577 143.302 122.161C142.565 120.665 142.65 118.869 141.945 117.351C141.612 116.66 141.141 116.045 140.56 115.544C139.322 114.279 137.756 113.383 136.038 112.957C134.108 112.396 132.077 112.113 130.228 111.354C127.707 108.427 124.38 106.309 120.661 105.263C116.943 104.217 112.999 104.291 109.322 105.475L108.654 105.704C109.118 103.467 108.685 101.138 107.449 99.2164C106.212 97.2953 104.271 95.9363 102.042 95.4319C99.8136 94.9275 97.4761 95.3181 95.5327 96.5196C93.5893 97.7211 92.1953 99.6374 91.6506 101.856C91.8201 99.9083 92.6411 98.0744 93.9812 96.6504C93.8422 96.768 93.6979 96.8802 93.5642 97.0032C92.7296 97.7878 92.0577 98.7292 91.5869 99.7736C91.1161 100.818 90.8556 101.945 90.8204 103.09C90.7851 104.235 90.9758 105.376 91.3815 106.447C91.7871 107.518 92.3999 108.499 93.1847 109.334L93.3397 109.483C93.9569 110.238 94.6958 110.885 95.526 111.397C93.9982 110.857 92.6508 109.903 91.6349 108.641C90.6191 107.379 89.9748 105.858 89.7744 104.251C89.7744 104.432 89.7744 104.614 89.7744 104.785C89.8411 105.934 90.1344 107.058 90.6373 108.093C91.1403 109.127 91.843 110.052 92.705 110.815C93.567 111.577 94.5713 112.161 95.66 112.533C96.7487 112.905 97.9003 113.059 99.0485 112.984L99.2891 112.957L99.1608 113.134C96.6749 116.79 95.4966 121.178 95.8168 125.587C96.1369 129.996 97.9368 134.168 100.925 137.426C101.279 138.238 101.751 138.995 102.325 139.671C102.527 139.901 102.743 140.119 102.972 140.323C104.436 141.867 106.438 142.79 108.563 142.899C108.92 143.323 109.299 143.731 109.702 144.123C109.349 145.622 108.888 147.094 108.323 148.527C107.183 151.38 105.765 154.114 104.089 156.689C92.5433 159.97 91.5277 179.575 91.9446 180.318C92.4417 181.205 90.2234 211.991 98.7759 249.18C98.4231 259.811 104.624 277.39 126.636 272.756C154.164 274.226 163.192 278.443 163.192 278.443C163.192 278.443 160.578 326.317 164.309 333.286C166.645 337.653 164.988 344.067 163.24 348.594C162.592 349.714 162.076 350.905 161.701 352.143C161.166 353.271 160.776 353.955 160.776 353.955H161.15C159.739 358.856 158.74 364.773 158.74 364.773C158.74 364.773 192.11 371.544 206.788 367.114C212.486 365.393 212.722 363.8 210.872 362.485C212.234 362.285 213.581 361.99 214.903 361.603C229.591 357.172 208.007 353.543 208.007 353.543Z" fill="url(#paint1_linear)"/>
<path d="M135.396 126.276C135.396 130.082 134.268 133.802 132.153 136.966C130.039 140.131 127.034 142.597 123.517 144.053C120.001 145.509 116.132 145.89 112.399 145.148C108.666 144.406 105.238 142.573 102.546 139.882C99.8553 137.191 98.0225 133.763 97.28 130.03C96.5375 126.298 96.9186 122.429 98.3751 118.913C99.8315 115.397 102.298 112.392 105.462 110.278C108.627 108.164 112.347 107.035 116.153 107.035C118.68 107.035 121.183 107.533 123.517 108.5C125.852 109.467 127.973 110.884 129.76 112.671C131.547 114.458 132.965 116.579 133.932 118.913C134.899 121.248 135.396 123.75 135.396 126.276Z" fill="#FA595F"/>
<path d="M178.742 216.673L180.693 226.411C180.693 226.411 182.863 226.021 186.075 225.342C197.049 223.017 220.237 217.277 211.257 211.922C203.533 207.32 191.704 210.938 184.648 213.878C182.061 214.947 180.115 215.941 179.244 216.406C178.918 216.572 178.742 216.673 178.742 216.673Z" fill="#F8B9BF"/>
<path opacity="0.1" d="M179.292 219.42L180.693 226.411C180.693 226.411 182.863 226.021 186.075 225.343L184.648 213.878C182.061 214.947 180.115 215.941 179.244 216.406L179.292 219.42Z" fill="black"/>
<path d="M178.955 227.015L185.658 225.674L184.14 213.429L178.774 214.503L178.955 227.015Z" fill="#D9DFE8"/>
<path opacity="0.1" d="M178.955 227.015L181.847 226.432L181.318 213.995L178.774 214.503L178.955 227.015Z" fill="black"/>
<path d="M117.174 173.845C117.174 173.845 130.222 167.046 134.964 188.409C139.705 209.773 139.774 219.511 139.774 219.511L180.356 213.241L180.987 227.988C180.987 227.988 137.369 239.976 132.008 238.725C126.646 237.475 110.37 207.271 110.37 207.271C110.37 207.271 95.4565 183.781 117.174 173.845Z" fill="#66288E"/>
<g opacity="0.1">
<path opacity="0.1" d="M178.742 216.673L180.693 226.411C180.693 226.411 182.863 226.021 186.075 225.342C197.049 223.017 220.237 217.277 211.257 211.922C203.533 207.32 191.704 210.938 184.648 213.878C182.061 214.947 180.115 215.941 179.244 216.406C178.918 216.572 178.742 216.673 178.742 216.673Z" fill="black"/>
<path opacity="0.1" d="M179.292 219.42L180.693 226.411C180.693 226.411 182.863 226.021 186.075 225.343L184.648 213.878C182.061 214.947 180.115 215.941 179.244 216.406L179.292 219.42Z" fill="black"/>
<path opacity="0.1" d="M178.955 227.015L185.658 225.674L184.14 213.429L178.774 214.503L178.955 227.015Z" fill="black"/>
<path opacity="0.1" d="M178.955 227.015L181.847 226.432L181.318 213.995L178.774 214.503L178.955 227.015Z" fill="black"/>
<path opacity="0.1" d="M118.243 174.914C118.243 174.914 131.291 168.116 136.033 189.479C140.774 210.842 140.843 220.58 140.843 220.58L181.425 214.311L182.056 229.057C182.056 229.057 138.438 241.045 133.077 239.795C127.715 238.544 111.439 208.341 111.439 208.341C111.439 208.341 96.5255 184.85 118.243 174.914Z" fill="black"/>
</g>
<path d="M190.988 340.982L206.991 351.137C206.991 351.137 228.153 354.681 213.759 359.026C199.364 363.372 166.651 356.728 166.651 356.728C166.651 356.728 169.136 342.008 171.782 340.058C174.428 338.107 190.988 340.982 190.988 340.982Z" fill="#F37291"/>
<path d="M131.655 232.05C131.655 232.05 139.635 236.684 153.987 241.013C162.401 243.552 172.985 245.514 180.297 246.705C184.048 247.284 187.543 248.966 190.336 251.535C193.13 254.105 195.096 257.447 195.985 261.136C196.56 263.306 196.524 265.592 195.884 267.743C193.094 276.091 193.66 344.959 193.66 344.959L168.623 346.162C168.623 346.162 172.584 333.649 167.703 327.043C162.823 320.437 170.996 272.136 170.996 272.136C170.996 272.136 162.128 267.999 135.135 266.561C109.835 271.906 100.743 244.033 104.944 236.529C109.146 229.025 131.655 232.05 131.655 232.05Z" fill="#96A2D0"/>
<g opacity="0.1">
<path opacity="0.1" d="M190.988 340.982L206.991 351.137C206.991 351.137 228.153 354.681 213.758 359.026C199.364 363.372 166.65 356.728 166.65 356.728C166.65 356.728 169.136 342.008 171.782 340.058C174.428 338.107 190.988 340.982 190.988 340.982Z" fill="black"/>
<path opacity="0.1" d="M131.655 232.05C131.655 232.05 139.635 236.684 153.987 241.013C162.401 243.552 172.985 245.514 180.297 246.705C184.048 247.284 187.543 248.966 190.336 251.535C193.13 254.105 195.096 257.447 195.985 261.136C196.56 263.306 196.524 265.592 195.884 267.743C193.094 276.091 193.66 344.959 193.66 344.959L168.623 346.162C168.623 346.162 172.584 333.649 167.703 327.043C162.823 320.437 170.996 272.136 170.996 272.136C170.996 272.136 162.128 267.999 135.135 266.561C109.835 271.906 100.743 244.033 104.944 236.529C109.146 229.025 131.655 232.05 131.655 232.05Z" fill="black"/>
</g>
<path d="M183.012 346.386L199.016 356.542C199.016 356.542 220.178 360.085 205.783 364.431C191.389 368.776 158.675 362.132 158.675 362.132C158.675 362.132 161.161 347.413 163.807 345.462C166.453 343.511 183.012 346.386 183.012 346.386Z" fill="#F37291"/>
<path d="M127.186 271.96C154.18 273.397 163.048 277.534 163.048 277.534C163.048 277.534 160.487 324.472 164.117 331.303C167.992 338.55 160.653 351.56 160.653 351.56L185.69 350.357C185.69 350.357 185.69 349.545 185.69 348.091C185.616 336.129 185.434 280.586 187.919 273.141C188.56 270.99 188.595 268.704 188.021 266.535C187.131 262.845 185.164 259.504 182.371 256.934C179.578 254.365 176.084 252.683 172.333 252.104C165.015 250.917 154.437 248.956 146.023 246.417L145.611 246.289C131.516 242.013 123.696 237.454 123.696 237.454C123.696 237.454 107.024 236.299 102.849 243.803C102.314 244.776 100.011 246.689 99.9144 248.234C99.289 258.571 105.174 276.594 127.186 271.96Z" fill="#96A2D0"/>
<path d="M166.832 228.148L167.308 238.068C167.308 238.068 169.51 238.009 172.792 237.811C183.991 237.143 207.777 234.93 199.695 228.297C192.746 222.595 180.506 224.412 173.092 226.266C170.371 226.951 168.281 227.635 167.372 227.961C167.019 228.078 166.832 228.148 166.832 228.148Z" fill="#F8B9BF"/>
<path d="M103.325 160.638C103.325 160.638 106.532 163.401 110.509 166.459C114.945 167.667 120.13 168.741 123.835 169.452C122.685 165.096 123.706 160.366 125.401 156.202C127.24 151.871 129.68 147.821 132.649 144.171L110.359 136.116C111.936 140.686 110.894 145.79 109.199 150.157C107.703 153.89 105.729 157.414 103.325 160.638Z" fill="#F8B9BF"/>
<path opacity="0.1" d="M166.966 230.944L167.308 238.068C167.308 238.068 169.51 238.01 172.792 237.812L173.092 226.262C170.371 226.946 168.281 227.63 167.372 227.956L166.966 230.944Z" fill="black"/>
<path d="M165.501 238.405L172.327 238.079L172.648 225.743L167.185 226.005L165.501 238.405Z" fill="#D9DFE8"/>
<path d="M100.401 251.12C114.833 266.123 141.747 248.293 148.984 243.012C150.16 242.151 150.818 241.622 150.818 241.622C148.145 238.902 143.869 236.384 142.228 229.57C140.662 222.614 139.601 215.555 139.053 208.447C138.609 202.808 144.435 192.071 142.752 186.715C141.068 181.36 134.135 179.601 131.222 174.753C130.457 173.492 129.698 172.305 128.95 171.269C123.573 163.786 114.202 158.746 114.202 158.746C94.2377 151.931 92.6715 180.44 93.1686 181.327C93.6657 182.215 91.3833 213.642 100.401 251.12Z" fill="#66288E"/>
<path opacity="0.1" d="M100.251 210.062C100.251 210.062 111.845 242.355 116.961 244.391C119.89 245.556 135.867 244.3 148.984 243.012C150.16 242.152 150.818 241.623 150.818 241.623C148.145 238.902 145.97 233.295 144.334 226.486L127.501 226.545C127.501 226.545 128.865 216.924 127.357 195.069C125.85 173.215 111.936 178.02 111.936 178.02C88.9886 184.599 100.251 210.062 100.251 210.062Z" fill="black"/>
<path opacity="0.1" d="M165.501 238.405L168.447 238.266L169.777 225.882L167.185 226.005L165.501 238.405Z" fill="black"/>
<path d="M112.332 176.629C112.332 176.629 126.229 171.857 127.753 193.679C129.276 215.502 127.913 225.155 127.913 225.155L168.976 225.005L167.399 239.682C167.399 239.682 122.498 245.027 117.367 243.001C112.235 240.976 100.652 208.677 100.652 208.677C100.652 208.677 89.3789 183.209 112.332 176.629Z" fill="#66288E"/>
<path opacity="0.1" d="M112.839 144.449C113.582 141.242 110.167 141.14 109.098 138.035L131.398 146.052C129.737 148.089 128.239 150.253 126.919 152.525C125.731 152.821 124.517 153 123.295 153.059C117.875 153.327 116.426 147.966 112.839 144.449Z" fill="black"/>
<path d="M124.567 151.187C134.875 150.692 142.831 141.935 142.336 131.627C141.841 121.319 133.082 113.364 122.774 113.859C112.465 114.354 104.509 123.112 105.004 133.42C105.5 143.728 114.258 151.682 124.567 151.187Z" fill="#F8B9BF"/>
<path opacity="0.1" d="M114.015 190.489C114.015 190.489 119.927 218.491 126.908 221.35C133.889 224.21 130.725 224.819 130.725 224.819" fill="black"/>
<path opacity="0.1" d="M138.379 206.304C138.379 206.304 133.44 207.849 127.689 200.468L138.379 206.304Z" fill="black"/>
<path d="M101.187 115.053C105.91 115.053 109.739 111.224 109.739 106.501C109.739 101.778 105.91 97.9492 101.187 97.9492C96.4631 97.9492 92.634 101.778 92.634 106.501C92.634 111.224 96.4631 115.053 101.187 115.053Z" fill="#FA595F"/>
<path d="M95.1785 111.017C93.6918 109.432 92.8644 107.34 92.8644 105.167C92.8644 102.994 93.6918 100.903 95.1785 99.3174C95.0395 99.4296 94.9005 99.5419 94.7722 99.6648C93.1192 101.218 92.1512 103.365 92.081 105.632C92.0108 107.9 92.8443 110.102 94.3981 111.755C95.9518 113.408 98.0986 114.376 100.366 114.446C102.634 114.516 104.836 113.682 106.489 112.129C106.623 112.006 106.74 111.872 106.858 111.744C105.183 113.13 103.044 113.826 100.874 113.691C98.705 113.556 96.6684 112.6 95.1785 111.017Z" fill="#FA595F"/>
<path d="M100.064 114.245C97.8935 114.376 95.7546 113.675 94.0825 112.285C92.4103 110.895 91.3305 108.92 91.0626 106.762C91.0626 106.939 91.0626 107.115 91.0626 107.297C91.2044 109.561 92.2397 111.675 93.9409 113.176C94.7832 113.919 95.7636 114.489 96.8262 114.853C97.8887 115.217 99.0126 115.368 100.134 115.298C101.255 115.228 102.351 114.938 103.36 114.444C104.369 113.95 105.27 113.262 106.013 112.42C106.756 111.578 107.326 110.597 107.69 109.535C108.054 108.473 108.206 107.349 108.136 106.228C108.136 106.046 108.098 105.875 108.077 105.693C108.081 107.871 107.254 109.968 105.766 111.557C104.277 113.146 102.238 114.108 100.064 114.245Z" fill="#FA595F"/>
<path opacity="0.1" d="M130.559 113.935C132.553 114.918 134.835 115.191 136.973 115.811C139.112 116.431 141.292 117.564 142.233 119.584C142.923 121.07 142.843 122.829 143.564 124.298C144.601 126.436 146.996 127.42 149.198 128.259C147.306 130.798 143.243 130.108 140.592 128.382C137.941 126.656 135.658 124.106 132.574 123.438C131.053 123.138 129.475 123.315 128.058 123.946C126.641 124.576 125.454 125.629 124.658 126.96C123.813 128.441 123.514 130.167 123.097 131.813C122.028 136.153 119.89 140.472 116.148 142.936C112.406 145.4 106.831 145.384 103.897 142.011C102.186 140.044 101.614 137.366 101.106 134.812C100.817 133.62 100.679 132.398 100.695 131.172C100.866 128.104 102.908 125.49 104.971 123.213C107.403 120.541 109.99 117.976 112.577 115.426C114.812 113.224 117.388 109.493 120.756 109.231C124.636 108.921 127.379 112.38 130.559 113.935Z" fill="black"/>
<path d="M130.024 113.401C132.018 114.384 134.301 114.657 136.439 115.277C138.577 115.897 140.758 117.03 141.699 119.05C142.388 120.536 142.308 122.294 143.03 123.764C144.067 125.902 146.461 126.886 148.664 127.725C146.771 130.264 142.709 129.574 140.058 127.848C137.406 126.121 135.124 123.572 132.04 122.904C130.518 122.604 128.941 122.781 127.524 123.411C126.107 124.042 124.919 125.095 124.123 126.426C123.279 127.907 122.979 129.633 122.562 131.279C121.493 135.619 119.355 139.938 115.614 142.402C111.872 144.866 106.297 144.85 103.362 141.477C101.652 139.51 101.08 136.832 100.572 134.278C100.283 133.086 100.144 131.863 100.16 130.638C100.331 127.57 102.373 124.956 104.437 122.679C106.869 120.007 109.456 117.441 112.043 114.892C114.277 112.69 116.854 108.959 120.221 108.697C124.102 108.387 126.844 111.845 130.024 113.401Z" fill="#FA595F"/>
<path d="M132.088 232.104H80.2223C77.713 232.104 75.6788 234.138 75.6788 236.647V236.978C75.6788 239.487 77.713 241.521 80.2223 241.521H132.088C134.597 241.521 136.631 239.487 136.631 236.978V236.647C136.631 234.138 134.597 232.104 132.088 232.104Z" fill="#D6D6E3"/>
<path opacity="0.1" d="M75.6788 236.914V237.657C75.6788 238.685 76.0871 239.67 76.8139 240.397C77.5407 241.124 78.5264 241.532 79.5542 241.532H132.756C133.784 241.532 134.769 241.124 135.496 240.397C136.223 239.67 136.631 238.685 136.631 237.657V236.914H75.6788Z" fill="black"/>
<path d="M193.5 241.922H183.018V375.451H193.5V241.922Z" fill="#D6D6E3"/>
<path opacity="0.1" d="M193.5 241.922H183.018V250.58H193.5V241.922Z" fill="black"/>
<path d="M455.115 232.35H178.004V249.667H455.115V232.35Z" fill="#D6D6E3"/>
<defs>
<linearGradient id="paint0_linear" x1="461.885" y1="370.921" x2="486.647" y2="95.765" gradientUnits="userSpaceOnUse">
<stop stop-color="#808080" stop-opacity="0.25"/>
<stop offset="0.54" stop-color="#808080" stop-opacity="0.12"/>
<stop offset="1" stop-color="#808080" stop-opacity="0.1"/>
</linearGradient>
<linearGradient id="paint1_linear" x1="43006.7" y1="193767" x2="43006.7" y2="53955.1" gradientUnits="userSpaceOnUse">
<stop stop-color="#808080" stop-opacity="0.25"/>
<stop offset="0.54" stop-color="#808080" stop-opacity="0.12"/>
<stop offset="1" stop-color="#808080" stop-opacity="0.1"/>
</linearGradient>
</defs>
</svg>
