<svg id="no-data" width="379" height="262" viewBox="0 0 379 262" fill="none" xmlns="http://www.w3.org/2000/svg">
<g clip-path="url(#clip0)">
<path d="M71.9017 56.2448C83.8563 56.2448 93.5474 46.5943 93.5474 34.6898C93.5474 22.7853 83.8563 13.1348 71.9017 13.1348C59.9471 13.1348 50.256 22.7853 50.256 34.6898C50.256 46.5943 59.9471 56.2448 71.9017 56.2448Z" fill="#FF6584"/>
<path d="M177.216 115.562C177.216 166.423 146.853 184.181 109.399 184.181C71.9446 184.181 41.5818 166.423 41.5818 115.562C41.5818 64.7022 109.399 0 109.399 0C109.399 0 177.216 64.7022 177.216 115.562Z" fill="#F2F2F2"/>
<path d="M106.928 176.401L107.623 133.836L136.528 81.1762L107.732 127.159L108.044 108.019L127.966 69.9208L108.127 102.955L108.688 68.5319L130.021 38.2006L108.777 63.1189L109.127 0L106.922 83.5581L107.104 80.111L85.4149 47.0519L106.756 86.728L104.735 125.172L104.675 124.152L79.6714 89.3621L104.599 127.757L104.346 132.564L104.301 132.637L104.322 133.032L99.1948 230.568H106.045L106.867 180.188L131.733 141.888L106.928 176.401Z" fill="#3F3D56"/>
<path d="M379 136.393C379 178.025 354.147 192.561 323.488 192.561C292.83 192.561 267.977 178.025 267.977 136.393C267.977 94.7617 323.488 41.7998 323.488 41.7998C323.488 41.7998 379 94.7617 379 136.393Z" fill="#F2F2F2"/>
<path d="M321.466 186.193L322.035 151.351L345.695 108.247L322.124 145.885L322.38 130.219L338.686 99.0331L322.447 126.073L322.907 97.8964L340.368 73.0687L322.979 93.4659L323.266 41.7998L321.461 110.196L321.61 107.375L303.856 80.3139L321.325 112.791L319.671 144.259L319.621 143.424L299.155 114.947L319.559 146.375L319.353 150.31L319.316 150.369L319.333 150.692L315.136 230.53H320.743L321.416 189.292L341.77 157.942L321.466 186.193Z" fill="#3F3D56"/>
<path d="M187.571 238.625C291.163 238.625 375.142 234.398 375.142 229.183C375.142 223.968 291.163 219.741 187.571 219.741C83.9784 219.741 0 223.968 0 229.183C0 234.398 83.9784 238.625 187.571 238.625Z" fill="#3F3D56"/>
<path d="M301.837 246.4C319.58 246.4 333.964 245.676 333.964 244.783C333.964 243.89 319.58 243.166 301.837 243.166C284.094 243.166 269.711 243.89 269.711 244.783C269.711 245.676 284.094 246.4 301.837 246.4Z" fill="#3F3D56"/>
<path d="M185.585 262C203.328 262 217.711 261.276 217.711 260.383C217.711 259.49 203.328 258.766 185.585 258.766C167.842 258.766 153.458 259.49 153.458 260.383C153.458 261.276 167.842 262 185.585 262Z" fill="#3F3D56"/>
<path d="M97.3868 250.998C137.923 250.998 170.784 249.344 170.784 247.303C170.784 245.263 137.923 243.608 97.3868 243.608C56.8506 243.608 23.9895 245.263 23.9895 247.303C23.9895 249.344 56.8506 250.998 97.3868 250.998Z" fill="#3F3D56"/>
<path d="M32.8351 217.325C47.5916 217.325 59.554 205.413 59.554 190.718C59.554 176.024 47.5916 164.111 32.8351 164.111C18.0787 164.111 6.11621 176.024 6.11621 190.718C6.11621 205.413 18.0787 217.325 32.8351 217.325Z" fill="#2F2E41"/>
<path d="M28.5297 211.55L20.4131 211.455L20.2418 225.936L28.3584 226.032L28.5297 211.55Z" fill="#2F2E41"/>
<path d="M44.7629 211.741L36.6463 211.646L36.4749 226.127L44.5915 226.222L44.7629 211.741Z" fill="#2F2E41"/>
<path d="M33.7675 226.264C33.784 224.869 30.7691 223.702 27.0335 223.659C23.298 223.615 20.2564 224.71 20.2398 226.105C20.2233 227.5 23.2382 228.666 26.9738 228.71C30.7093 228.754 33.751 227.659 33.7675 226.264Z" fill="#2F2E41"/>
<path d="M50.0046 226.117C50.0211 224.722 47.0062 223.556 43.2707 223.512C39.5351 223.468 36.4935 224.564 36.477 225.959C36.4605 227.354 39.4753 228.52 43.2109 228.564C46.9464 228.608 49.9881 227.512 50.0046 226.117Z" fill="#2F2E41"/>
<path d="M33.5912 193.085C38.6345 193.085 42.723 189.013 42.723 183.991C42.723 178.969 38.6345 174.897 33.5912 174.897C28.5478 174.897 24.4594 178.969 24.4594 183.991C24.4594 189.013 28.5478 193.085 33.5912 193.085Z" fill="white"/>
<path d="M33.5912 187.021C35.2723 187.021 36.6351 185.664 36.6351 183.99C36.6351 182.316 35.2723 180.959 33.5912 180.959C31.9101 180.959 30.5472 182.316 30.5472 183.99C30.5472 185.664 31.9101 187.021 33.5912 187.021Z" fill="#3F3D56"/>
<path d="M7.21138 165.672C5.16794 156.026 12.1789 146.385 22.8709 144.139C33.5628 141.893 43.8868 147.892 45.9303 157.538C47.9737 167.184 40.8644 170.65 30.1725 172.896C19.4805 175.142 9.25482 175.318 7.21138 165.672Z" fill="#66288E"/>
<path d="M73.5927 205.562C73.5927 224.111 62.5197 230.588 48.8591 230.588C48.5427 230.588 48.2267 230.585 47.9113 230.578C47.2784 230.564 46.6515 230.534 46.0321 230.492C33.7037 229.623 24.1255 222.813 24.1255 205.562C24.1255 187.709 47.0357 165.181 48.7567 163.514L48.7597 163.511C48.826 163.447 48.8591 163.415 48.8591 163.415C48.8591 163.415 73.5927 187.013 73.5927 205.562Z" fill="#66288E"/>
<path d="M47.958 227.75L57.0042 215.163L47.9354 229.133L47.9113 230.578C47.2783 230.564 46.6514 230.534 46.0321 230.492L47.0071 211.934L46.9996 211.79L47.0161 211.763L47.1081 210.01L38.0166 196.006L47.1367 208.695L47.1578 209.067L47.8947 195.046L40.1113 180.575L47.9896 192.584L48.7566 163.514L48.7597 163.415V163.511L48.6316 186.435L56.3803 177.347L48.5999 188.41L48.395 200.964L55.6299 188.915L48.3649 202.811L48.2503 209.791L58.7538 193.021L48.2112 212.226L47.958 227.75Z" fill="#3F3D56"/>
<path d="M240.972 217.037C255.729 217.037 267.691 205.125 267.691 190.43C267.691 175.736 255.729 163.823 240.972 163.823C226.216 163.823 214.254 175.736 214.254 190.43C214.254 205.125 226.216 217.037 240.972 217.037Z" fill="#2F2E41"/>
<path d="M243.253 211.578L235.494 213.952L239.766 227.795L247.525 225.421L243.253 211.578Z" fill="#2F2E41"/>
<path d="M258.771 206.831L251.012 209.205L255.284 223.048L263.043 220.674L258.771 206.831Z" fill="#2F2E41"/>
<path d="M247.027 228.392C250.598 227.299 253.159 225.332 252.748 223.999C252.336 222.665 249.108 222.47 245.537 223.563C241.966 224.656 239.404 226.623 239.816 227.957C240.228 229.29 243.456 229.485 247.027 228.392Z" fill="#2F2E41"/>
<path d="M262.446 223.321C266.017 222.228 268.578 220.261 268.166 218.928C267.755 217.594 264.526 217.399 260.955 218.492C257.384 219.585 254.823 221.552 255.235 222.885C255.646 224.219 258.875 224.414 262.446 223.321Z" fill="#2F2E41"/>
<path d="M239.632 192.887C244.675 192.887 248.764 188.816 248.764 183.794C248.764 178.772 244.675 174.7 239.632 174.7C234.589 174.7 230.5 178.772 230.5 183.794C230.5 188.816 234.589 192.887 239.632 192.887Z" fill="white"/>
<path d="M239.632 186.825C241.313 186.825 242.676 185.468 242.676 183.794C242.676 182.12 241.313 180.763 239.632 180.763C237.951 180.763 236.588 182.12 236.588 183.794C236.588 185.468 237.951 186.825 239.632 186.825Z" fill="#3F3D56"/>
<path d="M208.898 174.36C203.998 165.794 207.722 154.484 217.216 149.097C226.711 143.711 238.38 146.288 243.281 154.854C248.182 163.42 242.472 168.879 232.978 174.266C223.483 179.652 213.799 182.926 208.898 174.36Z" fill="#66288E"/>
<path d="M193.32 202.165C193.32 219.192 183.156 225.137 170.616 225.137C170.326 225.137 170.036 225.134 169.746 225.128C169.165 225.115 168.59 225.088 168.021 225.049C156.704 224.252 147.912 218.001 147.912 202.165C147.912 185.776 168.942 165.097 170.522 163.567L170.525 163.564C170.586 163.505 170.616 163.476 170.616 163.476C170.616 163.476 193.32 185.137 193.32 202.165Z" fill="#66288E"/>
<path d="M169.789 222.533L178.093 210.978L169.768 223.801L169.746 225.128C169.165 225.115 168.59 225.088 168.021 225.049L168.916 208.014L168.909 207.881L168.924 207.856L169.009 206.248L160.663 193.393L169.035 205.041L169.054 205.382L169.731 192.511L162.586 179.228L169.818 190.252L170.522 163.567L170.525 163.476V163.564L170.407 184.607L177.52 176.264L170.378 186.42L170.19 197.944L176.831 186.884L170.162 199.64L170.057 206.046L179.699 190.653L170.021 208.282L169.789 222.533Z" fill="#3F3D56"/>
<path d="M282.609 209.266C282.609 227.816 271.536 234.292 257.875 234.292C257.559 234.292 257.243 234.289 256.928 234.282C256.295 234.268 255.668 234.238 255.048 234.196C242.72 233.327 233.142 226.517 233.142 209.266C233.142 191.413 256.052 168.885 257.773 167.218L257.776 167.215C257.842 167.151 257.875 167.119 257.875 167.119C257.875 167.119 282.609 190.717 282.609 209.266Z" fill="#66288E"/>
<path d="M256.974 231.455L266.021 218.867L256.952 232.837L256.928 234.282C256.295 234.268 255.668 234.238 255.048 234.196L256.023 215.638L256.016 215.494L256.032 215.467L256.124 213.714L247.033 199.71L256.153 212.399L256.174 212.772L256.911 198.75L249.128 184.279L257.006 196.289L257.773 167.218L257.776 167.119V167.215L257.648 190.139L265.397 181.051L257.616 192.114L257.411 204.668L264.646 192.62L257.381 206.515L257.267 213.495L267.77 196.725L257.227 215.93L256.974 231.455Z" fill="#3F3D56"/>
<path d="M242.669 206.358C243.662 204.274 239.062 200.032 232.396 196.883C225.73 193.735 219.521 192.872 218.528 194.956C217.535 197.04 222.135 201.282 228.801 204.43C235.468 207.579 241.677 208.442 242.669 206.358Z" fill="#2F2E41"/>
<path d="M37.0269 203.923C37.8886 201.782 33.0353 197.83 26.1868 195.097C19.3382 192.363 13.0877 191.883 12.226 194.024C11.3642 196.165 16.2175 200.116 23.0661 202.85C29.9147 205.583 36.1651 206.064 37.0269 203.923Z" fill="#2F2E41"/>
</g>
<defs>
<clipPath id="clip0">
<rect width="379" height="262" fill="white"/>
</clipPath>
</defs>
</svg>
