<svg id="not-found" width="434" height="235" viewBox="0 0 434 235" fill="none" xmlns="http://www.w3.org/2000/svg">
<g clip-path="url(#clip0)">
<path d="M218.393 235C336.075 235 431.476 228.711 431.476 220.953C431.476 213.195 336.075 206.906 218.393 206.906C100.71 206.906 5.30927 213.195 5.30927 220.953C5.30927 228.711 100.71 235 218.393 235Z" fill="#F2F2F2"/>
<path d="M210.226 67.1777C175.509 67.1777 150.582 89.3568 150.582 141.108C150.582 199.76 175.509 215.285 210.226 215.285C244.943 215.285 271.354 198.281 271.354 141.108C271.354 79.9923 244.943 67.1777 210.226 67.1777ZM210.454 195.817C186.408 195.817 173.846 181.77 173.846 141.146C173.846 105.302 186.922 86.3996 210.968 86.3996C235.014 86.3996 248.091 98.8158 248.091 141.146C248.091 180.745 234.5 195.817 210.454 195.817Z" fill="#2F2E41"/>
<path d="M129.794 174.377H115.439V132.287C115.439 130.051 114.548 127.907 112.96 126.327C111.373 124.746 109.219 123.858 106.974 123.858H103.611C102.499 123.858 101.398 124.076 100.371 124.499C99.3444 124.923 98.4113 125.544 97.6252 126.327C96.8391 127.109 96.2156 128.039 95.7902 129.061C95.3648 130.084 95.1458 131.18 95.1458 132.287V174.377H54.6579C53.825 174.377 53.0062 174.163 52.281 173.755C51.5558 173.347 50.9488 172.759 50.5189 172.049C50.089 171.338 49.8507 170.529 49.8273 169.7C49.8038 168.871 49.996 168.05 50.3851 167.317L93.237 86.5554C93.7713 85.5485 94.0951 84.4443 94.1889 83.3093C94.2828 82.1744 94.1447 81.0322 93.783 79.9519C93.4213 78.8716 92.8436 77.8754 92.0846 77.0235C91.3256 76.1717 90.4012 75.4818 89.367 74.9955L86.8374 73.806C84.8731 72.8824 82.6275 72.746 80.5651 73.4251C78.5027 74.1042 76.7814 75.5468 75.7573 77.4543L23.4938 174.809C22.6038 176.467 22.1382 178.318 22.1382 180.198C22.1382 181.699 22.4351 183.185 23.0119 184.572C23.5888 185.958 24.4343 187.218 25.5002 188.28C26.5661 189.341 27.8314 190.183 29.2241 190.757C30.6167 191.332 32.1094 191.627 33.6167 191.627H95.1458V218.242C95.1458 219.569 95.4083 220.883 95.9182 222.109C96.4281 223.335 97.1755 224.449 98.1177 225.387C99.06 226.325 100.179 227.069 101.41 227.577C102.641 228.085 103.96 228.346 105.293 228.346H105.293C106.625 228.346 107.945 228.085 109.176 227.577C110.407 227.069 111.525 226.325 112.468 225.387C113.41 224.449 114.157 223.335 114.667 222.109C115.177 220.883 115.439 219.569 115.439 218.242V191.627H129.794C132.091 191.627 134.294 190.719 135.918 189.101C137.543 187.484 138.455 185.29 138.455 183.002C138.455 180.715 137.543 178.521 135.918 176.903C134.294 175.286 132.091 174.377 129.794 174.377Z" fill="#66288E"/>
<path d="M395.591 174.377H381.237V132.287C381.237 130.051 380.345 127.907 378.757 126.327C377.17 124.746 375.017 123.858 372.772 123.858H369.408C368.297 123.858 367.196 124.076 366.169 124.499C365.142 124.923 364.209 125.544 363.422 126.327C362.636 127.109 362.013 128.039 361.587 129.061C361.162 130.084 360.943 131.18 360.943 132.287V174.377H320.455C319.622 174.377 318.804 174.163 318.078 173.755C317.353 173.347 316.746 172.759 316.316 172.049C315.886 171.338 315.648 170.529 315.625 169.7C315.601 168.871 315.793 168.05 316.182 167.317L359.034 86.5554C359.569 85.5485 359.892 84.4443 359.986 83.3093C360.08 82.1744 359.942 81.0322 359.58 79.9519C359.219 78.8716 358.641 77.8754 357.882 77.0235C357.123 76.1717 356.198 75.4818 355.164 74.9955L352.635 73.806C350.67 72.8824 348.425 72.746 346.362 73.4251C344.3 74.1042 342.579 75.5468 341.555 77.4543L289.291 174.809C288.401 176.467 287.935 178.318 287.935 180.198C287.935 183.229 289.145 186.136 291.297 188.28C293.45 190.423 296.37 191.627 299.414 191.627H360.943V218.242C360.943 220.922 362.012 223.492 363.915 225.387C365.818 227.282 368.399 228.346 371.09 228.346C373.781 228.346 376.362 227.282 378.265 225.387C380.168 223.492 381.237 220.922 381.237 218.242V191.627H395.591C397.888 191.627 400.091 190.719 401.716 189.101C403.34 187.484 404.253 185.29 404.253 183.002C404.253 180.715 403.34 178.521 401.716 176.903C400.091 175.286 397.888 174.377 395.591 174.377Z" fill="#66288E"/>
<path d="M133.753 169.448H119.399V127.358C119.399 126.251 119.18 125.155 118.755 124.133C118.329 123.11 117.706 122.181 116.92 121.398C116.134 120.615 115.201 119.994 114.174 119.571C113.147 119.147 112.046 118.929 110.934 118.929H107.571C105.326 118.929 103.172 119.817 101.585 121.398C99.9974 122.979 99.1056 125.123 99.1056 127.358V169.448H58.6177C57.7847 169.448 56.966 169.234 56.2408 168.826C55.5155 168.418 54.9085 167.83 54.4786 167.12C54.0487 166.41 53.8105 165.601 53.787 164.772C53.7636 163.943 53.9557 163.122 54.3448 162.388L97.1968 81.6267C97.731 80.6198 98.0548 79.5156 98.1487 78.3806C98.2425 77.2457 98.1044 76.1035 97.7428 75.0232C97.3811 73.9428 96.8033 72.9467 96.0443 72.0948C95.2854 71.243 94.3609 70.5531 93.3268 70.0668L90.7971 68.8773C88.8329 67.9537 86.5872 67.8173 84.5248 68.4964C82.4624 69.1755 80.7411 70.618 79.7171 72.5256L27.4535 169.88C26.5635 171.538 26.0979 173.389 26.0979 175.269V175.269C26.0979 178.3 27.3072 181.207 29.4599 183.351C31.6125 185.495 34.5322 186.699 37.5765 186.699H99.1056V213.314C99.1056 214.641 99.368 215.954 99.8779 217.18C100.388 218.406 101.135 219.52 102.077 220.458C103.02 221.396 104.138 222.141 105.369 222.648C106.6 223.156 107.92 223.418 109.252 223.418H109.252C111.943 223.418 114.524 222.353 116.427 220.458C118.33 218.563 119.399 215.993 119.399 213.314V186.699H133.753C134.891 186.699 136.017 186.476 137.068 186.042C138.119 185.609 139.074 184.973 139.878 184.172C140.682 183.372 141.321 182.421 141.756 181.374C142.191 180.328 142.415 179.206 142.415 178.074V178.074C142.415 176.941 142.191 175.819 141.756 174.773C141.321 173.726 140.682 172.776 139.878 171.975C139.074 171.174 138.119 170.538 137.068 170.105C136.017 169.671 134.891 169.448 133.753 169.448V169.448Z" stroke="#3F3D56" stroke-miterlimit="10"/>
<path d="M403.015 169.448H388.661V127.358C388.661 125.123 387.769 122.979 386.182 121.398C384.594 119.817 382.441 118.929 380.196 118.929H376.833C375.721 118.929 374.62 119.147 373.593 119.571C372.566 119.994 371.633 120.615 370.847 121.398C370.061 122.181 369.437 123.11 369.012 124.133C368.587 125.155 368.368 126.251 368.368 127.358V169.448H327.88C327.047 169.448 326.228 169.234 325.503 168.826C324.778 168.418 324.171 167.83 323.741 167.12C323.311 166.41 323.073 165.601 323.049 164.772C323.026 163.943 323.218 163.122 323.607 162.388L366.459 81.6267C366.993 80.6198 367.317 79.5156 367.411 78.3806C367.505 77.2457 367.367 76.1035 367.005 75.0232C366.643 73.9428 366.065 72.9467 365.306 72.0948C364.547 71.243 363.623 70.5531 362.589 70.0668L360.059 68.8773C358.095 67.9537 355.849 67.8173 353.787 68.4964C351.725 69.1755 350.003 70.618 348.979 72.5256L296.716 169.88C295.826 171.538 295.36 173.389 295.36 175.269C295.36 178.3 296.569 181.207 298.722 183.351C300.875 185.495 303.794 186.699 306.839 186.699H368.368V213.314C368.368 215.993 369.437 218.563 371.34 220.458C373.242 222.353 375.823 223.418 378.514 223.418V223.418C381.206 223.418 383.786 222.353 385.689 220.458C387.592 218.563 388.661 215.993 388.661 213.314V186.699H403.015C404.153 186.699 405.279 186.476 406.33 186.042C407.381 185.609 408.336 184.973 409.14 184.172C409.945 183.372 410.583 182.421 411.018 181.374C411.453 180.328 411.677 179.206 411.677 178.074V178.074C411.677 175.786 410.765 173.592 409.14 171.975C407.516 170.357 405.313 169.448 403.015 169.448V169.448Z" stroke="#3F3D56" stroke-miterlimit="10"/>
<path d="M218.145 62.7418C183.428 62.7418 158.502 84.921 158.502 136.672C158.502 195.324 183.428 210.849 218.145 210.849C252.862 210.849 279.274 193.845 279.274 136.672C279.274 75.5564 252.862 62.7418 218.145 62.7418ZM218.373 191.381C194.328 191.381 181.765 177.334 181.765 136.71C181.765 100.866 194.842 81.9638 218.888 81.9638C242.933 81.9638 256.01 94.38 256.01 136.71C256.01 176.31 242.419 191.381 218.373 191.381V191.381Z" stroke="#3F3D56" stroke-miterlimit="10"/>
<path d="M190.317 12.5304C193.195 12.5304 195.529 10.207 195.529 7.34102C195.529 4.47502 193.195 2.15167 190.317 2.15167C187.439 2.15167 185.106 4.47502 185.106 7.34102C185.106 10.207 187.439 12.5304 190.317 12.5304Z" fill="#2F2E41"/>
<path d="M203.028 37.7177C211.101 37.7177 217.645 29.2743 217.645 18.8588C217.645 8.44339 211.101 0 203.028 0C194.955 0 188.411 8.44339 188.411 18.8588C188.411 29.2743 194.955 37.7177 203.028 37.7177Z" fill="#2F2E41"/>
<path opacity="0.1" d="M203.028 32.0221C195.705 32.0221 189.641 25.0752 188.576 16.011C188.466 16.9563 188.41 17.9072 188.411 18.8589C188.411 29.2743 194.955 37.7177 203.028 37.7177C211.101 37.7177 217.645 29.2743 217.645 18.8589C217.646 17.9072 217.59 16.9563 217.48 16.011C216.415 25.0752 210.351 32.0221 203.028 32.0221Z" fill="black"/>
<path d="M232.773 74.0878C232.459 75.3723 231.105 76.4011 229.606 77.1198C226.455 78.631 222.567 79.0819 218.797 79.2332C217.835 79.2915 216.87 79.2737 215.911 79.1801C214.052 79.0011 212.309 78.2031 210.962 76.915C210.866 76.8526 210.787 76.767 210.733 76.6661C210.679 76.5652 210.652 76.4524 210.654 76.3382C210.656 76.2239 210.686 76.112 210.743 76.0128C210.8 75.9137 210.882 75.8305 210.98 75.7711C212.987 73.5753 216.337 72.2289 219.712 71.2595C222.27 70.5245 226.733 68.6205 229.524 68.8774C232.227 69.1263 233.169 72.4659 232.773 74.0878Z" fill="#3F3D56"/>
<path opacity="0.1" d="M232.773 74.0878C232.459 75.3723 231.105 76.4011 229.606 77.1198C226.455 78.631 222.567 79.0819 218.797 79.2332C217.835 79.2915 216.87 79.2737 215.911 79.1801C214.052 79.0011 212.309 78.2031 210.962 76.915C210.866 76.8526 210.787 76.767 210.733 76.6661C210.679 76.5652 210.652 76.4524 210.654 76.3382C210.656 76.2239 210.686 76.112 210.743 76.0128C210.8 75.9137 210.882 75.8305 210.98 75.7711C212.987 73.5753 216.337 72.2289 219.712 71.2595C222.27 70.5245 226.733 68.6205 229.524 68.8774C232.227 69.1263 233.169 72.4659 232.773 74.0878Z" fill="black"/>
<path d="M192.702 64.4874C191.74 66.3648 191.565 68.5458 192.217 70.551C192.881 72.5411 194.122 74.2905 195.784 75.5777C199.862 78.8325 205.474 79.2804 210.7 79.2352C215.28 79.1955 219.853 78.8834 224.396 78.3004C225.918 78.1661 227.414 77.8203 228.84 77.273C230.545 76.5381 232.044 75.1903 232.651 73.4414C233.259 71.6924 232.828 69.5507 231.385 68.3835C230.118 67.3579 228.371 67.2168 226.741 67.1193L217.415 66.5612C218.336 65.6327 219.563 65.1075 220.685 64.4325C222.174 63.537 223.163 62.0333 224.245 60.6777C225.913 58.693 227.727 56.8352 229.674 55.12C229.977 56.8538 231.079 58.2775 232.375 59.4738C233.671 60.6701 235.166 61.6332 236.513 62.7722C239.776 65.5309 242.126 69.2752 245.558 71.8228C247.919 71.205 250.126 70.1078 252.041 68.6L250.707 66.194C250.596 65.9464 250.423 65.7313 250.204 65.5694C249.827 65.3381 249.34 65.4573 248.902 65.3918C247.73 65.2169 247.218 63.8698 246.758 62.7824C245.496 59.7971 243.079 57.4809 241.015 54.9774C239.492 53.1294 238.14 51.1472 236.977 49.0553C236.284 47.8077 235.649 46.5087 234.708 45.4339C233.767 44.3591 232.449 43.514 231.017 43.511C229.751 43.5083 228.584 44.148 227.497 44.7913C224.183 46.7511 220.995 48.9138 217.951 51.267C216.358 52.4985 214.775 53.7996 212.906 54.5548C212.119 54.8727 211.29 55.09 210.535 55.4769C209.213 56.1544 208.21 57.3007 207.129 58.3183C203.277 61.9478 198.002 64.2993 192.702 64.4874Z" fill="#3F3D56"/>
<path d="M212.203 38.6543C212.159 39.7637 211.922 40.8572 211.502 41.8856C211.289 42.3986 210.973 42.8623 210.572 43.248C210.171 43.6336 209.695 43.9329 209.172 44.1272C208.431 44.325 207.654 44.3501 206.901 44.2006C206.245 44.1323 205.612 43.9177 205.05 43.5728C204.176 42.9741 203.74 41.9059 203.581 40.8604C203.422 39.8162 203.493 38.7492 203.392 37.6974C203.292 36.8479 203.13 36.0068 202.906 35.1812C202.837 34.9066 202.767 34.6332 202.699 34.3598C202.631 34.0864 202.565 33.813 202.504 33.5396C202.448 33.2827 202.396 33.0245 202.352 32.765C202.315 32.5461 202.282 32.3258 202.258 32.1043C202.235 31.4477 202.126 30.7969 201.931 30.1691C201.748 29.7619 201.52 29.3768 201.25 29.0211C201.134 28.8566 201.022 28.692 200.919 28.5212C200.621 28.0771 200.483 27.5459 200.527 27.0137C200.539 26.9314 200.559 26.8505 200.586 26.772C200.596 26.7416 200.608 26.7112 200.621 26.6821C200.735 26.6512 200.84 26.593 200.927 26.5124C201.013 26.4319 201.079 26.3316 201.118 26.2201C201.161 25.9807 201.141 25.734 201.058 25.505C200.963 25.1851 200.833 24.8765 200.67 24.5848C200.563 24.3924 200.201 24.0456 200.199 23.8254C200.193 23.3824 201.063 23.0255 201.415 22.8508C202.49 22.3149 203.688 22.0729 204.888 22.1496C205.657 22.2015 206.49 22.4369 206.915 23.0786C207.296 23.6571 207.245 24.4064 207.408 25.0784C207.425 25.1761 207.467 25.268 207.529 25.3455C207.612 25.4208 207.716 25.4685 207.828 25.4822C208.016 25.5195 208.209 25.5272 208.4 25.505H208.401C208.451 25.501 208.501 25.4938 208.551 25.4835C208.848 25.4289 209.128 25.3082 209.372 25.1303C209.53 25.0886 209.688 25.0544 209.849 25.0278C209.855 25.0272 209.861 25.0259 209.868 25.024C210.504 27.0251 210.587 29.1704 211.108 31.2082C211.366 32.222 211.736 33.2232 211.788 34.2661C211.792 34.3117 211.793 34.3585 211.795 34.4053C211.802 34.7407 211.776 35.0787 211.79 35.4128C211.794 35.5633 211.811 35.7131 211.84 35.8609C211.897 36.0985 211.968 36.3327 212.053 36.5621L212.056 36.5735C212.081 36.6469 212.104 36.7216 212.123 36.7962C212.137 36.8507 212.149 36.9038 212.159 36.9582L212.161 36.962C212.255 37.5213 212.269 38.0911 212.203 38.6543Z" fill="#FBBEBE"/>
<path d="M203.282 25.567C207.424 25.567 210.782 22.2237 210.782 18.0994C210.782 13.9752 207.424 10.6318 203.282 10.6318C199.14 10.6318 195.783 13.9752 195.783 18.0994C195.783 22.2237 199.14 25.567 203.282 25.567Z" fill="#FBBEBE"/>
<path d="M250.894 58.7864C250.677 56.7491 249.95 54.7986 248.779 53.1136C248.974 54.2654 249.168 55.4167 249.364 56.5677C249.121 56.6376 248.863 56.6355 248.621 56.5615C248.38 56.4876 248.165 56.345 248.004 56.1513C247.688 55.7586 247.446 55.3122 247.291 54.8337C246.439 52.7276 245.325 50.7363 243.974 48.9064C239.2 48.5103 234.481 46.5396 230.282 44.2424C226.083 41.9464 222.153 39.1935 218.009 36.8001C217.291 36.3677 216.542 35.987 215.769 35.6609C214.473 35.1433 213.017 34.8749 211.788 34.2661C211.706 34.2256 211.623 34.1826 211.542 34.1383C211.264 33.9879 211.001 33.8121 210.756 33.613C210.624 33.506 210.498 33.3911 210.38 33.2688C209.767 32.5583 209.28 31.7484 208.942 30.8741C208.283 29.4211 208.047 27.6681 207.389 26.2151C207.692 25.9334 208.032 25.6945 208.4 25.505H208.401C208.454 25.4772 208.508 25.4506 208.562 25.4253C208.823 25.3031 209.094 25.2044 209.372 25.1304C209.53 25.0886 209.688 25.0544 209.849 25.0278C209.855 25.0272 209.861 25.0259 209.868 25.024C210.61 24.9036 211.371 24.9635 212.086 25.1987C213.13 25.5506 214.011 26.253 214.89 26.9175C216.317 27.9185 217.685 28.9995 218.989 30.1552C219.713 30.8462 220.374 31.6056 221.154 32.2334C221.801 32.731 222.484 33.1815 223.196 33.5814C227.412 36.0824 231.629 38.583 235.846 41.0832C237.273 41.9299 238.702 42.7767 240.098 43.6728C242.218 45.0347 244.262 46.5105 246.304 47.985C247.508 48.8533 248.711 49.722 249.914 50.5911C250.309 50.8418 250.655 51.1607 250.937 51.5327C251.187 51.9552 251.341 52.4262 251.391 52.9136C251.693 54.8829 251.523 56.8953 250.894 58.7864Z" fill="#FBBEBE"/>
<path d="M214.062 44.2702C213.556 46.5294 211.263 47.8951 210.065 49.8797C208.575 52.3428 209.182 55.2058 209.742 58.027C208.72 58.9041 207.697 59.7812 206.675 60.6584C206.11 61.1406 205.546 61.6254 204.938 62.0519C204.052 62.643 203.127 63.1725 202.167 63.6365C201.262 64.0998 200.357 64.5635 199.452 65.0275C198.611 65.4986 197.72 65.8747 196.795 66.1489C195.011 66.6046 193.117 66.2856 191.353 65.7578C191.145 65.7035 190.945 65.6222 190.758 65.5161C190.648 65.4507 190.552 65.3643 190.476 65.2617C190.302 64.9512 190.239 64.5911 190.297 64.2403C190.476 61.2836 191.202 58.389 191.925 55.5158C192.312 53.7922 192.831 52.1008 193.48 50.4569C194.115 49.0482 194.846 47.6841 195.667 46.3737C196.573 44.7251 197.646 43.1733 198.87 41.7426C199.466 41.1919 199.968 40.5481 200.355 39.8364C200.806 38.8112 200.632 37.6354 200.723 36.519C200.794 35.6803 201.017 34.8614 201.383 34.1028V34.1016C201.579 33.693 201.815 33.3046 202.087 32.9422C202.211 33.2282 202.334 33.5139 202.457 33.7991C202.539 33.9864 202.619 34.1733 202.699 34.3598C202.803 34.6003 202.906 34.8399 203.009 35.0787C203.305 35.7647 203.601 36.4503 203.896 37.1355C204.215 37.9984 204.67 38.8055 205.243 39.5264C205.506 39.8955 205.859 40.1907 206.27 40.383C206.681 40.5753 207.135 40.6582 207.588 40.6237C208.04 40.5891 208.476 40.4383 208.853 40.1858C209.23 39.9334 209.534 39.588 209.737 39.1834C210.164 38.4281 210.473 37.6125 210.654 36.7646C210.905 35.7322 210.94 34.6594 210.756 33.613C210.45 31.5981 209.589 29.54 208.964 27.6681C208.709 27.0439 208.562 26.3816 208.528 25.7088C208.529 25.6332 208.537 25.5578 208.551 25.4835C208.555 25.4645 208.558 25.4442 208.562 25.4253C208.823 25.3031 209.094 25.2044 209.372 25.1304C209.53 25.0886 209.688 25.0544 209.849 25.0278C210.399 27.9946 210.95 30.9614 211.502 33.9282C211.515 33.9978 211.529 34.0674 211.542 34.1383C211.62 34.5636 211.701 34.9888 211.789 35.4128C211.87 35.7976 211.956 36.1811 212.053 36.5621L212.056 36.5735C212.089 36.7026 212.124 36.8304 212.159 36.9583L212.161 36.9621C212.259 37.3114 212.368 37.6582 212.491 37.9999C213.239 40.0592 214.541 42.1324 214.062 44.2702Z" fill="#66288E"/>
<path d="M244.497 76.02C244.474 76.4552 244.558 76.8895 244.744 77.2844C245.213 78.1385 246.339 78.3327 247.314 78.4126C253.006 78.8785 258.734 78.7048 264.387 77.8946C264.694 77.8737 264.991 77.7817 265.256 77.626C266.06 77.0649 265.564 75.6973 264.687 75.2594C263.809 74.8216 262.767 74.9271 261.804 74.7376C260.848 74.4977 259.937 74.1043 259.107 73.5726C257.154 72.4553 255.229 71.2904 253.333 70.0779C252.204 69.3561 250.872 68.5857 249.601 69.0137C246.157 70.1737 244.475 72.3209 244.497 76.02Z" fill="#3F3D56"/>
<path d="M202.534 33.3814V33.3827C202.525 33.4359 202.516 33.4878 202.504 33.5396C202.49 33.6257 202.474 33.713 202.457 33.7991C202.3 34.6028 202.106 35.4027 201.884 36.1976C201.274 38.3936 200.457 40.5541 199.646 42.683C197.47 48.3913 195.293 54.1 193.116 59.8091C192.567 61.2469 192.019 62.686 191.395 64.0947C191.187 64.5643 190.972 65.0377 190.758 65.5161C189.993 67.2286 189.258 68.9968 189.014 70.8194C188.787 72.0189 188.761 73.2477 188.937 74.4557C189.181 75.6505 189.909 76.8175 191.049 77.2592C191.606 77.4757 192.403 77.7655 192.25 78.3414C192.168 78.6578 191.807 78.8122 191.483 78.8654C191.055 78.9333 190.617 78.9066 190.2 78.7872C189.784 78.6677 189.399 78.4585 189.073 78.1743C188.464 77.6364 187.996 76.7998 187.187 76.7099C186.626 76.6492 186.11 76.9833 185.596 77.2175C183.502 78.1705 181.061 77.5035 178.861 76.8264C179.034 75.9391 179.929 75.3544 180.817 75.1772C181.706 74.9987 182.625 75.1253 183.531 75.1012C183.821 75.1166 184.109 75.0429 184.356 74.8899C184.577 74.6877 184.732 74.424 184.801 74.133C185.384 72.4105 185.819 70.6413 186.098 68.8449C186.391 66.9679 186.513 65.0617 186.93 63.2075C187.254 61.7608 187.755 60.3597 188.184 58.9396C189.015 56.0156 189.697 53.0518 190.228 50.0595C190.497 48.8163 190.689 47.5579 190.804 46.2915C190.876 45.241 190.842 44.1854 190.944 43.1387C191.114 41.7769 191.4 40.4318 191.797 39.1175C192.186 37.6835 192.574 36.2503 192.962 34.818C193.538 32.6979 194.156 30.4956 195.615 28.8477C196.122 28.2676 196.743 27.7972 197.44 27.4659C198.137 27.1345 198.894 26.9492 199.666 26.9213C199.955 26.921 200.244 26.952 200.526 27.0137C200.573 27.0251 200.621 27.0365 200.668 27.0492C200.976 27.1293 201.271 27.2511 201.546 27.4112C201.996 27.1264 202.225 27.2264 202.523 27.6656C202.785 28.1304 202.909 28.6598 202.879 29.192C202.904 30.5964 202.789 31.9999 202.534 33.3814Z" fill="#FBBEBE"/>
<path d="M203.028 35.0597L203.009 35.0787L202.906 35.1812L201.884 36.1976L201.383 34.1028L199.666 26.9213C199.955 26.9209 200.244 26.9519 200.526 27.0137C200.539 26.9314 200.559 26.8504 200.586 26.7719L200.668 27.0491L201.25 29.021L202.352 32.765L202.533 33.3814V33.3826L203.028 35.0597Z" fill="#66288E"/>
<path d="M209.513 12.1487C209.512 12.8137 209.38 13.472 209.123 14.0859C208.867 14.6999 208.491 15.2575 208.018 15.7269C207.847 15.8978 207.663 16.0559 207.469 16.2001C206.592 16.8585 205.523 17.2149 204.425 17.2154H198.327C196.979 17.2133 195.688 16.6789 194.735 15.7294C193.783 14.7799 193.249 13.4929 193.249 12.1512C193.249 10.8094 193.783 9.52247 194.735 8.57296C195.688 7.62345 196.979 7.08899 198.327 7.08691H204.425C205.772 7.09041 207.064 7.62467 208.017 8.57304C208.97 9.52141 209.508 10.8069 209.513 12.1487Z" fill="#2F2E41"/>
<path d="M215.23 12.5304C218.108 12.5304 220.442 10.207 220.442 7.34102C220.442 4.47502 218.108 2.15167 215.23 2.15167C212.352 2.15167 210.019 4.47502 210.019 7.34102C210.019 10.207 212.352 12.5304 215.23 12.5304Z" fill="#2F2E41"/>
<path opacity="0.1" d="M215.103 2.15167C215.039 2.15167 214.976 2.1542 214.913 2.15647C216.261 2.20528 217.537 2.77287 218.474 3.73982C219.41 4.70678 219.933 5.99772 219.933 7.34102C219.933 8.68432 219.41 9.97525 218.474 10.9422C217.537 11.9092 216.261 12.4768 214.913 12.5256C214.976 12.5278 215.039 12.5304 215.103 12.5304C216.485 12.5304 217.811 11.9836 218.788 11.0104C219.766 10.0372 220.315 8.71732 220.315 7.34102C220.315 5.96472 219.766 4.64479 218.788 3.6716C217.811 2.69841 216.485 2.15167 215.103 2.15167Z" fill="black"/>
<path opacity="0.1" d="M190.317 2.15167C190.381 2.15167 190.444 2.1542 190.508 2.15647C189.16 2.20528 187.883 2.77287 186.947 3.73982C186.01 4.70678 185.487 5.99772 185.487 7.34102C185.487 8.68432 186.01 9.97525 186.947 10.9422C187.883 11.9092 189.16 12.4768 190.508 12.5256C190.444 12.5278 190.381 12.5304 190.317 12.5304C188.936 12.5292 187.611 11.9819 186.635 11.0088C185.659 10.0358 185.11 8.71653 185.11 7.34102C185.11 5.96551 185.659 4.64627 186.635 3.67321C187.611 2.70015 188.936 2.15288 190.317 2.15167Z" fill="black"/>
<path opacity="0.1" d="M207.469 16.2001C206.592 16.8586 205.523 17.2149 204.425 17.2154H198.327C197.228 17.2149 196.16 16.8586 195.283 16.2001H207.469Z" fill="black"/>
<path d="M246.848 53.8017C246.848 53.8017 248.161 57.5714 249.364 56.5677L248.405 51.6403L246.848 53.8017Z" fill="#FBBEBE"/>
<path d="M406.722 168.759C407.946 169.202 409.256 169.356 410.55 169.208C411.843 169.061 413.085 168.617 414.176 167.91C415.268 167.203 416.18 166.254 416.84 165.137C417.501 164.019 417.891 162.764 417.981 161.471C418.072 160.178 417.859 158.881 417.36 157.683C416.861 156.486 416.09 155.42 415.107 154.57C414.124 153.72 412.956 153.109 411.695 152.785C410.434 152.461 409.115 152.433 407.842 152.703L408.052 157.012L406.005 153.32C403.995 154.26 402.443 155.956 401.689 158.035C401.421 158.763 401.258 159.526 401.205 160.299C401.076 162.115 401.545 163.923 402.54 165.45C403.536 166.976 405.004 168.138 406.722 168.759Z" fill="#57B894"/>
<path d="M416.852 218.734C416.129 215.07 419.261 211.821 422.354 209.709C425.447 207.598 429.062 205.523 430.117 201.94C431.634 196.789 427.116 192.073 423.599 188.005C420.99 184.987 418.75 181.671 416.924 178.127C416.193 176.706 415.52 175.221 415.328 173.636C415.051 171.353 415.787 169.081 416.529 166.904C419.001 159.65 421.644 152.456 424.458 145.324" stroke="#3F3D56" stroke-miterlimit="10"/>
<path d="M407.068 167.65C408.292 168.092 409.602 168.246 410.896 168.099C412.189 167.952 413.431 167.507 414.523 166.801C415.614 166.094 416.526 165.145 417.187 164.027C417.847 162.91 418.238 161.655 418.328 160.362C418.418 159.068 418.205 157.772 417.706 156.574C417.207 155.376 416.436 154.311 415.453 153.461C414.47 152.611 413.302 151.999 412.041 151.676C410.78 151.352 409.461 151.324 408.188 151.594L408.398 155.903L406.351 152.21C404.342 153.15 402.789 154.846 402.035 156.925C401.768 157.654 401.605 158.416 401.552 159.19C401.423 161.006 401.891 162.814 402.887 164.34C403.882 165.867 405.35 167.028 407.068 167.65V167.65Z" stroke="#3F3D56" stroke-miterlimit="10"/>
<path d="M415.825 143.836C416.305 142.516 417.111 141.338 418.168 140.411C419.226 139.483 420.501 138.835 421.876 138.527L422.568 142.623L423.851 138.321C425.633 138.347 427.36 138.937 428.784 140.005C430.207 141.072 431.253 142.563 431.771 144.261C432.288 145.959 432.25 147.777 431.662 149.452C431.074 151.127 429.967 152.573 428.5 153.581C427.034 154.588 425.283 155.106 423.502 155.058C421.72 155.011 420 154.401 418.589 153.316C417.179 152.232 416.151 150.729 415.654 149.025C415.157 147.321 415.217 145.504 415.824 143.836H415.825Z" fill="#57B894"/>
<path d="M416.286 142.356C416.766 141.037 417.572 139.859 418.63 138.932C419.687 138.004 420.962 137.356 422.337 137.048L423.029 141.144L424.313 136.842C426.095 136.868 427.822 137.458 429.245 138.525C430.669 139.593 431.715 141.083 432.232 142.782C432.75 144.48 432.712 146.297 432.124 147.973C431.536 149.648 430.429 151.094 428.962 152.101C427.495 153.109 425.745 153.627 423.963 153.579C422.182 153.532 420.462 152.922 419.051 151.837C417.64 150.753 416.612 149.25 416.115 147.546C415.619 145.842 415.678 144.025 416.286 142.356H416.286Z" stroke="#3F3D56" stroke-miterlimit="10"/>
<path d="M422.123 188.088C424.064 188.789 426.196 188.755 428.113 187.991C430.029 187.228 431.597 185.788 432.516 183.948C433.436 182.107 433.643 179.994 433.098 178.012C432.554 176.029 431.296 174.315 429.564 173.196L428.578 176.502L427.878 172.358C427.872 172.355 427.864 172.352 427.857 172.35C426.819 171.974 425.717 171.806 424.614 171.855C423.51 171.903 422.427 172.168 421.427 172.633C420.426 173.099 419.528 173.756 418.782 174.568C418.037 175.379 417.459 176.329 417.083 177.363C416.706 178.397 416.538 179.494 416.587 180.593C416.637 181.691 416.903 182.769 417.371 183.765C417.839 184.762 418.5 185.656 419.315 186.398C420.131 187.139 421.085 187.714 422.123 188.088H422.123Z" fill="#57B894"/>
<path d="M422.523 186.59C424.464 187.291 426.596 187.256 428.513 186.493C430.429 185.729 431.997 184.29 432.916 182.45C433.836 180.609 434.043 178.496 433.498 176.513C432.954 174.531 431.696 172.817 429.964 171.698L428.978 175.004L428.278 170.86C428.271 170.856 428.264 170.854 428.257 170.852C427.219 170.476 426.117 170.308 425.014 170.356C423.91 170.405 422.827 170.67 421.827 171.135C420.826 171.601 419.928 172.258 419.182 173.069C418.437 173.881 417.859 174.831 417.483 175.865C417.106 176.898 416.938 177.996 416.987 179.095C417.037 180.193 417.303 181.271 417.771 182.267C418.239 183.263 418.9 184.158 419.715 184.9C420.531 185.641 421.485 186.216 422.523 186.59H422.523Z" stroke="#3F3D56" stroke-miterlimit="10"/>
<path d="M413.371 201.991C413.705 203.881 414.681 205.6 416.136 206.859C417.592 208.118 419.437 208.84 421.364 208.905C423.291 208.969 425.181 208.372 426.718 207.214C428.255 206.055 429.345 204.406 429.806 202.542C430.267 200.678 430.07 198.713 429.248 196.976C428.427 195.24 427.03 193.837 425.294 193.004C423.557 192.171 421.585 191.958 419.709 192.401C417.834 192.843 416.168 193.915 414.991 195.435L418.737 201.049L413.619 198.069C413.222 199.338 413.137 200.683 413.371 201.991Z" fill="#57B894"/>
<path d="M413.717 200.881C414.051 202.772 415.027 204.491 416.483 205.75C417.938 207.009 419.784 207.731 421.71 207.795C423.637 207.86 425.527 207.263 427.064 206.105C428.601 204.946 429.692 203.296 430.152 201.433C430.613 199.569 430.416 197.604 429.594 195.867C428.773 194.131 427.377 192.728 425.64 191.895C423.903 191.062 421.932 190.849 420.056 191.291C418.18 191.734 416.514 192.805 415.337 194.326L419.083 199.94L413.965 196.96C413.568 198.229 413.483 199.573 413.717 200.881V200.881Z" stroke="#3F3D56" stroke-miterlimit="10"/>
<path d="M3.63857 189.152C4.44254 189.443 5.30342 189.544 6.15334 189.447C7.00326 189.351 7.819 189.059 8.53624 188.594C9.25349 188.13 9.85265 187.506 10.2865 186.772C10.7203 186.038 10.977 185.214 11.0363 184.364C11.0955 183.514 10.9557 182.662 10.628 181.875C10.3002 181.088 9.79336 180.388 9.14743 179.83C8.50151 179.271 7.73413 178.87 6.9058 178.657C6.07747 178.444 5.21082 178.426 4.37416 178.603L4.51242 181.434L3.16732 179.008C1.84718 179.626 0.827318 180.74 0.331851 182.106C0.15589 182.585 0.0489188 183.086 0.0141286 183.594C-0.0707747 184.787 0.237119 185.975 0.891151 186.978C1.54518 187.981 2.50971 188.744 3.63857 189.152Z" fill="#57B894"/>
<path d="M10.2941 221.987C9.8193 219.579 11.8768 217.445 13.9091 216.057C15.9415 214.67 18.3161 213.307 19.0096 210.952C20.0061 207.569 17.0376 204.47 14.7271 201.797C13.013 199.814 11.5409 197.636 10.3417 195.307C9.82039 194.393 9.4653 193.394 9.2928 192.356C9.11062 190.856 9.59456 189.364 10.0821 187.933C11.7062 183.167 13.4427 178.441 15.2915 173.755" stroke="#3F3D56" stroke-miterlimit="10"/>
<path d="M3.86605 188.423C4.67003 188.714 5.5309 188.815 6.38082 188.719C7.23074 188.622 8.04647 188.33 8.76372 187.865C9.48096 187.401 10.0801 186.777 10.514 186.043C10.9478 185.309 11.2045 184.485 11.2637 183.635C11.323 182.785 11.1832 181.933 10.8554 181.146C10.5277 180.36 10.0208 179.659 9.3749 179.101C8.72898 178.542 7.96161 178.141 7.13328 177.928C6.30495 177.715 5.4383 177.697 4.60164 177.874L4.7399 180.705L3.3948 178.279C2.07466 178.897 1.0548 180.011 0.559329 181.377C0.38337 181.856 0.2764 182.357 0.241608 182.865C0.156699 184.058 0.464591 185.246 1.11862 186.249C1.77266 187.252 2.73718 188.015 3.86605 188.423V188.423Z" stroke="#3F3D56" stroke-miterlimit="10"/>
<path d="M9.619 172.777C9.93451 171.91 10.4641 171.136 11.1589 170.527C11.8536 169.917 12.6913 169.492 13.5947 169.289L14.0495 171.98L14.8927 169.154C16.0634 169.171 17.1983 169.558 18.1336 170.26C19.0688 170.961 19.756 171.941 20.0959 173.056C20.4358 174.172 20.4109 175.366 20.0247 176.467C19.6385 177.568 18.911 178.517 17.9473 179.18C16.9835 179.842 15.8334 180.182 14.663 180.15C13.4926 180.119 12.3624 179.718 11.4356 179.006C10.5088 178.293 9.83342 177.306 9.5069 176.187C9.18037 175.067 9.21963 173.873 9.619 172.777Z" fill="#57B894"/>
<path d="M9.92234 171.805C10.2379 170.938 10.7674 170.164 11.4622 169.555C12.157 168.945 12.9947 168.52 13.898 168.317L14.3528 171.009L15.196 168.182C16.3668 168.199 17.5017 168.587 18.4369 169.288C19.3722 169.989 20.0594 170.969 20.3993 172.084C20.7392 173.2 20.7142 174.394 20.328 175.495C19.9418 176.596 19.2143 177.546 18.2506 178.208C17.2869 178.87 16.1368 179.21 14.9663 179.179C13.7959 179.147 12.6657 178.747 11.7389 178.034C10.8122 177.322 10.1368 176.334 9.81024 175.215C9.48372 174.095 9.52298 172.901 9.92234 171.805V171.805Z" stroke="#3F3D56" stroke-miterlimit="10"/>
<path d="M13.7575 201.852C15.0325 202.312 16.4332 202.29 17.6925 201.788C18.9517 201.286 19.9816 200.341 20.5857 199.131C21.1899 197.922 21.3261 196.534 20.9683 195.231C20.6106 193.929 19.7839 192.802 18.646 192.068L17.9981 194.24L17.5386 191.517C17.5341 191.514 17.5294 191.513 17.5246 191.511C16.8426 191.264 16.1184 191.154 15.3934 191.186C14.6684 191.217 13.9569 191.391 13.2994 191.697C12.6419 192.003 12.0513 192.435 11.5615 192.968C11.0717 193.501 10.6923 194.125 10.4448 194.805C10.1973 195.484 10.0867 196.205 10.1193 196.927C10.1518 197.649 10.327 198.357 10.6346 199.012C10.9423 199.666 11.3764 200.254 11.9123 200.741C12.4481 201.228 13.0751 201.606 13.7575 201.852Z" fill="#57B894"/>
<path d="M14.0203 200.867C15.2954 201.328 16.696 201.305 17.9553 200.804C19.2146 200.302 20.2444 199.356 20.8486 198.147C21.4527 196.938 21.5889 195.55 21.2311 194.247C20.8734 192.944 20.0468 191.818 18.9088 191.083L18.2609 193.255L17.8015 190.532C17.7969 190.53 17.7922 190.528 17.7874 190.527C17.1056 190.281 16.3817 190.17 15.657 190.203C14.9324 190.235 14.2213 190.409 13.5643 190.715C12.2373 191.333 11.2112 192.45 10.7116 193.822C10.2121 195.193 10.28 196.706 10.9005 198.027C11.521 199.348 12.6433 200.37 14.0203 200.867V200.867Z" stroke="#3F3D56" stroke-miterlimit="10"/>
<path d="M8.00709 210.986C8.22632 212.228 8.86781 213.357 9.82398 214.184C10.7801 215.012 11.9928 215.486 13.2587 215.529C14.5245 215.571 15.7665 215.179 16.7764 214.418C17.7863 213.656 18.5026 212.573 18.8053 211.348C19.1079 210.123 18.9785 208.832 18.4387 207.691C17.8989 206.55 16.9815 205.629 15.8404 205.082C14.6994 204.534 13.404 204.394 12.1716 204.685C10.9391 204.976 9.84459 205.68 9.0715 206.679L11.5325 210.367L8.16986 208.41C7.90913 209.243 7.85331 210.127 8.00709 210.986Z" fill="#57B894"/>
<path d="M8.23458 210.257C8.4538 211.499 9.09529 212.629 10.0515 213.456C11.0076 214.283 12.2203 214.757 13.4862 214.8C14.752 214.842 15.994 214.45 17.0039 213.689C18.0138 212.928 18.7301 211.844 19.0327 210.619C19.3354 209.394 19.206 208.103 18.6661 206.963C18.1263 205.822 17.209 204.9 16.0679 204.353C14.9268 203.806 13.6315 203.666 12.399 203.956C11.1666 204.247 10.0721 204.951 9.29898 205.95L11.76 209.638L8.39733 207.681C8.13661 208.514 8.08079 209.398 8.23458 210.257V210.257Z" stroke="#3F3D56" stroke-miterlimit="10"/>
<path d="M194.278 137.21C198.07 137.21 201.145 133.248 201.145 128.36C201.145 123.473 198.07 119.511 194.278 119.511C190.485 119.511 187.411 123.473 187.411 128.36C187.411 133.248 190.485 137.21 194.278 137.21Z" fill="#2F2E41"/>
<path d="M231.643 137.411C235.436 137.411 238.51 133.449 238.51 128.562C238.51 123.674 235.436 119.712 231.643 119.712C227.851 119.712 224.776 123.674 224.776 128.562C224.776 133.449 227.851 137.411 231.643 137.411Z" fill="#2F2E41"/>
<path d="M226.392 154.707C226.392 158.705 220.785 161.947 213.869 161.947C206.954 161.947 201.347 158.705 201.347 154.707C201.347 151.244 205.552 148.348 211.171 147.64C212.066 147.522 212.967 147.464 213.869 147.467C215.381 147.462 216.889 147.624 218.365 147.949C223.059 148.991 226.392 151.626 226.392 154.707Z" fill="#2F2E41"/>
<path d="M195.894 135.198C199.686 135.198 202.761 131.237 202.761 126.349C202.761 121.462 199.686 117.5 195.894 117.5C192.101 117.5 189.026 121.462 189.026 126.349C189.026 131.237 192.101 135.198 195.894 135.198Z" stroke="#3F3D56" stroke-miterlimit="10"/>
<path d="M233.259 135.4C237.052 135.4 240.126 131.438 240.126 126.55C240.126 121.663 237.052 117.701 233.259 117.701C229.466 117.701 226.392 121.663 226.392 126.55C226.392 131.438 229.466 135.4 233.259 135.4Z" stroke="#3F3D56" stroke-miterlimit="10"/>
<path d="M215.485 159.936C222.401 159.936 228.008 156.695 228.008 152.696C228.008 148.697 222.401 145.456 215.485 145.456C208.569 145.456 202.963 148.697 202.963 152.696C202.963 156.695 208.569 159.936 215.485 159.936Z" stroke="#3F3D56" stroke-miterlimit="10"/>
<path d="M218.515 148.553C218.518 149.059 218.327 149.547 217.982 149.917C217.818 150.095 217.62 150.237 217.399 150.334C217.178 150.432 216.939 150.482 216.697 150.484H212.658C212.16 150.466 211.689 150.254 211.349 149.892C211.008 149.53 210.825 149.049 210.84 148.553C210.838 148.161 210.953 147.777 211.171 147.45C212.065 147.325 212.967 147.263 213.869 147.266C215.383 147.261 216.892 147.434 218.365 147.781C218.465 148.026 218.516 148.288 218.515 148.553Z" fill="white"/>
<path d="M195.894 125.947C197.009 125.947 197.913 125.047 197.913 123.936C197.913 122.825 197.009 121.925 195.894 121.925C194.778 121.925 193.874 122.825 193.874 123.936C193.874 125.047 194.778 125.947 195.894 125.947Z" fill="white"/>
<path d="M233.461 125.947C234.576 125.947 235.481 125.047 235.481 123.936C235.481 122.825 234.576 121.925 233.461 121.925C232.345 121.925 231.441 122.825 231.441 123.936C231.441 125.047 232.345 125.947 233.461 125.947Z" fill="white"/>
<path opacity="0.3" d="M235.481 144.852C236.596 144.852 237.5 143.952 237.5 142.841C237.5 141.73 236.596 140.83 235.481 140.83C234.365 140.83 233.461 141.73 233.461 142.841C233.461 143.952 234.365 144.852 235.481 144.852Z" fill="#66288E"/>
<path opacity="0.3" d="M186.199 144.852C187.314 144.852 188.219 143.952 188.219 142.841C188.219 141.73 187.314 140.83 186.199 140.83C185.083 140.83 184.179 141.73 184.179 142.841C184.179 143.952 185.083 144.852 186.199 144.852Z" fill="#66288E"/>
</g>
<defs>
<clipPath id="clip0">
<rect width="434" height="235" fill="white"/>
</clipPath>
</defs>
</svg>
