<svg xmlns="http://www.w3.org/2000/svg" style="display: none;"><symbol id="twitter" viewBox="0 -47 512.00004 512"><title>twitter</title><path d="m512 55.964844c-32.207031 1.484375-31.503906 1.363281-35.144531 1.667968l19.074219-54.472656s-59.539063 21.902344-74.632813 25.820313c-39.640625-35.628907-98.5625-37.203125-140.6875-11.3125-34.496094 21.207031-53.011719 57.625-46.835937 100.191406-67.136719-9.316406-123.703126-41.140625-168.363282-94.789063l-14.125-16.964843-10.554687 19.382812c-13.339844 24.492188-17.769531 52.496094-12.476563 78.851563 2.171875 10.8125 5.863282 21.125 10.976563 30.78125l-12.117188-4.695313-1.4375 20.246094c-1.457031 20.566406 5.390625 44.574219 18.320313 64.214844 3.640625 5.53125 8.328125 11.605469 14.269531 17.597656l-6.261719-.960937 7.640625 23.199218c10.042969 30.480469 30.902344 54.0625 57.972657 67.171875-27.035157 11.472657-48.875 18.792969-84.773438 30.601563l-32.84375 10.796875 30.335938 16.585937c11.566406 6.324219 52.4375 27.445313 92.820312 33.78125 89.765625 14.078125 190.832031 2.613282 258.871094-58.664062 57.308594-51.613282 76.113281-125.03125 72.207031-201.433594-.589844-11.566406 2.578125-22.605469 8.921875-31.078125 12.707031-16.964844 48.765625-66.40625 48.84375-66.519531zm-72.832031 48.550781c-10.535157 14.066406-15.8125 32.03125-14.867188 50.578125 3.941407 77.066406-17.027343 136.832031-62.328125 177.628906-52.917968 47.660156-138.273437 66.367188-234.171875 51.324219-17.367187-2.722656-35.316406-8.820313-50.171875-14.910156 30.097656-10.355469 53.339844-19.585938 90.875-37.351563l52.398438-24.800781-57.851563-3.703125c-27.710937-1.773438-50.785156-15.203125-64.96875-37.007812 7.53125-.4375 14.792969-1.65625 22.023438-3.671876l55.175781-15.367187-55.636719-13.625c-27.035156-6.621094-42.445312-22.796875-50.613281-35.203125-5.363281-8.152344-8.867188-16.503906-10.96875-24.203125 5.578125 1.496094 12.082031 2.5625 22.570312 3.601563l51.496094 5.09375-40.800781-31.828126c-29.398437-22.929687-41.179687-57.378906-32.542969-90.496093 91.75 95.164062 199.476563 88.011719 210.320313 90.527343-2.386719-23.183593-2.449219-23.238281-3.074219-25.445312-13.886719-49.089844 16.546875-74.015625 30.273438-82.453125 28.671874-17.621094 74.183593-20.277344 105.707031 8.753906 6.808593 6.265625 16.015625 8.730469 24.632812 6.589844 7.734375-1.921875 14.082031-3.957031 20.296875-6.171875l-12.9375 36.945312 16.515625.011719c-3.117187 4.179688-6.855469 9.183594-11.351562 15.183594zm0 0"/></symbol><symbol id="facebook" viewBox="-110 1 511 511.99996"><title>facebook</title><path d="m180 512h-81.992188c-13.695312 0-24.835937-11.140625-24.835937-24.835938v-184.9375h-47.835937c-13.695313 0-24.835938-11.144531-24.835938-24.835937v-79.246094c0-13.695312 11.140625-24.835937 24.835938-24.835937h47.835937v-39.683594c0-39.347656 12.355469-72.824219 35.726563-96.804688 23.476562-24.089843 56.285156-36.820312 94.878906-36.820312l62.53125.101562c13.671875.023438 24.792968 11.164063 24.792968 24.835938v73.578125c0 13.695313-11.136718 24.835937-24.828124 24.835937l-42.101563.015626c-12.839844 0-16.109375 2.574218-16.808594 3.363281-1.152343 1.308593-2.523437 5.007812-2.523437 15.222656v31.351563h58.269531c4.386719 0 8.636719 1.082031 12.289063 3.121093 7.878906 4.402344 12.777343 12.726563 12.777343 21.722657l-.03125 79.246093c0 13.6875-11.140625 24.828125-24.835937 24.828125h-58.46875v184.941406c0 13.695313-11.144532 24.835938-24.839844 24.835938zm-76.8125-30.015625h71.632812v-193.195313c0-9.144531 7.441407-16.582031 16.582032-16.582031h66.726562l.027344-68.882812h-66.757812c-9.140626 0-16.578126-7.4375-16.578126-16.582031v-44.789063c0-11.726563 1.191407-25.0625 10.042969-35.085937 10.695313-12.117188 27.550781-13.515626 39.300781-13.515626l36.921876-.015624v-63.226563l-57.332032-.09375c-62.023437 0-100.566406 39.703125-100.566406 103.609375v53.117188c0 9.140624-7.4375 16.582031-16.578125 16.582031h-56.09375v68.882812h56.09375c9.140625 0 16.578125 7.4375 16.578125 16.582031zm163.0625-451.867187h.003906zm0 0"/></symbol><symbol id="youtube" viewBox="0 0 512 512"><title>youtube</title><path d="m338.95 243.28-120-75c-4.625-2.89-10.453-3.043-15.222-.4-4.77 2.643-7.729 7.667-7.729 13.12v150c0 5.453 2.959 10.476 7.729 13.12 2.266 1.256 4.77 1.88 7.271 1.88 2.763 0 5.522-.763 7.95-2.28l120-75c4.386-2.741 7.05-7.548 7.05-12.72s-2.663-9.979-7.049-12.72zm-112.95 60.656v-95.873l76.698 47.937z"/><path d="m437 61h-362c-41.355 0-75 33.645-75 75v240c0 41.355 33.645 75 75 75h362c41.355 0 75-33.645 75-75v-240c0-41.355-33.645-75-75-75zm45 315c0 24.813-20.187 45-45 45h-362c-24.813 0-45-20.187-45-45v-240c0-24.813 20.187-45 45-45h362c24.813 0 45 20.187 45 45z"/></symbol><symbol id="instagram" viewBox="0 0 512.00096 512.00096"><title>instagram</title><path d="m373.40625 0h-234.8125c-76.421875 0-138.59375 62.171875-138.59375 138.59375v234.816406c0 76.417969 62.171875 138.589844 138.59375 138.589844h234.816406c76.417969 0 138.589844-62.171875 138.589844-138.589844v-234.816406c0-76.421875-62.171875-138.59375-138.59375-138.59375zm108.578125 373.410156c0 59.867188-48.707031 108.574219-108.578125 108.574219h-234.8125c-59.871094 0-108.578125-48.707031-108.578125-108.574219v-234.816406c0-59.871094 48.707031-108.578125 108.578125-108.578125h234.816406c59.867188 0 108.574219 48.707031 108.574219 108.578125zm0 0"/><path d="m256 116.003906c-77.195312 0-139.996094 62.800782-139.996094 139.996094s62.800782 139.996094 139.996094 139.996094 139.996094-62.800782 139.996094-139.996094-62.800782-139.996094-139.996094-139.996094zm0 249.976563c-60.640625 0-109.980469-49.335938-109.980469-109.980469 0-60.640625 49.339844-109.980469 109.980469-109.980469 60.644531 0 109.980469 49.339844 109.980469 109.980469 0 60.644531-49.335938 109.980469-109.980469 109.980469zm0 0"/><path d="m399.34375 66.285156c-22.8125 0-41.367188 18.558594-41.367188 41.367188 0 22.8125 18.554688 41.371094 41.367188 41.371094s41.371094-18.558594 41.371094-41.371094-18.558594-41.367188-41.371094-41.367188zm0 52.71875c-6.257812 0-11.351562-5.09375-11.351562-11.351562 0-6.261719 5.09375-11.351563 11.351562-11.351563 6.261719 0 11.355469 5.089844 11.355469 11.351563 0 6.257812-5.09375 11.351562-11.355469 11.351562zm0 0"/></symbol><symbol id="call" viewBox="0 0 384 384"><title>call</title><path d="M353.188,252.052c-23.51,0-46.594-3.677-68.469-10.906c-10.719-3.656-23.896-0.302-30.438,6.417l-43.177,32.594 c-50.073-26.729-80.917-57.563-107.281-107.26l31.635-42.052c8.219-8.208,11.167-20.198,7.635-31.448 c-7.26-21.99-10.948-45.063-10.948-68.583C132.146,13.823,118.323,0,101.333,0H30.813C13.823,0,0,13.823,0,30.813 C0,225.563,158.438,384,353.188,384c16.99,0,30.813-13.823,30.813-30.813v-70.323C384,265.875,370.177,252.052,353.188,252.052z"/></symbol><symbol id="clock" viewBox="0 0 443.294 443.294"><title>clock</title><path d="m221.647 0c-122.214 0-221.647 99.433-221.647 221.647s99.433 221.647 221.647 221.647 221.647-99.433 221.647-221.647-99.433-221.647-221.647-221.647zm0 415.588c-106.941 0-193.941-87-193.941-193.941s87-193.941 193.941-193.941 193.941 87 193.941 193.941-87 193.941-193.941 193.941z"/><path d="m235.5 83.118h-27.706v144.265l87.176 87.176 19.589-19.589-79.059-79.059z"/></symbol><symbol id="right-arrow" viewBox="0 0 492.004 492.004"><title>right-arrow</title><path d="M382.678,226.804L163.73,7.86C158.666,2.792,151.906,0,144.698,0s-13.968,2.792-19.032,7.86l-16.124,16.12 c-10.492,10.504-10.492,27.576,0,38.064L293.398,245.9l-184.06,184.06c-5.064,5.068-7.86,11.824-7.86,19.028 c0,7.212,2.796,13.968,7.86,19.04l16.124,16.116c5.068,5.068,11.824,7.86,19.032,7.86s13.968-2.792,19.032-7.86L382.678,265 c5.076-5.084,7.864-11.872,7.848-19.088C390.542,238.668,387.754,231.884,382.678,226.804z"/></symbol><symbol id="pin" viewBox="0 0 512 512"><title>pin</title><path d="M256,0C161.896,0,85.333,76.563,85.333,170.667c0,28.25,7.063,56.26,20.49,81.104L246.667,506.5 c1.875,3.396,5.448,5.5,9.333,5.5s7.458-2.104,9.333-5.5l140.896-254.813c13.375-24.76,20.438-52.771,20.438-81.021 C426.667,76.563,350.104,0,256,0z M256,256c-47.052,0-85.333-38.281-85.333-85.333c0-47.052,38.281-85.333,85.333-85.333 s85.333,38.281,85.333,85.333C341.333,217.719,303.052,256,256,256z"/></symbol><symbol id="user" viewBox="-42 0 512 512.002"><title>user</title><path d="m210.351562 246.632812c33.882813 0 63.222657-12.152343 87.195313-36.128906 23.972656-23.972656 36.125-53.304687 36.125-87.191406 0-33.875-12.152344-63.210938-36.128906-87.191406-23.976563-23.96875-53.3125-36.121094-87.191407-36.121094-33.886718 0-63.21875 12.152344-87.191406 36.125s-36.128906 53.308594-36.128906 87.1875c0 33.886719 12.15625 63.222656 36.132812 87.195312 23.976563 23.96875 53.3125 36.125 87.1875 36.125zm0 0"/><path d="m426.128906 393.703125c-.691406-9.976563-2.089844-20.859375-4.148437-32.351563-2.078125-11.578124-4.753907-22.523437-7.957031-32.527343-3.308594-10.339844-7.808594-20.550781-13.371094-30.335938-5.773438-10.15625-12.554688-19-20.164063-26.277343-7.957031-7.613282-17.699219-13.734376-28.964843-18.199219-11.226563-4.441407-23.667969-6.691407-36.976563-6.691407-5.226563 0-10.28125 2.144532-20.042969 8.5-6.007812 3.917969-13.035156 8.449219-20.878906 13.460938-6.707031 4.273438-15.792969 8.277344-27.015625 11.902344-10.949219 3.542968-22.066406 5.339844-33.039063 5.339844-10.972656 0-22.085937-1.796876-33.046874-5.339844-11.210938-3.621094-20.296876-7.625-26.996094-11.898438-7.769532-4.964844-14.800782-9.496094-20.898438-13.46875-9.75-6.355468-14.808594-8.5-20.035156-8.5-13.3125 0-25.75 2.253906-36.972656 6.699219-11.257813 4.457031-21.003906 10.578125-28.96875 18.199219-7.605469 7.28125-14.390625 16.121094-20.15625 26.273437-5.558594 9.785157-10.058594 19.992188-13.371094 30.339844-3.199219 10.003906-5.875 20.945313-7.953125 32.523437-2.058594 11.476563-3.457031 22.363282-4.148437 32.363282-.679688 9.796875-1.023438 19.964844-1.023438 30.234375 0 26.726562 8.496094 48.363281 25.25 64.320312 16.546875 15.746094 38.441406 23.734375 65.066406 23.734375h246.53125c26.625 0 48.511719-7.984375 65.0625-23.734375 16.757813-15.945312 25.253906-37.585937 25.253906-64.324219-.003906-10.316406-.351562-20.492187-1.035156-30.242187zm0 0"/></symbol><symbol id="invisible" viewBox="0 0 469.44 469.44"><title>invisible</title><path d="M231.147,160.373l67.2,67.2l0.32-3.52c0-35.307-28.693-64-64-64L231.147,160.373z"/><path d="M234.667,117.387c58.88,0,106.667,47.787,106.667,106.667c0,13.76-2.773,26.88-7.573,38.933l62.4,62.4 c32.213-26.88,57.6-61.653,73.28-101.333c-37.013-93.653-128-160-234.773-160c-29.867,0-58.453,5.333-85.013,14.933l46.08,45.973 C207.787,120.267,220.907,117.387,234.667,117.387z"/><path d="M21.333,59.253l48.64,48.64l9.707,9.707C44.48,145.12,16.64,181.707,0,224.053c36.907,93.653,128,160,234.667,160 c33.067,0,64.64-6.4,93.547-18.027l9.067,9.067l62.187,62.293l27.2-27.093L48.533,32.053L21.333,59.253z M139.307,177.12 l32.96,32.96c-0.96,4.587-1.6,9.173-1.6,13.973c0,35.307,28.693,64,64,64c4.8,0,9.387-0.64,13.867-1.6l32.96,32.96 c-14.187,7.04-29.973,11.307-46.827,11.307C175.787,330.72,128,282.933,128,224.053C128,207.2,132.267,191.413,139.307,177.12z"/></symbol><symbol id="dashboard" viewBox="0 0 512 512"><title>dashboard</title><path d="m197.332031 0h-160c-20.585937 0-37.332031 16.746094-37.332031 37.332031v96c0 20.589844 16.746094 37.335938 37.332031 37.335938h160c20.589844 0 37.335938-16.746094 37.335938-37.335938v-96c0-20.585937-16.746094-37.332031-37.335938-37.332031zm0 0"/><path d="m197.332031 213.332031h-160c-20.585937 0-37.332031 16.746094-37.332031 37.335938v224c0 20.585937 16.746094 37.332031 37.332031 37.332031h160c20.589844 0 37.335938-16.746094 37.335938-37.332031v-224c0-20.589844-16.746094-37.335938-37.335938-37.335938zm0 0"/><path d="m474.667969 341.332031h-160c-20.589844 0-37.335938 16.746094-37.335938 37.335938v96c0 20.585937 16.746094 37.332031 37.335938 37.332031h160c20.585937 0 37.332031-16.746094 37.332031-37.332031v-96c0-20.589844-16.746094-37.335938-37.332031-37.335938zm0 0"/><path d="m474.667969 0h-160c-20.589844 0-37.335938 16.746094-37.335938 37.332031v224c0 20.589844 16.746094 37.335938 37.335938 37.335938h160c20.585937 0 37.332031-16.746094 37.332031-37.335938v-224c0-20.585937-16.746094-37.332031-37.332031-37.332031zm0 0"/></symbol><symbol id="friends" viewBox="0 0 512 512"><title>friends</title><g> <g> <path d="M155.327,57.142c-51.531,0-93.454,44.45-93.454,99.086c0,54.636,41.923,99.086,93.454,99.086s93.455-44.45,93.455-99.086 C248.782,101.592,206.859,57.142,155.327,57.142z"/> </g> </g><g> <g> <path d="M367.798,71.321c-0.211,0-0.425,0.001-0.636,0.002c-21.626,0.179-41.826,9.31-56.878,25.713 c-14.788,16.113-22.829,37.37-22.644,59.854c0.186,22.484,8.577,43.605,23.628,59.473c15.17,15.991,35.265,24.773,56.651,24.773 c0.215,0,0.43-0.001,0.646-0.002c21.626-0.179,41.826-9.311,56.878-25.713c14.788-16.113,22.829-37.37,22.644-59.855 C447.702,108.972,411.747,71.321,367.798,71.321z"/> </g> </g><g> <g> <path d="M371.74,257.358h-7.76c-36.14,0-69.12,13.74-94.02,36.26c6.23,4.78,12.16,9.99,17.78,15.61 c16.58,16.58,29.6,35.9,38.7,57.42c8.2,19.38,12.88,39.8,13.97,60.83H512v-29.87C512,320.278,449.08,257.358,371.74,257.358z"/> </g> </g><g> <g> <path d="M310.35,427.478c-2.83-45.59-25.94-85.69-60.43-111.39c-25.09-18.7-56.21-29.77-89.92-29.77h-9.34 C67.45,286.319,0,353.768,0,436.978v17.88h310.65v-17.88C310.65,433.788,310.55,430.618,310.35,427.478z"/> </g> </g></symbol><symbol id="double-tick-indicator" viewBox="0 0 594.149 594.149"><title>double-tick-indicator</title><path d="M448.8,161.925l-35.7-35.7l-160.65,160.65l35.7,35.7L448.8,161.925z M555.899,126.225l-267.75,270.3l-107.1-107.1 l-35.7,35.7l142.8,142.8l306-306L555.899,126.225z M0,325.125l142.8,142.8l35.7-35.7l-142.8-142.8L0,325.125z"/></symbol><symbol id="bar-chart" viewBox="0 0 372.5 372.5"><title>bar-chart</title><g> <g> <rect x="149.7" y="150.15" width="73" height="174"/> </g> </g><g> <g> <rect x="299.5" y="48.35" width="73" height="275.8"/> </g> </g><g> <g> <rect y="219.85" width="73" height="104.3"/> </g> </g></symbol><symbol id="notification" viewBox="0 0 512 512"><title>notification</title><g> <g> <path d="M467.812,431.851l-36.629-61.056c-16.917-28.181-25.856-60.459-25.856-93.312V224c0-67.52-45.056-124.629-106.667-143.04 V42.667C298.66,19.136,279.524,0,255.993,0s-42.667,19.136-42.667,42.667V80.96C151.716,99.371,106.66,156.48,106.66,224v53.483 c0,32.853-8.939,65.109-25.835,93.291l-36.629,61.056c-1.984,3.307-2.027,7.403-0.128,10.752c1.899,3.349,5.419,5.419,9.259,5.419 H458.66c3.84,0,7.381-2.069,9.28-5.397C469.839,439.275,469.775,435.136,467.812,431.851z"/> </g> </g><g> <g> <path d="M188.815,469.333C200.847,494.464,226.319,512,255.993,512s55.147-17.536,67.179-42.667H188.815z"/> </g> </g></symbol><symbol id="cart" viewBox="0 0 435.104 435.104"><title>cart</title><circle cx="154.112" cy="377.684" r="52.736"/><path d="M323.072,324.436L323.072,324.436c-29.267-2.88-55.327,18.51-58.207,47.777c-2.88,29.267,18.51,55.327,47.777,58.207 c3.468,0.341,6.962,0.341,10.43,0c29.267-2.88,50.657-28.94,47.777-58.207C368.361,346.928,348.356,326.924,323.072,324.436z"/><path d="M431.616,123.732c-2.62-3.923-7.059-6.239-11.776-6.144h-58.368v-1.024C361.476,54.637,311.278,4.432,249.351,4.428 C187.425,4.424,137.22,54.622,137.216,116.549c0,0.005,0,0.01,0,0.015v1.024h-43.52L78.848,50.004 C77.199,43.129,71.07,38.268,64,38.228H0v30.72h51.712l47.616,218.624c1.257,7.188,7.552,12.397,14.848,12.288h267.776 c7.07-0.041,13.198-4.901,14.848-11.776l37.888-151.552C435.799,132.019,434.654,127.248,431.616,123.732z M249.344,197.972 c-44.96,0-81.408-36.448-81.408-81.408s36.448-81.408,81.408-81.408s81.408,36.448,81.408,81.408 C330.473,161.408,294.188,197.692,249.344,197.972z"/><path d="M237.056,118.1l-28.16-28.672l-22.016,21.504l38.912,39.424c2.836,2.894,6.7,4.55,10.752,4.608 c3.999,0.196,7.897-1.289,10.752-4.096l64.512-60.928l-20.992-22.528L237.056,118.1z"/></symbol><symbol id="pencil" viewBox="0 0 512 512"><title>pencil</title><g> <g> <polygon points="51.2,353.28 0,512 158.72,460.8 "/> </g> </g><g> <g> <rect x="89.73" y="169.097" transform="matrix(0.7071 -0.7071 0.7071 0.7071 -95.8575 260.3719)" width="353.277" height="153.599"/> </g> </g><g> <g> <path d="M504.32,79.36L432.64,7.68c-10.24-10.24-25.6-10.24-35.84,0l-23.04,23.04l107.52,107.52l23.04-23.04 C514.56,104.96,514.56,89.6,504.32,79.36z"/> </g> </g></symbol><symbol id="delete" viewBox="0 0 384 384"><title>delete</title><path d="M64,341.333C64,364.907,83.093,384,106.667,384h170.667C300.907,384,320,364.907,320,341.333v-256H64V341.333z"/><polygon points="266.667,21.333 245.333,0 138.667,0 117.333,21.333 42.667,21.333 42.667,64 341.333,64 341.333,21.333 "/></symbol><symbol id="menu" viewBox="0 0 512 512"><title>menu</title><circle cx="256" cy="256" r="64"/><circle cx="256" cy="448" r="64"/><circle cx="256" cy="64" r="64"/></symbol></svg>