<svg id="undraw" width="240" height="148" viewBox="0 0 240 148" fill="none" xmlns="http://www.w3.org/2000/svg">
<g clip-path="url(#clip0)">
<path opacity="0.1" d="M240 88.0615C240.013 95.079 238.117 101.965 234.52 107.968C234.52 115.308 231.134 121.962 225.642 126.811C224.267 128.023 222.787 129.108 221.219 130.051C221.157 130.092 221.092 130.13 221.027 130.168C220.909 130.238 220.792 130.308 220.672 130.38L220.561 130.446C215.36 133.373 209.499 134.893 203.547 134.856H45.5601C44.3013 134.856 43.0538 134.805 41.8174 134.703C37.4237 134.354 33.1062 133.343 29.0076 131.705C28.2076 131.386 27.423 131.042 26.6538 130.675C26.2874 130.501 25.9244 130.322 25.565 130.138C25.3405 130.024 25.116 129.905 24.8937 129.786C22.309 128.41 19.8843 126.746 17.6643 124.827C10.5314 118.629 6.10904 110.067 6.10904 100.61C2.10781 94.3826 -0.0147812 87.1133 -4.5868e-05 79.6881C-4.5868e-05 58.6667 16.6237 41.6253 37.1328 41.6253C37.7622 41.6253 38.3916 41.6444 39.0209 41.6783C39.1111 41.6783 39.1992 41.6783 39.2895 41.691C42.7468 35.7349 47.3685 30.2622 52.9258 25.4447C68.0811 12.3196 90.2307 4.0459 114.904 4.0459C135.636 4.0459 154.586 9.88753 169.101 19.5395C174.602 16.3968 180.814 14.7494 187.133 14.758C207.638 14.758 224.266 31.7995 224.266 52.8209C224.263 54.151 224.193 55.48 224.056 56.8029C228.999 60.3393 233.027 65.0253 235.802 70.4655C238.577 75.9058 240.017 81.9408 240 88.0615Z" fill="#66288E"/>
<g opacity="0.2">
<path opacity="0.2" d="M29.0286 131.419C29.0286 131.516 29.0182 131.612 29.0077 131.705C28.2077 131.385 27.423 131.042 26.6538 130.674C26.2429 130.62 25.8607 130.431 25.565 130.138C25.3405 130.023 25.1161 129.905 24.8937 129.786C24.944 129.679 25.0008 129.576 25.0636 129.476C25.4958 128.785 26.1524 128.353 26.8762 128.376C27.6 128.399 28.2272 128.872 28.6154 129.587C28.9122 130.149 29.0549 130.782 29.0286 131.419Z" fill="#3F3D56"/>
<path opacity="0.2" d="M29.142 127.788C29.1276 128.424 28.9459 129.044 28.6154 129.586C28.1832 130.275 27.5266 130.708 26.8028 130.684L26.6538 130.674C26.2429 130.619 25.8607 130.431 25.565 130.137C25.3645 129.945 25.1953 129.721 25.0636 129.476C24.7741 128.911 24.6325 128.281 24.6523 127.646C24.6722 127.01 24.8528 126.39 25.1769 125.846C25.6091 125.154 26.2657 124.722 26.9895 124.745C27.7133 124.768 28.3406 125.241 28.7287 125.956C29.0255 126.518 29.1682 127.151 29.142 127.788Z" fill="#3F3D56"/>
<path opacity="0.2" d="M29.256 124.164C29.3073 122.525 28.3443 121.163 27.1052 121.124C25.8661 121.084 24.82 122.381 24.7687 124.021C24.7175 125.661 25.6804 127.022 26.9195 127.062C28.1587 127.101 29.2047 125.804 29.256 124.164Z" fill="#3F3D56"/>
<path opacity="0.2" d="M29.3683 120.535C29.4196 118.895 28.4566 117.533 27.2175 117.494C25.9784 117.454 24.9323 118.751 24.881 120.391C24.8298 122.031 25.7927 123.392 27.0318 123.432C28.271 123.472 29.317 122.174 29.3683 120.535Z" fill="#3F3D56"/>
<path opacity="0.2" d="M29.4997 116.665C29.5484 115.024 28.5828 113.663 27.3431 113.626C26.1033 113.588 25.0589 114.888 25.0102 116.528C24.9615 118.169 25.927 119.529 27.1667 119.567C28.4065 119.605 29.451 118.305 29.4997 116.665Z" fill="#3F3D56"/>
<path opacity="0.2" d="M19.6091 91.7165C19.3137 91.3122 19.0473 90.887 18.8119 90.4443L24.7406 89.6534L18.3588 89.4986C17.7893 88.1333 17.5013 86.6649 17.5125 85.1832C17.5236 83.7016 17.8337 82.2378 18.4238 80.8814L26.8406 85.6416L19.1308 79.5243C19.9086 78.2529 20.9373 77.1573 22.1529 76.3058C23.3684 75.4543 24.7446 74.8652 26.1955 74.5754C27.6464 74.2856 29.1408 74.3013 30.5855 74.6215C32.0301 74.9417 33.3939 75.5595 34.5917 76.4363C35.7895 77.3132 36.7955 78.4302 37.547 79.7176C38.2984 81.0051 38.7792 82.4354 38.9592 83.919C39.1392 85.4027 39.0146 86.908 38.5932 88.3408C38.1717 89.7736 37.4625 91.1032 36.5098 92.2466C36.9689 92.8758 37.3593 93.5533 37.6742 94.2673L29.893 98.0437L38.1441 95.5353C38.6637 97.2682 38.7474 99.1047 38.3877 100.879C38.028 102.652 37.2362 104.307 36.0839 105.694C37.2819 107.337 37.9982 109.287 38.1511 111.322C38.304 113.357 37.8872 115.394 36.9484 117.201C36.0097 119.007 34.5868 120.511 32.8425 121.539C31.0983 122.566 29.103 123.077 27.0849 123.013C25.0668 122.949 23.1074 122.312 21.4307 121.175C19.7539 120.038 18.4276 118.447 17.6033 116.584C16.779 114.721 16.49 112.662 16.7694 110.641C17.0488 108.619 17.8853 106.719 19.1832 105.155C17.7521 103.192 17.0153 100.8 17.0914 98.3626C17.1675 95.9253 18.052 93.5846 19.6028 91.7165H19.6091Z" fill="#66288E"/>
<path opacity="0.1" d="M38.6014 99.049C38.527 101.487 37.6399 103.829 36.0839 105.694C37.2819 107.337 37.9982 109.287 38.1511 111.322C38.304 113.357 37.8872 115.394 36.9484 117.201C36.0097 119.008 34.5868 120.511 32.8425 121.539C31.0982 122.567 29.103 123.078 27.0849 123.013C25.0668 122.949 23.1074 122.312 21.4307 121.175C19.7539 120.038 18.4276 118.447 17.6033 116.584C16.779 114.722 16.49 112.662 16.7694 110.641C17.0488 108.62 17.8853 106.719 19.1832 105.156C17.8049 103.262 38.6392 97.8277 38.6014 99.049Z" fill="black"/>
</g>
<path d="M200.979 29.3479V130.952C200.979 131.987 200.572 132.98 199.848 133.712C199.124 134.444 198.141 134.856 197.117 134.856H42.8832C42.5226 134.856 42.1638 134.805 41.8175 134.703C41.0112 134.47 40.3021 133.978 39.7974 133.301C39.2928 132.624 39.0202 131.8 39.021 130.952V85.61C39.021 85.3788 39.021 85.1498 39.021 84.9208V41.6779C39.1112 41.6779 39.1993 41.6779 39.2895 41.6906C42.7469 35.7345 47.3685 30.2618 52.9259 25.4443H197.117C198.141 25.4443 199.124 25.8556 199.848 26.5877C200.572 27.3197 200.979 28.3126 200.979 29.3479Z" fill="white"/>
<path d="M174.55 38.6396H153.178C151.095 38.6396 149.406 40.3465 149.406 42.4521C149.406 44.5576 151.095 46.2645 153.178 46.2645H174.55C176.633 46.2645 178.322 44.5576 178.322 42.4521C178.322 40.3465 176.633 38.6396 174.55 38.6396Z" fill="#3F3D56"/>
<path opacity="0.1" d="M173.925 39.9141H153.801C152.415 39.9141 151.29 41.0499 151.29 42.4511C151.29 43.8523 152.415 44.9881 153.801 44.9881H173.925C175.311 44.9881 176.436 43.8523 176.436 42.4511C176.436 41.0499 175.311 39.9141 173.925 39.9141Z" fill="black"/>
<path d="M173.572 40.1914H168.961C167.727 40.1914 166.727 41.2024 166.727 42.4496V42.4517C166.727 43.6989 167.727 44.7099 168.961 44.7099H173.572C174.806 44.7099 175.806 43.6989 175.806 42.4517V42.4496C175.806 41.2024 174.806 40.1914 173.572 40.1914Z" fill="#66288E"/>
<path d="M171.197 43.8644C171.969 43.8644 172.594 43.2321 172.594 42.4522C172.594 41.6723 171.969 41.04 171.197 41.04C170.426 41.04 169.8 41.6723 169.8 42.4522C169.8 43.2321 170.426 43.8644 171.197 43.8644Z" fill="white"/>
<path d="M174.55 88.9033H153.178C151.095 88.9033 149.406 90.6102 149.406 92.7158C149.406 94.8213 151.095 96.5282 153.178 96.5282H174.55C176.633 96.5282 178.322 94.8213 178.322 92.7158C178.322 90.6102 176.633 88.9033 174.55 88.9033Z" fill="#3F3D56"/>
<path opacity="0.1" d="M173.925 90.1777H153.801C152.415 90.1777 151.29 91.3136 151.29 92.7148C151.29 94.1159 152.415 95.2518 153.801 95.2518H173.925C175.311 95.2518 176.436 94.1159 176.436 92.7148C176.436 91.3136 175.311 90.1777 173.925 90.1777Z" fill="black"/>
<path d="M173.572 90.4551H168.961C167.727 90.4551 166.727 91.4661 166.727 92.7133V92.7154C166.727 93.9626 167.727 94.9736 168.961 94.9736H173.572C174.806 94.9736 175.806 93.9626 175.806 92.7154V92.7133C175.806 91.4661 174.806 90.4551 173.572 90.4551Z" fill="#66288E"/>
<path d="M171.197 94.128C171.969 94.128 172.594 93.4958 172.594 92.7159C172.594 91.936 171.969 91.3037 171.197 91.3037C170.426 91.3037 169.8 91.936 169.8 92.7159C169.8 93.4958 170.426 94.128 171.197 94.128Z" fill="white"/>
<path d="M174.55 114.034H153.178C151.095 114.034 149.406 115.741 149.406 117.847C149.406 119.952 151.095 121.659 153.178 121.659H174.55C176.633 121.659 178.322 119.952 178.322 117.847C178.322 115.741 176.633 114.034 174.55 114.034Z" fill="#3F3D56"/>
<path opacity="0.1" d="M173.925 115.311H153.801C152.415 115.311 151.29 116.446 151.29 117.848C151.29 119.249 152.415 120.385 153.801 120.385H173.925C175.311 120.385 176.436 119.249 176.436 117.848C176.436 116.446 175.311 115.311 173.925 115.311Z" fill="black"/>
<path d="M173.572 115.588H168.961C167.727 115.588 166.727 116.599 166.727 117.846V117.848C166.727 119.095 167.727 120.106 168.961 120.106H173.572C174.806 120.106 175.806 119.095 175.806 117.848V117.846C175.806 116.599 174.806 115.588 173.572 115.588Z" fill="#66288E"/>
<path d="M171.197 119.258C171.969 119.258 172.594 118.626 172.594 117.846C172.594 117.066 171.969 116.434 171.197 116.434C170.426 116.434 169.8 117.066 169.8 117.846C169.8 118.626 170.426 119.258 171.197 119.258Z" fill="white"/>
<path d="M76.3469 33.8389H63.9126C62.6787 33.8389 61.6783 34.8499 61.6783 36.0971V36.0992C61.6783 37.3463 62.6787 38.3574 63.9126 38.3574H76.3469C77.5808 38.3574 78.5811 37.3463 78.5811 36.0992V36.0971C78.5811 34.8499 77.5808 33.8389 76.3469 33.8389Z" fill="#66288E"/>
<path d="M106.38 40.1914H63.9126C62.6787 40.1914 61.6783 41.2024 61.6783 42.4496V42.4517C61.6783 43.6989 62.6787 44.7099 63.9126 44.7099H106.38C107.614 44.7099 108.615 43.6989 108.615 42.4517V42.4496C108.615 41.2024 107.614 40.1914 106.38 40.1914Z" fill="#66288E"/>
<path d="M106.38 46.5469H63.9126C62.6787 46.5469 61.6783 47.5579 61.6783 48.8051V48.8072C61.6783 50.0544 62.6787 51.0654 63.9126 51.0654H106.38C107.614 51.0654 108.615 50.0544 108.615 48.8072V48.8051C108.615 47.5579 107.614 46.5469 106.38 46.5469Z" fill="#66288E"/>
<g opacity="0.5">
<path opacity="0.5" d="M76.3469 58.9697H63.9126C62.6787 58.9697 61.6783 59.9808 61.6783 61.2279V61.23C61.6783 62.4772 62.6787 63.4882 63.9126 63.4882H76.3469C77.5808 63.4882 78.5811 62.4772 78.5811 61.23V61.2279C78.5811 59.9808 77.5808 58.9697 76.3469 58.9697Z" fill="#66288E"/>
<path opacity="0.5" d="M94.479 65.3242H63.9126C62.6787 65.3242 61.6783 66.3353 61.6783 67.5824V67.5845C61.6783 68.8317 62.6787 69.8427 63.9126 69.8427H94.479C95.713 69.8427 96.7133 68.8317 96.7133 67.5845V67.5824C96.7133 66.3353 95.713 65.3242 94.479 65.3242Z" fill="#66288E"/>
<path opacity="0.5" d="M106.38 71.6768H63.9126C62.6787 71.6768 61.6783 72.6878 61.6783 73.935V73.9371C61.6783 75.1843 62.6787 76.1953 63.9126 76.1953H106.38C107.614 76.1953 108.615 75.1843 108.615 73.9371V73.935C108.615 72.6878 107.614 71.6768 106.38 71.6768Z" fill="#66288E"/>
</g>
<path d="M76.3469 84.1025H63.9126C62.6787 84.1025 61.6783 85.1136 61.6783 86.3607V86.3629C61.6783 87.61 62.6787 88.6211 63.9126 88.6211H76.3469C77.5808 88.6211 78.5811 87.61 78.5811 86.3629V86.3607C78.5811 85.1136 77.5808 84.1025 76.3469 84.1025Z" fill="#66288E"/>
<path d="M106.38 90.4551H63.9126C62.6787 90.4551 61.6783 91.4661 61.6783 92.7133V92.7154C61.6783 93.9626 62.6787 94.9736 63.9126 94.9736H106.38C107.614 94.9736 108.615 93.9626 108.615 92.7154V92.7133C108.615 91.4661 107.614 90.4551 106.38 90.4551Z" fill="#66288E"/>
<path d="M88.6049 96.8096H63.9126C62.6787 96.8096 61.6783 97.8206 61.6783 99.0678V99.0699C61.6783 100.317 62.6787 101.328 63.9126 101.328H88.6049C89.8389 101.328 90.8392 100.317 90.8392 99.0699V99.0678C90.8392 97.8206 89.8389 96.8096 88.6049 96.8096Z" fill="#66288E"/>
<path d="M76.3469 109.233H63.9126C62.6787 109.233 61.6783 110.244 61.6783 111.492V111.494C61.6783 112.741 62.6787 113.752 63.9126 113.752H76.3469C77.5808 113.752 78.5811 112.741 78.5811 111.494V111.492C78.5811 110.244 77.5808 109.233 76.3469 109.233Z" fill="#66288E"/>
<path d="M106.38 115.588H63.9126C62.6787 115.588 61.6783 116.599 61.6783 117.846V117.848C61.6783 119.095 62.6787 120.106 63.9126 120.106H106.38C107.614 120.106 108.615 119.095 108.615 117.848V117.846C108.615 116.599 107.614 115.588 106.38 115.588Z" fill="#66288E"/>
<path d="M97.2063 121.94H63.9126C62.6787 121.94 61.6783 122.951 61.6783 124.199V124.201C61.6783 125.448 62.6787 126.459 63.9126 126.459H97.2063C98.4403 126.459 99.4406 125.448 99.4406 124.201V124.199C99.4406 122.951 98.4403 121.94 97.2063 121.94Z" fill="#66288E"/>
<path opacity="0.7" d="M54.5454 55.1279H191.329" stroke="#3F3D56" stroke-miterlimit="10" stroke-linecap="round"/>
<path opacity="0.7" d="M54.5454 80.6777H191.329" stroke="#3F3D56" stroke-miterlimit="10" stroke-linecap="round"/>
<path opacity="0.7" d="M54.5454 106.229H191.329" stroke="#3F3D56" stroke-miterlimit="10" stroke-linecap="round"/>
<path opacity="0.7" d="M54.5454 132.415H191.329" stroke="#3F3D56" stroke-miterlimit="10" stroke-linecap="round"/>
<path opacity="0.1" d="M166.783 148C183.894 148 197.765 147.003 197.765 145.773C197.765 144.544 183.894 143.547 166.783 143.547C149.672 143.547 135.801 144.544 135.801 145.773C135.801 147.003 149.672 148 166.783 148Z" fill="#66288E"/>
<path opacity="0.1" d="M14.7944 34.5214C17.3005 34.5214 19.3321 32.468 19.3321 29.935C19.3321 27.402 17.3005 25.3486 14.7944 25.3486C12.2882 25.3486 10.2566 27.402 10.2566 29.935C10.2566 32.468 12.2882 34.5214 14.7944 34.5214Z" fill="#66288E"/>
<path opacity="0.1" d="M33.707 9.17274C36.2131 9.17274 38.2447 7.11935 38.2447 4.58637C38.2447 2.05339 36.2131 0 33.707 0C31.2008 0 29.1692 2.05339 29.1692 4.58637C29.1692 7.11935 31.2008 9.17274 33.707 9.17274Z" fill="#66288E"/>
<path opacity="0.1" d="M32.1692 29.6872C36.3693 29.6872 39.7741 26.2459 39.7741 22.0008C39.7741 17.7558 36.3693 14.3145 32.1692 14.3145C27.9692 14.3145 24.5643 17.7558 24.5643 22.0008C24.5643 26.2459 27.9692 29.6872 32.1692 29.6872Z" fill="#66288E"/>
<path d="M174.55 63.7705H153.178C151.095 63.7705 149.406 65.4774 149.406 67.5829C149.406 69.6885 151.095 71.3954 153.178 71.3954H174.55C176.633 71.3954 178.322 69.6885 178.322 67.5829C178.322 65.4774 176.633 63.7705 174.55 63.7705Z" fill="#3F3D56"/>
<path opacity="0.1" d="M173.925 65.0469H153.801C152.415 65.0469 151.29 66.1827 151.29 67.5839C151.29 68.9851 152.415 70.1209 153.801 70.1209H173.925C175.311 70.1209 176.436 68.9851 176.436 67.5839C176.436 66.1827 175.311 65.0469 173.925 65.0469Z" fill="black"/>
<path d="M152.133 140.156C152.463 140.107 152.792 140.04 153.115 139.963C153.073 140.29 152.98 140.608 152.838 140.905C152.517 141.52 151.89 141.891 151.313 142.268C151.234 142.193 151.131 142.148 151.022 142.141C150.914 142.133 150.806 142.164 150.717 142.228C150.023 142.652 149.469 143.25 148.733 143.615C148.475 143.742 148.206 143.844 147.954 143.986C147.344 144.362 146.838 144.89 146.486 145.519C146.276 145.847 146.106 146.28 146.312 146.606C146.391 146.717 146.492 146.809 146.61 146.876C146.909 147.087 147.267 147.194 147.631 147.183C147.841 147.164 148.051 147.084 148.28 147.047C148.567 146.997 148.861 147.022 149.15 146.997C149.57 146.942 149.982 146.834 150.375 146.676L151.817 146.168C152.224 146.035 152.62 145.87 153.002 145.676C153.231 145.551 153.447 145.404 153.68 145.29C153.942 145.172 154.212 145.076 154.489 145.001L155.308 144.76C155.425 144.714 155.552 144.697 155.677 144.711C155.79 144.732 155.887 144.804 156.002 144.834C156.178 144.865 156.36 144.848 156.526 144.783L157.475 144.512C157.675 144.466 157.866 144.385 158.039 144.274C158.473 143.962 158.551 143.343 158.549 142.802C158.547 141.983 158.455 141.167 158.276 140.368C158.155 140.418 158.048 140.499 157.968 140.604C157.871 140.466 157.767 140.333 157.655 140.207C157.218 139.694 156.896 139.091 156.709 138.441C157.051 138.184 157.337 137.857 157.548 137.482C157.047 135.551 156.533 133.589 155.513 131.885C155.18 131.329 154.798 130.808 154.464 130.26C153.472 128.67 153.268 126.656 152.133 125.172C152.026 125.021 151.968 124.84 151.968 124.654C151.968 124.468 152.026 124.287 152.133 124.137C152.264 123.963 152.473 123.8 152.433 123.583C152.404 123.429 152.245 123.287 152.306 123.142C152.335 123.072 152.406 123.034 152.461 122.983C152.654 122.801 152.629 122.494 152.647 122.226C152.689 121.552 153.086 120.954 153.468 120.411C153.545 120.281 153.648 120.169 153.77 120.081C153.873 120.017 153.994 119.987 154.097 119.924C154.458 119.693 154.433 119.156 154.605 118.757C154.831 118.232 155.402 117.967 155.775 117.54C156.252 116.998 156.373 116.243 156.875 115.77C156.926 115.72 156.982 115.675 157.04 115.634C156.823 116.439 156.723 117.271 156.745 118.104C156.696 120.973 157.401 123.942 157.072 126.798C156.812 129.058 158.178 131.312 160.114 132.442C160.872 132.851 161.665 133.191 162.482 133.458C163.695 133.897 164.903 134.349 166.093 134.853C166.932 135.209 167.76 135.592 168.577 136C169.585 136.498 170.565 137.051 171.514 137.656C172.68 138.413 173.849 139.181 174.678 140.311C175.185 140.285 175.672 140.104 176.075 139.792C176.394 140.046 176.78 140.239 177.08 140.521C177.494 140.957 177.771 141.508 177.877 142.103H177.751C177.766 142.385 177.778 142.667 177.793 142.951C177.804 143.023 177.793 143.097 177.761 143.163C177.731 143.205 177.693 143.24 177.648 143.267L177.002 143.71C176.532 144.03 176.014 144.435 175.989 145.01C175.976 145.177 176.026 145.343 176.129 145.474C176.287 145.623 176.489 145.715 176.704 145.737C177.829 145.977 178.98 146.21 180.12 146.055C180.661 145.981 181.221 145.801 181.573 145.377C181.896 144.991 181.993 144.467 182.081 143.969C182.222 143.121 182.339 142.253 182.431 141.392C182.46 140.807 182.577 140.23 182.78 139.681C182.795 139.634 182.827 139.593 182.87 139.567C182.918 139.546 182.975 139.567 183.025 139.546C183.075 139.524 183.109 139.446 183.126 139.382C183.334 138.545 183.434 137.684 183.426 136.821C183.436 136.597 183.402 136.373 183.327 136.161C183.239 135.985 183.112 135.83 182.957 135.709C182.801 135.588 182.621 135.503 182.429 135.462C182.047 135.383 181.659 135.336 181.269 135.322C180.944 135.29 180.622 135.231 180.306 135.144C180.179 135.095 180.041 135.077 179.906 135.091C179.838 135.1 179.776 135.134 179.731 135.185C179.687 135.237 179.662 135.304 179.662 135.373C179.669 135.422 179.687 135.469 179.713 135.511L179.385 135.445C179.121 135.396 178.756 135.279 178.359 135.182C178.359 135.114 178.364 135.043 178.372 134.97C178.373 134.894 178.352 134.819 178.313 134.755C178.274 134.69 178.217 134.638 178.15 134.605L172.607 131.611L171.571 131.051C169.301 129.824 166.955 128.689 164.679 127.462C164.528 127.508 164.402 127.332 164.358 127.175C164.314 127.018 164.282 126.832 164.138 126.762C164.066 126.728 163.972 126.73 163.928 126.669C163.89 126.613 163.876 126.546 163.888 126.48C163.961 125.362 164.752 124.332 164.595 123.225C164.528 122.752 164.287 122.286 164.385 121.821C164.459 121.501 164.685 121.24 164.805 120.935C165.078 120.252 164.805 119.432 165.103 118.764C165.301 118.325 165.436 117.859 165.503 117.381C165.644 116.429 165.927 115.504 166.343 114.638C166.543 114.201 166.806 113.796 167.123 113.435C167.289 113.253 167.475 113.09 167.635 112.901C168.117 112.318 168.296 111.542 168.432 110.781C168.68 109.421 168.852 108.011 168.541 106.663C168.436 106.205 168.277 105.749 168.283 105.278C168.283 104.714 168.508 104.067 168.237 103.616C168.516 103.39 168.702 103.067 168.759 102.71C168.763 102.582 168.788 102.455 168.833 102.335C168.925 102.204 169.045 102.096 169.183 102.017C169.4 101.85 169.565 101.625 169.661 101.367C169.757 101.11 169.779 100.83 169.724 100.56C170.012 100.692 170.314 100.397 170.45 100.107C170.587 99.8161 170.689 99.4705 170.981 99.3391C171.178 99.2542 171.401 99.3051 171.61 99.25C171.944 99.1631 172.147 98.8259 172.382 98.5778C172.861 98.0562 173.538 97.7869 174.166 97.4668C176.024 96.5105 177.539 94.9987 179.022 93.5102C179.796 92.7842 180.498 91.9847 181.12 91.1226C181.286 90.8745 181.437 90.618 181.58 90.355L181.617 90.3359L181.63 90.3826C181.653 90.4759 181.68 90.5692 181.708 90.6604C181.775 90.8724 181.85 91.0993 181.917 91.3156C182.144 91.9517 182.389 92.6302 182.851 93.1115C182.993 93.2583 183.153 93.3846 183.329 93.4868C183.711 93.6939 184.13 93.8208 184.561 93.86C184.724 93.8812 184.89 93.8939 185.056 93.9024C185.222 93.9109 185.387 93.9173 185.551 93.9215L188.945 94.0127C187.779 92.3037 187.687 90.0815 187.764 88.0014C187.959 82.6581 188.989 77.266 188.033 72.0074C187.917 71.3713 187.764 70.7352 187.38 70.2242C186.877 69.5563 186.05 69.234 185.245 69.0453C184.439 68.8566 183.602 68.7654 182.849 68.424C182.22 68.1335 181.64 67.667 180.961 67.5144C180.46 67.4295 179.948 67.4382 179.45 67.5398C178.838 67.6317 178.229 67.7405 177.623 67.8663L177.476 67.8981H177.482L177.382 67.9215H177.354L177.264 67.9427H177.231L177.147 67.966L177.109 67.9766L177.031 68.002L176.987 68.0169L176.916 68.0402L176.87 68.0593L176.803 68.0847L176.752 68.1059L176.692 68.1335L176.641 68.159L176.585 68.1865L176.534 68.2162L176.482 68.2459L176.431 68.2798L176.383 68.3116L176.333 68.3477L176.291 68.3816L176.243 68.424L176.203 68.46C176.186 68.4752 176.171 68.4915 176.157 68.5088L176.121 68.5449C176.104 68.5637 176.089 68.5835 176.075 68.6042C176.075 68.6148 176.056 68.6254 176.047 68.6382C176.039 68.6509 176.01 68.6933 175.991 68.7251V68.7378C175.944 68.8175 175.905 68.9021 175.875 68.9901C175.861 69.0347 175.846 69.0792 175.836 69.1237C175.814 69.2144 175.799 69.3065 175.789 69.3994C175.789 69.446 175.789 69.4948 175.779 69.5414C175.779 69.6347 175.779 69.7301 175.779 69.8234C175.787 69.9826 175.805 70.1412 175.831 70.2984C175.087 70.7428 174.467 71.3707 174.028 72.1232C173.589 72.8758 173.346 73.7285 173.322 74.6017C173.298 75.4749 173.493 76.34 173.889 77.1163C174.285 77.8926 174.87 78.5547 175.588 79.0407C175.598 79.1244 175.604 79.2087 175.605 79.293V79.3482C175.593 79.6481 175.562 79.947 175.513 80.243C174.683 80.0802 173.84 80.0042 172.995 80.0161C172.492 80.0161 171.984 80.0627 171.476 80.103C170.932 79.4395 170.425 78.7458 169.957 78.0251L168.837 76.3648C168.452 75.8223 168.102 75.2557 167.788 74.6685C167.513 74.1299 167.299 73.5574 166.993 73.0358C166.364 71.9608 165.336 71.0469 165.208 69.8022L164.912 69.8637C164.75 69.5966 164.547 69.3146 164.471 69.1598C164.066 68.2765 163.754 67.3526 163.54 66.4033C163.437 65.9114 163.359 65.3982 163.093 64.9741C162.911 64.7092 162.691 64.4734 162.44 64.2744C162.036 63.8894 161.561 63.587 161.043 63.3839C160.812 63.2989 160.566 63.2626 160.32 63.2772C160.075 63.2918 159.834 63.3569 159.615 63.4687C159.546 63.4366 159.476 63.4083 159.405 63.3839C159.145 63.284 158.865 63.2488 158.589 63.2813C158.313 63.3137 158.049 63.4129 157.819 63.5705C157.378 63.9118 157.189 64.4971 157.122 65.0547C157.006 65.8264 157.137 66.6153 157.496 67.3066C157.915 68.0657 158.666 68.5788 159.287 69.181C159.72 69.6041 160.098 70.0799 160.414 70.5974C160.511 71.7428 160.482 72.8956 160.328 74.0345C160.248 74.5222 160.118 75.0014 160.08 75.4933C159.927 77.2702 160.842 79.0471 160.515 80.7943C160.461 81.0569 160.489 81.3301 160.595 81.5759C160.701 81.8217 160.881 82.0279 161.108 82.1661C161.578 82.4227 162.128 82.4566 162.644 82.5902C163.657 82.8531 164.532 83.5083 165.556 83.7522C166.028 83.8667 166.519 83.8879 166.989 84.0151L167.062 84.0384C166.7 84.4525 166.442 84.9485 166.309 85.4845C166.099 86.3751 166.296 87.3271 166.087 88.2177C165.915 88.9513 165.482 89.5917 165.057 90.213C164.237 91.4117 163.416 92.6132 162.594 93.8176C162.044 94.6623 161.438 95.4678 160.779 96.2285C159.648 97.4774 157.697 98.4676 157.122 99.9688C157.11 99.9328 157.093 99.8967 157.08 99.8607C156.266 100.465 155.962 101.591 155.314 102.373C154.997 102.753 154.607 103.06 154.265 103.412C153.841 103.867 153.453 104.354 153.105 104.869C152.14 106.222 151.168 107.581 150.478 109.097C150.117 109.886 149.838 110.706 149.551 111.523C148.422 114.739 146.58 117.791 145.815 121.117C145.628 121.93 145.139 122.663 145.066 123.494C144.984 124.381 145.385 125.233 145.8 126.015C146.429 127.211 147.13 128.373 147.688 129.603C148.017 130.32 148.303 131.06 148.67 131.76C149.071 132.523 149.561 133.231 149.981 133.984C151.003 135.916 151.59 138.051 152.133 140.156ZM166.013 79.3969L165.913 79.346C165.536 79.1816 165.192 78.9511 164.895 78.6654C163.991 77.69 163.603 76.2206 163.319 74.9081C163.286 74.7512 163.257 74.5964 163.229 74.4395C164.326 76.0149 165.363 77.6434 166.013 79.4012V79.3969Z" fill="url(#paint0_linear)"/>
<path d="M161.891 66.6648C161.788 66.175 161.713 65.6661 161.446 65.2462C161.264 64.9826 161.043 64.7482 160.792 64.5508C160.385 64.1683 159.909 63.8681 159.39 63.6666C159.13 63.5679 158.851 63.5332 158.575 63.5653C158.299 63.5974 158.035 63.6953 157.804 63.851C157.362 64.1903 157.175 64.7713 157.106 65.3353C156.99 66.1021 157.121 66.8863 157.479 67.5723C157.909 68.3271 158.652 68.8318 159.275 69.434C159.727 69.8751 160.121 70.374 160.446 70.9182C160.594 71.2004 160.772 71.465 160.978 71.707C161.083 71.8256 161.213 71.9181 161.358 71.9774C161.504 72.0366 161.661 72.0609 161.818 72.0484C162.079 71.9785 162.317 71.8368 162.504 71.6392C162.76 71.4123 163.448 71.003 163.469 70.6489C163.485 70.3585 162.948 69.7011 162.816 69.4276C162.413 68.5421 162.102 67.616 161.891 66.6648Z" fill="#FBBEBE"/>
<path opacity="0.1" d="M161.891 66.6648C161.788 66.175 161.713 65.6661 161.446 65.2462C161.264 64.9826 161.043 64.7482 160.792 64.5508C160.385 64.1683 159.909 63.8681 159.39 63.6666C159.13 63.5679 158.851 63.5332 158.575 63.5653C158.299 63.5974 158.035 63.6953 157.804 63.851C157.362 64.1903 157.175 64.7713 157.106 65.3353C156.99 66.1021 157.121 66.8863 157.479 67.5723C157.909 68.3271 158.652 68.8318 159.275 69.434C159.727 69.8751 160.121 70.374 160.446 70.9182C160.594 71.2004 160.772 71.465 160.978 71.707C161.083 71.8256 161.213 71.9181 161.358 71.9774C161.504 72.0366 161.661 72.0609 161.818 72.0484C162.079 71.9785 162.317 71.8368 162.504 71.6392C162.76 71.4123 163.448 71.003 163.469 70.6489C163.485 70.3585 162.948 69.7011 162.816 69.4276C162.413 68.5421 162.102 67.616 161.891 66.6648Z" fill="black"/>
<path d="M176.402 80.623C175.296 80.3233 174.153 80.1805 173.008 80.199C171.097 80.2265 169.129 80.6951 167.308 80.1014C166.839 79.9402 166.384 79.7439 165.944 79.5141C165.567 79.3511 165.222 79.1221 164.924 78.8377C164.018 77.8687 163.628 76.4077 163.347 75.1058C163.098 73.7958 162.955 72.4677 162.917 71.1344C162.445 71.357 161.945 71.5754 161.427 71.5309C160.909 71.4863 160.378 71.0835 160.378 70.5576C160.456 71.7917 160.513 73.0406 160.309 74.2577C160.229 74.7411 160.099 75.2182 160.064 75.7059C159.908 77.4722 160.825 79.2363 160.498 80.9771C160.443 81.2383 160.471 81.5103 160.577 81.7546C160.684 81.9989 160.864 82.2032 161.092 82.3384C161.562 82.595 162.113 82.6268 162.629 82.7625C163.643 83.0233 164.517 83.6742 165.545 83.9181C166.017 84.0305 166.511 84.0517 166.98 84.1789C167.65 84.3591 168.26 84.7472 168.944 84.868C169.456 84.9613 169.993 84.8977 170.503 84.9422C170.954 84.9804 171.394 85.0991 171.848 85.1119C172.955 85.1394 174 84.5076 174.734 83.6679C175.469 82.8282 175.936 81.6345 176.402 80.623Z" fill="#F86D70"/>
<path opacity="0.1" d="M176.402 80.623C175.296 80.3233 174.153 80.1805 173.008 80.199C171.097 80.2265 169.129 80.6951 167.308 80.1014C166.839 79.9402 166.384 79.7439 165.944 79.5141C165.567 79.3511 165.222 79.1221 164.924 78.8377C164.018 77.8687 163.628 76.4077 163.347 75.1058C163.098 73.7958 162.955 72.4677 162.917 71.1344C162.445 71.357 161.945 71.5754 161.427 71.5309C160.909 71.4863 160.378 71.0835 160.378 70.5576C160.456 71.7917 160.513 73.0406 160.309 74.2577C160.229 74.7411 160.099 75.2182 160.064 75.7059C159.908 77.4722 160.825 79.2363 160.498 80.9771C160.443 81.2383 160.471 81.5103 160.577 81.7546C160.684 81.9989 160.864 82.2032 161.092 82.3384C161.562 82.595 162.113 82.6268 162.629 82.7625C163.643 83.0233 164.517 83.6742 165.545 83.9181C166.017 84.0305 166.511 84.0517 166.98 84.1789C167.65 84.3591 168.26 84.7472 168.944 84.868C169.456 84.9613 169.993 84.8977 170.503 84.9422C170.954 84.9804 171.394 85.0991 171.848 85.1119C172.955 85.1394 174 84.5076 174.734 83.6679C175.469 82.8282 175.936 81.6345 176.402 80.623Z" fill="black"/>
<path d="M179.436 135.209C179.778 135.252 180.11 135.357 180.415 135.519C180.814 135.805 181.112 136.212 181.267 136.681C181.724 137.822 181.819 139.077 181.84 140.309C181.857 141.303 181.823 142.321 181.471 143.25C181.374 143.543 181.208 143.807 180.986 144.02C180.789 144.175 180.562 144.287 180.319 144.346C179.792 144.492 179.184 144.49 178.754 144.151C178.275 143.774 178.156 143.106 178.055 142.501C177.919 141.687 177.726 140.82 177.126 140.258C176.681 139.834 176.043 139.622 175.72 139.109C175.334 138.492 175.538 137.686 175.783 136.999C175.993 136.403 176.31 135.197 176.926 134.891C177.543 134.586 178.796 135.093 179.436 135.209Z" fill="#FBBEBE"/>
<path d="M156.713 138.136C156.898 138.802 157.226 139.418 157.674 139.941C157.947 140.259 158.289 140.645 158.146 141.039C158.086 141.173 157.998 141.293 157.888 141.389C155.861 143.391 153.027 144.358 150.216 144.722C150.171 144.734 150.124 144.734 150.08 144.722C149.998 144.686 149.977 144.58 149.968 144.489C149.922 144.193 149.922 143.892 149.968 143.596C150.105 142.903 150.707 142.413 151.296 142.029C151.886 141.646 152.53 141.277 152.857 140.651C153.266 139.875 153.094 138.864 153.581 138.136C153.975 137.545 154.71 137.288 155.408 137.182C155.65 137.144 156.164 136.877 156.369 137C156.575 137.123 156.642 137.893 156.713 138.136Z" fill="#FBBEBE"/>
<path d="M179.713 135.138C179.713 135.069 179.737 135.003 179.782 134.951C179.827 134.9 179.889 134.867 179.956 134.858C180.092 134.844 180.229 134.862 180.357 134.909C180.672 134.997 180.994 135.058 181.32 135.089C181.71 135.103 182.099 135.149 182.482 135.227C182.673 135.267 182.854 135.351 183.009 135.471C183.165 135.591 183.292 135.744 183.382 135.92C183.457 136.131 183.49 136.354 183.48 136.578C183.489 137.435 183.388 138.29 183.18 139.122C183.164 139.186 183.139 139.26 183.078 139.283C183.017 139.306 182.973 139.283 182.925 139.306C182.903 139.319 182.884 139.335 182.868 139.355C182.853 139.374 182.841 139.397 182.834 139.421C182.631 139.965 182.513 140.537 182.484 141.117C182.392 141.965 182.274 142.826 182.134 143.674C182.052 144.171 181.949 144.692 181.626 145.074C181.271 145.498 180.711 145.674 180.17 145.748C179.029 145.901 177.877 145.67 176.75 145.432C176.535 145.411 176.333 145.319 176.174 145.171C176.07 145.041 176.02 144.876 176.033 144.709C176.058 144.139 176.578 143.736 177.046 143.418L177.694 142.979C177.74 142.954 177.778 142.918 177.808 142.875C177.84 142.809 177.851 142.735 177.839 142.663L177.797 141.815C178.227 141.823 178.646 141.948 179.01 142.177C179.375 142.406 179.671 142.731 179.868 143.117C179.956 143.297 180.042 143.507 180.227 143.577C180.347 143.605 180.473 143.584 180.578 143.52C180.683 143.455 180.76 143.352 180.791 143.231C180.847 142.988 180.84 142.735 180.772 142.496C180.392 140.445 180.483 138.337 180.252 136.266C180.237 136.033 180.165 135.807 180.042 135.609C179.943 135.466 179.736 135.329 179.713 135.138Z" fill="#F86D70"/>
<path d="M154.154 69.8428H158.765C159.999 69.8428 160.999 68.8317 160.999 67.5846V67.5825C160.999 66.3353 159.999 65.3242 158.765 65.3242H154.154C152.92 65.3242 151.92 66.3353 151.92 67.5825V67.5846C151.92 68.8317 152.92 69.8428 154.154 69.8428Z" fill="#66288E"/>
<path d="M156.529 68.9952C157.3 68.9952 157.926 68.363 157.926 67.5831C157.926 66.8032 157.3 66.1709 156.529 66.1709C155.757 66.1709 155.131 66.8032 155.131 67.5831C155.131 68.363 155.757 68.9952 156.529 68.9952Z" fill="white"/>
<path d="M151.492 143.087C151.397 143.246 151.248 143.369 151.16 143.532C151.11 143.61 151.09 143.704 151.103 143.795C151.116 143.887 151.162 143.971 151.231 144.031C151.326 144.073 151.431 144.083 151.531 144.06C153.558 143.805 155.46 142.934 156.986 141.563C157.24 141.346 157.465 141.098 157.655 140.823C157.834 140.549 157.985 140.214 158.285 140.1C158.467 140.896 158.562 141.71 158.566 142.527C158.566 143.066 158.49 143.679 158.056 143.99C157.882 144.1 157.69 144.179 157.49 144.224L156.541 144.495C156.373 144.559 156.192 144.577 156.015 144.546C155.904 144.516 155.805 144.444 155.69 144.423C155.564 144.41 155.438 144.426 155.32 144.472L154.5 144.714C154.223 144.786 153.952 144.882 153.69 145C153.455 145.112 153.239 145.256 153.01 145.381C152.628 145.575 152.231 145.738 151.823 145.869L150.382 146.376C149.987 146.532 149.575 146.639 149.155 146.694C148.865 146.719 148.569 146.694 148.282 146.743C148.072 146.781 147.862 146.861 147.631 146.878C147.267 146.89 146.909 146.783 146.61 146.573C146.493 146.506 146.391 146.415 146.312 146.306C146.102 145.982 146.285 145.553 146.486 145.225C146.841 144.6 147.346 144.076 147.955 143.702C148.206 143.562 148.477 143.46 148.735 143.333C149.471 142.973 150.027 142.371 150.722 141.959C151.378 141.571 151.8 142.574 151.492 143.087Z" fill="#F86D70"/>
<path d="M171.753 84.3784C172.516 84.9071 173.389 85.2504 174.304 85.3814C174.783 85.4414 175.265 85.4676 175.748 85.4598C177.76 85.4577 179.769 85.2882 181.754 84.953C180.965 84.0731 180.166 83.1316 179.866 81.9845C179.718 81.3763 179.686 80.7451 179.773 80.125C179.894 79.3327 180.082 78.5523 180.336 77.7926C179.489 77.8374 178.64 77.8155 177.797 77.7268C177.317 77.6759 176.138 77.2349 175.72 77.5699C175.303 77.9049 175.624 78.9842 175.63 79.491C175.631 79.5093 175.631 79.5277 175.63 79.5461C175.61 80.318 175.445 81.0792 175.145 81.7895C174.545 83.1592 173.245 84.2873 171.753 84.3784Z" fill="#FBBEBE"/>
<path opacity="0.1" d="M175.632 79.4801C176.237 79.8798 176.92 80.1435 177.635 80.2533C178.35 80.363 179.08 80.3163 179.775 80.1162C179.896 79.3239 180.084 78.5435 180.338 77.7838C179.491 77.8287 178.642 77.8067 177.799 77.718C177.319 77.6671 176.14 77.2261 175.722 77.5611C175.305 77.8961 175.626 78.9733 175.632 79.4801Z" fill="black"/>
<path d="M178.401 80.076C181.195 80.076 183.459 77.7872 183.459 74.9638C183.459 72.1404 181.195 69.8516 178.401 69.8516C175.608 69.8516 173.343 72.1404 173.343 74.9638C173.343 77.7872 175.608 80.076 178.401 80.076Z" fill="#FBBEBE"/>
<path d="M156.942 100.831C156.94 101.243 157.044 101.649 157.245 102.008C157.445 102.368 157.734 102.668 158.083 102.881C158.473 103.088 158.889 103.236 159.321 103.322C161.629 103.886 164.003 104.34 166.38 104.202C166.896 104.198 167.405 104.089 167.878 103.884C168.114 103.778 168.321 103.617 168.482 103.414C168.643 103.211 168.753 102.971 168.803 102.716C168.806 102.589 168.83 102.463 168.875 102.345C168.967 102.214 169.087 102.106 169.225 102.029C169.441 101.864 169.607 101.641 169.703 101.385C169.8 101.129 169.822 100.851 169.768 100.583C170.056 100.714 170.358 100.419 170.494 100.131C170.631 99.8425 170.736 99.4948 171.025 99.3697C171.222 99.2849 171.445 99.3357 171.654 99.2806C171.988 99.1937 172.192 98.8565 172.427 98.6127C172.905 98.0953 173.587 97.8282 174.212 97.508C176.075 96.5602 177.592 95.0568 179.079 93.5789C179.852 92.8589 180.555 92.065 181.177 91.2084C181.344 90.9621 181.498 90.7073 181.638 90.445C182.087 89.5745 182.476 88.6741 182.803 87.75C182.992 87.2539 183.182 86.7323 183.105 86.2064C183.105 86.1597 183.088 86.1131 183.078 86.0643C182.981 85.7269 182.825 85.4096 182.618 85.1271C182.104 84.3638 181.431 83.6429 180.545 83.4054C179.66 83.1679 178.779 83.4542 177.879 83.6471C177.581 83.7146 177.279 83.7613 176.975 83.7871C176.022 83.8549 175.087 83.5962 174.159 83.3397L173.157 83.0598C172.655 82.9198 172.403 82.307 171.898 82.1989C171.671 82.1643 171.439 82.1765 171.216 82.2349C170.186 82.4321 169.145 82.6887 168.237 83.2188C168.034 83.3362 167.84 83.4695 167.658 83.6174C166.999 84.115 166.524 84.8223 166.311 85.6254C166.101 86.5096 166.299 87.4553 166.089 88.3395C165.917 89.0689 165.482 89.705 165.059 90.3199L162.587 93.897C162.036 94.7352 161.429 95.5343 160.771 96.2888C159.441 97.7497 156.978 98.8481 156.942 100.831Z" fill="#F86D70"/>
<path d="M163.538 66.6648C163.435 66.175 163.36 65.6661 163.093 65.2462C162.911 64.9826 162.69 64.7482 162.439 64.5508C162.032 64.1683 161.556 63.8681 161.037 63.6666C160.777 63.5679 160.498 63.5332 160.222 63.5653C159.946 63.5974 159.682 63.6953 159.451 63.851C159.008 64.1903 158.822 64.7713 158.753 65.3353C158.637 66.1021 158.768 66.8863 159.126 67.5723C159.546 68.3271 160.299 68.8318 160.922 69.434C161.374 69.8751 161.768 70.374 162.092 70.9182C162.24 71.2004 162.419 71.465 162.625 71.707C162.73 71.8256 162.86 71.9181 163.005 71.9774C163.151 72.0366 163.308 72.0609 163.464 72.0484C163.726 71.9785 163.963 71.8368 164.15 71.6392C164.406 71.4123 165.094 71.003 165.115 70.6489C165.132 70.3585 164.595 69.7011 164.463 69.4276C164.059 68.5421 163.749 67.616 163.538 66.6648Z" fill="#FBBEBE"/>
<path d="M145.764 125.874C146.394 127.061 147.094 128.206 147.663 129.436C147.992 130.15 148.278 130.884 148.645 131.579C149.046 132.336 149.539 133.04 149.958 133.787C151.007 135.674 151.601 137.803 152.144 139.9C153.663 139.672 155.124 139.152 156.449 138.369C156.538 138.318 156.624 138.262 156.707 138.201C157.062 137.945 157.358 137.615 157.576 137.232C157.074 135.324 156.56 133.367 155.539 131.673C155.205 131.121 154.823 130.613 154.49 130.059C153.497 128.479 153.292 126.488 152.157 125.011C152.048 124.862 151.99 124.682 151.99 124.497C151.99 124.313 152.048 124.133 152.157 123.984C152.287 123.813 152.497 123.649 152.457 123.435C152.427 123.28 152.268 123.14 152.329 122.996C152.358 122.926 152.429 122.888 152.484 122.837C152.677 122.659 152.652 122.352 152.671 122.089C152.713 121.419 153.109 120.831 153.493 120.284C153.571 120.155 153.674 120.044 153.795 119.956C153.898 119.892 154.02 119.862 154.122 119.799C154.483 119.572 154.458 119.037 154.632 118.641C154.859 118.119 155.429 117.854 155.805 117.432C156.281 116.894 156.401 116.145 156.904 115.675C156.956 115.625 157.012 115.58 157.07 115.539C156.852 116.34 156.752 117.17 156.774 118.001C156.726 120.85 157.431 123.798 157.101 126.628C156.841 128.872 158.209 131.111 160.148 132.235C160.908 132.64 161.702 132.978 162.52 133.244C163.733 133.679 164.946 134.126 166.135 134.629C166.974 134.981 167.813 135.362 168.623 135.767C169.631 136.261 170.612 136.81 171.56 137.413C172.729 138.163 173.899 138.927 174.728 140.048C175.532 140.027 176.268 139.539 176.776 138.91C177.283 138.28 177.6 137.519 177.896 136.766C178.154 136.115 178.41 135.447 178.429 134.745C178.429 134.67 178.408 134.596 178.369 134.532C178.33 134.468 178.273 134.416 178.206 134.383L172.655 131.414L171.606 130.859C169.334 129.639 166.991 128.511 164.706 127.294C164.553 127.339 164.427 127.163 164.383 127.01C164.339 126.857 164.308 126.667 164.163 126.599C164.09 126.565 163.997 126.565 163.953 126.505C163.917 126.45 163.904 126.384 163.915 126.319C163.989 125.208 164.782 124.186 164.622 123.085C164.555 122.615 164.314 122.152 164.413 121.692C164.486 121.372 164.713 121.113 164.832 120.81C165.103 120.132 164.832 119.326 165.13 118.654C165.329 118.218 165.464 117.755 165.531 117.28C165.674 116.333 165.96 115.415 166.38 114.557C166.581 114.122 166.844 113.719 167.161 113.361C167.329 113.181 167.515 113.018 167.673 112.831C168.157 112.252 168.334 111.48 168.472 110.736C168.72 109.385 168.892 107.98 168.581 106.646C168.476 106.19 168.317 105.738 168.323 105.27C168.323 104.653 168.598 103.93 168.174 103.482C167.995 103.322 167.779 103.211 167.545 103.16C166.558 102.891 165.551 102.703 164.534 102.598L159.906 101.99C159.372 101.954 158.849 101.817 158.364 101.585C157.735 101.235 157.315 100.584 157.064 99.9053C156.25 100.505 155.943 101.623 155.295 102.399C154.978 102.778 154.588 103.084 154.246 103.431C153.821 103.882 153.433 104.366 153.084 104.88C152.117 106.222 151.143 107.575 150.451 109.078C150.092 109.86 149.822 110.677 149.524 111.487C148.393 114.682 146.549 117.714 145.783 121.016C145.594 121.824 145.106 122.551 145.032 123.378C144.946 124.254 145.347 125.102 145.764 125.874Z" fill="#434175"/>
<path opacity="0.1" d="M170.041 99.3476C170.154 99.5602 170.212 99.7977 170.211 100.039C170.108 99.5215 169.404 99.2352 169.359 98.7242C169.338 98.4888 169.38 98.4995 169.525 98.6246C169.745 98.809 169.84 99.144 170.041 99.3476Z" fill="black"/>
<path opacity="0.1" d="M167.899 100.917C168.047 101.044 168.158 101.21 168.22 101.396C168.338 101.658 168.36 101.953 168.283 102.229C168.18 102.18 168.145 102.053 168.113 101.941C168.066 101.767 167.995 101.601 167.903 101.447C167.82 101.313 167.436 100.995 167.44 100.849C167.433 100.628 167.796 100.838 167.899 100.917Z" fill="black"/>
<path opacity="0.1" d="M167.652 83.617C167.977 83.8986 168.335 84.1392 168.717 84.3337C169.72 84.8468 170.83 85.1161 171.839 85.6059C172.337 85.8614 172.82 86.1446 173.287 86.454C174.287 87.0901 175.286 87.7263 176.285 88.373C176.525 88.5132 176.747 88.6834 176.945 88.8797C177.306 89.2699 177.304 89.9399 177.634 90.364C177.815 90.5736 178.039 90.7422 178.289 90.8591C178.54 90.976 178.812 91.0385 179.087 91.0425C179.64 91.0472 180.189 90.9539 180.709 90.7669C181.025 90.6724 181.334 90.5584 181.636 90.4255C181.952 90.2909 182.251 90.1186 182.526 89.9123C182.801 89.7169 183.035 89.4685 183.215 89.1814C183.395 88.8944 183.517 88.5742 183.575 88.2394C183.611 87.7766 183.55 87.3113 183.396 86.8739C183.313 86.589 183.207 86.3117 183.078 86.0448C183.004 85.8933 182.918 85.748 182.822 85.6101C182.134 84.6241 180.921 84.1598 179.748 83.9287C179.129 83.8078 178.5 83.7336 177.879 83.6276C177.581 83.695 177.279 83.7418 176.975 83.7675C176.022 83.8354 175.087 83.5767 174.159 83.3201L173.157 83.0402C172.655 82.9003 172.403 82.2875 171.898 82.1794C171.671 82.1448 171.439 82.157 171.216 82.2154C170.186 82.4126 169.145 82.6692 168.237 83.1993C168.031 83.3225 167.835 83.4621 167.652 83.617Z" fill="black"/>
<path d="M165.208 70.0488C165.336 71.285 166.368 72.1925 166.997 73.2591C167.303 73.7786 167.517 74.3468 167.792 74.8833C168.106 75.4704 168.457 76.037 168.841 76.5796L169.964 78.2271C170.624 79.1961 171.292 80.1736 172.135 80.9836C173.603 81.2359 174.841 82.3406 176.236 82.8771C177.354 83.3012 178.571 83.3648 179.744 83.5959C180.917 83.827 182.129 84.2893 182.817 85.2773C183.075 85.6679 183.269 86.0973 183.392 86.5496C183.546 86.9863 183.607 87.4509 183.571 87.913C183.513 88.2482 183.391 88.5687 183.211 88.8562C183.031 89.1437 182.797 89.3924 182.522 89.5881C181.97 89.9746 181.356 90.2615 180.707 90.4362C180.186 90.6223 179.638 90.7155 179.085 90.7119C178.809 90.7076 178.537 90.645 178.286 90.5282C178.036 90.4113 177.812 90.2428 177.629 90.0333C177.302 89.6093 177.304 88.9329 176.943 88.5491C176.745 88.3528 176.523 88.1825 176.282 88.0423L173.285 86.134C172.818 85.8245 172.335 85.5414 171.837 85.2858C170.828 84.7875 169.718 84.5183 168.715 84.0136C167.713 83.509 166.779 82.6544 166.582 81.537C165.971 78.1041 163.62 75.2098 161.61 72.3749C161.675 72.3622 161.656 72.2095 161.679 72.1459C161.97 71.4805 162.493 70.9463 163.147 70.6447C163.794 70.2906 164.511 70.1994 165.208 70.0488Z" fill="#F86D70"/>
<path d="M175.804 70.0746C175.767 69.7025 175.84 69.3274 176.014 68.9975C176.348 68.4377 177.044 68.2405 177.678 68.109C178.311 67.9776 178.894 67.8758 179.507 67.7867C180.005 67.6854 180.518 67.6761 181.02 67.7592C181.703 67.9118 182.278 68.3762 182.908 68.6624C183.663 69.0038 184.502 69.0865 185.308 69.2816C186.113 69.4767 186.942 69.7884 187.448 70.452C187.831 70.9546 187.985 71.597 188.1 72.2225C189.059 77.445 188.027 82.8011 187.831 88.1084C187.754 90.1736 187.846 92.3809 189.015 94.0794L185.614 93.9882C184.743 93.9649 183.808 93.9182 183.124 93.3754C182.52 92.8983 182.234 92.1286 181.978 91.4013C181.747 90.8364 181.599 90.2396 181.542 89.6308C181.49 88.384 182.19 87.1606 181.962 85.9329C181.792 85.0169 181.122 84.2748 180.426 83.6747C179.729 83.0746 178.936 82.5509 178.364 81.8194C177.346 80.5153 177.151 78.7363 177.277 77.0803C177.352 76.0965 177.529 75.1105 177.443 74.1266C177.4 73.3738 177.131 72.6521 176.673 72.0572C176.138 71.4041 175.855 70.997 175.804 70.0746Z" fill="#434175"/>
<path opacity="0.1" d="M176.014 68.9971C176.341 68.4458 177.021 68.2465 177.644 68.1172C177.314 68.2347 177.03 68.458 176.836 68.7533C176.663 69.0844 176.59 69.4598 176.627 69.8326C176.673 70.7549 176.956 71.162 177.497 71.8151C177.957 72.4092 178.227 73.1313 178.269 73.8846C178.353 74.8685 178.179 75.8523 178.104 76.8383C177.976 78.4922 178.171 80.2733 179.19 81.5773C179.761 82.3088 180.548 82.8305 181.252 83.4326C181.957 84.0348 182.618 84.7748 182.788 85.6908C183.015 86.9164 182.314 88.142 182.369 89.3888C182.424 89.997 182.571 90.5932 182.803 91.1572C183.061 91.8866 183.346 92.6563 183.948 93.1333C184.632 93.6762 185.57 93.7228 186.441 93.7461L188.849 93.8097C188.901 93.8988 188.958 93.9878 189.017 94.0748L185.616 93.9836C184.746 93.9603 183.81 93.9136 183.126 93.3708C182.522 92.8937 182.236 92.124 181.98 91.3968C181.749 90.8318 181.602 90.2351 181.544 89.6262C181.492 88.3795 182.192 87.156 181.964 85.9283C181.794 85.0123 181.125 84.2702 180.428 83.6701C179.732 83.0701 178.939 82.5463 178.366 81.8148C177.348 80.5108 177.153 78.7318 177.279 77.0758C177.355 76.0919 177.531 75.1059 177.445 74.1221C177.402 73.3693 177.133 72.6475 176.675 72.0526C176.134 71.3995 175.85 70.9924 175.802 70.07C175.766 69.6991 175.84 69.3257 176.014 68.9971Z" fill="black"/>
<path opacity="0.1" d="M150.466 122.818L156.713 138.201C157.068 137.945 157.364 137.614 157.582 137.232C157.08 135.324 156.566 133.367 155.545 131.673C155.211 131.121 154.829 130.613 154.496 130.059C153.503 128.479 153.298 126.488 152.163 125.01C152.055 124.862 151.996 124.682 151.996 124.497C151.996 124.313 152.055 124.133 152.163 123.984C152.293 123.812 152.503 123.649 152.463 123.435C152.434 123.28 152.274 123.14 152.335 122.996C152.364 122.926 152.436 122.888 152.49 122.837C152.683 122.659 152.658 122.352 152.677 122.089C152.719 121.419 153.115 120.831 153.499 120.284C153.577 120.155 153.68 120.044 153.801 119.956C153.904 119.892 154.026 119.862 154.129 119.799C154.489 119.572 154.464 119.037 154.638 118.641C154.865 118.119 155.436 117.854 155.811 117.432C156.287 116.894 156.407 116.145 156.91 115.674L156.955 115.564L156.482 112.596L150.466 122.818Z" fill="black"/>
<path d="M204.976 141.191C208.909 141.191 212.098 140.571 212.098 139.806C212.098 139.042 208.909 138.422 204.976 138.422C201.042 138.422 197.853 139.042 197.853 139.806C197.853 140.571 201.042 141.191 204.976 141.191Z" fill="#66288E"/>
<path d="M205.095 140.314C205.553 140.314 205.924 139.823 205.924 139.217C205.924 138.612 205.553 138.121 205.095 138.121C204.637 138.121 204.266 138.612 204.266 139.217C204.266 139.823 204.637 140.314 205.095 140.314Z" fill="#3F3D56"/>
<path d="M205.095 138.974C205.553 138.974 205.924 138.483 205.924 137.877C205.924 137.272 205.553 136.781 205.095 136.781C204.637 136.781 204.266 137.272 204.266 137.877C204.266 138.483 204.637 138.974 205.095 138.974Z" fill="#3F3D56"/>
<path d="M205.095 137.631C205.553 137.631 205.924 137.14 205.924 136.535C205.924 135.929 205.553 135.438 205.095 135.438C204.637 135.438 204.266 135.929 204.266 136.535C204.266 137.14 204.637 137.631 205.095 137.631Z" fill="#3F3D56"/>
<path d="M205.095 136.291C205.553 136.291 205.924 135.8 205.924 135.195C205.924 134.589 205.553 134.099 205.095 134.099C204.637 134.099 204.266 134.589 204.266 135.195C204.266 135.8 204.637 136.291 205.095 136.291Z" fill="#3F3D56"/>
<path d="M205.095 134.949C205.553 134.949 205.924 134.459 205.924 133.853C205.924 133.248 205.553 132.757 205.095 132.757C204.637 132.757 204.266 133.248 204.266 133.853C204.266 134.459 204.637 134.949 205.095 134.949Z" fill="#3F3D56"/>
<path d="M205.095 133.609C205.553 133.609 205.924 133.119 205.924 132.513C205.924 131.908 205.553 131.417 205.095 131.417C204.637 131.417 204.266 131.908 204.266 132.513C204.266 133.119 204.637 133.609 205.095 133.609Z" fill="#3F3D56"/>
<path d="M205.095 132.269C205.553 132.269 205.924 131.778 205.924 131.172C205.924 130.567 205.553 130.076 205.095 130.076C204.637 130.076 204.266 130.567 204.266 131.172C204.266 131.778 204.637 132.269 205.095 132.269Z" fill="#3F3D56"/>
<path d="M201.99 121.996C201.877 121.85 201.774 121.696 201.682 121.536L203.859 121.173L201.503 121.193C201.278 120.695 201.155 120.157 201.142 119.61C201.129 119.063 201.226 118.52 201.428 118.012L204.589 119.668L201.673 117.503C201.945 117.024 202.312 116.606 202.751 116.276C203.19 115.947 203.692 115.712 204.225 115.588C204.758 115.463 205.31 115.451 205.848 115.552C206.386 115.653 206.897 115.866 207.35 116.176C207.802 116.486 208.187 116.887 208.479 117.354C208.771 117.822 208.965 118.345 209.048 118.891C209.131 119.437 209.102 119.995 208.961 120.529C208.821 121.064 208.573 121.563 208.234 121.996C208.411 122.222 208.563 122.468 208.687 122.728L205.859 124.212L208.876 123.19C209.014 123.605 209.085 124.039 209.085 124.477C209.086 125.378 208.786 126.253 208.234 126.96C208.694 127.552 208.981 128.263 209.06 129.012C209.14 129.761 209.01 130.517 208.684 131.195C208.358 131.873 207.851 132.444 207.219 132.843C206.587 133.243 205.857 133.455 205.112 133.455C204.367 133.455 203.636 133.243 203.005 132.843C202.373 132.444 201.865 131.873 201.54 131.195C201.214 130.517 201.084 129.761 201.163 129.012C201.243 128.263 201.529 127.552 201.99 126.96C201.44 126.252 201.141 125.378 201.141 124.478C201.141 123.578 201.44 122.704 201.99 121.996Z" fill="#66288E"/>
<path opacity="0.1" d="M209.085 124.477C209.086 125.378 208.786 126.253 208.234 126.96C208.694 127.552 208.981 128.263 209.06 129.012C209.14 129.761 209.01 130.517 208.684 131.195C208.358 131.872 207.851 132.444 207.219 132.843C206.587 133.243 205.857 133.455 205.112 133.455C204.367 133.455 203.636 133.243 203.005 132.843C202.373 132.444 201.865 131.872 201.54 131.195C201.214 130.517 201.084 129.761 201.163 129.012C201.243 128.263 201.529 127.552 201.99 126.96C201.457 126.277 209.085 124.027 209.085 124.477Z" fill="black"/>
<path d="M218.847 125.361C221.492 125.361 223.636 124.944 223.636 124.43C223.636 123.916 221.492 123.499 218.847 123.499C216.202 123.499 214.057 123.916 214.057 124.43C214.057 124.944 216.202 125.361 218.847 125.361Z" fill="#66288E"/>
<path d="M218.929 124.774C219.237 124.774 219.487 124.443 219.487 124.036C219.487 123.628 219.237 123.298 218.929 123.298C218.62 123.298 218.371 123.628 218.371 124.036C218.371 124.443 218.62 124.774 218.929 124.774Z" fill="#3F3D56"/>
<path d="M218.929 123.872C219.237 123.872 219.487 123.542 219.487 123.134C219.487 122.727 219.237 122.396 218.929 122.396C218.62 122.396 218.371 122.727 218.371 123.134C218.371 123.542 218.62 123.872 218.929 123.872Z" fill="#3F3D56"/>
<path d="M218.929 122.969C219.237 122.969 219.487 122.639 219.487 122.231C219.487 121.824 219.237 121.493 218.929 121.493C218.62 121.493 218.371 121.824 218.371 122.231C218.371 122.639 218.62 122.969 218.929 122.969Z" fill="#3F3D56"/>
<path d="M218.929 122.068C219.237 122.068 219.487 121.737 219.487 121.33C219.487 120.922 219.237 120.592 218.929 120.592C218.62 120.592 218.371 120.922 218.371 121.33C218.371 121.737 218.62 122.068 218.929 122.068Z" fill="#3F3D56"/>
<path d="M218.929 121.166C219.237 121.166 219.487 120.836 219.487 120.428C219.487 120.021 219.237 119.69 218.929 119.69C218.62 119.69 218.371 120.021 218.371 120.428C218.371 120.836 218.62 121.166 218.929 121.166Z" fill="#3F3D56"/>
<path d="M218.929 120.266C219.237 120.266 219.487 119.935 219.487 119.528C219.487 119.12 219.237 118.79 218.929 118.79C218.62 118.79 218.371 119.12 218.371 119.528C218.371 119.935 218.62 120.266 218.929 120.266Z" fill="#3F3D56"/>
<path d="M218.929 119.362C219.237 119.362 219.487 119.032 219.487 118.625C219.487 118.217 219.237 117.887 218.929 117.887C218.62 117.887 218.371 118.217 218.371 118.625C218.371 119.032 218.62 119.362 218.929 119.362Z" fill="#3F3D56"/>
<path d="M216.841 112.456C216.763 112.359 216.693 112.255 216.632 112.147L218.1 111.903L216.516 111.915C216.354 111.562 216.27 111.177 216.271 110.787C216.27 110.441 216.336 110.097 216.464 109.776L218.591 110.891L216.629 109.435C216.811 109.11 217.058 108.828 217.353 108.605C217.648 108.382 217.986 108.223 218.345 108.138C218.704 108.053 219.077 108.045 219.439 108.113C219.802 108.181 220.147 108.324 220.452 108.533C220.757 108.742 221.016 109.013 221.212 109.329C221.409 109.644 221.538 109.997 221.593 110.366C221.648 110.734 221.627 111.11 221.531 111.47C221.435 111.83 221.266 112.165 221.035 112.456C221.154 112.608 221.256 112.773 221.339 112.948L219.439 113.947L221.465 113.258C221.609 113.684 221.644 114.141 221.569 114.585C221.494 115.029 221.311 115.448 221.035 115.802C221.346 116.2 221.54 116.679 221.594 117.183C221.648 117.688 221.561 118.197 221.342 118.654C221.123 119.11 220.782 119.495 220.356 119.765C219.931 120.034 219.439 120.177 218.937 120.177C218.435 120.177 217.943 120.034 217.518 119.765C217.093 119.495 216.751 119.11 216.532 118.654C216.313 118.197 216.226 117.688 216.28 117.183C216.334 116.679 216.528 116.2 216.839 115.802C216.468 115.327 216.267 114.739 216.267 114.133C216.267 113.528 216.468 112.94 216.839 112.465L216.841 112.456Z" fill="#66288E"/>
<path opacity="0.1" d="M221.61 114.125C221.61 114.73 221.409 115.318 221.039 115.794C221.35 116.192 221.544 116.67 221.598 117.175C221.653 117.679 221.565 118.189 221.347 118.645C221.128 119.102 220.786 119.487 220.361 119.756C219.935 120.026 219.443 120.169 218.941 120.169C218.439 120.169 217.948 120.026 217.522 119.756C217.097 119.487 216.755 119.102 216.536 118.645C216.317 118.189 216.23 117.679 216.284 117.175C216.339 116.67 216.532 116.192 216.843 115.794C216.483 115.333 221.61 113.822 221.61 114.125Z" fill="black"/>
</g>
<defs>
<linearGradient id="paint0_linear" x1="166.987" y1="147.192" x2="166.987" y2="63.2969" gradientUnits="userSpaceOnUse">
<stop stop-color="#808080" stop-opacity="0.25"/>
<stop offset="0.54" stop-color="#808080" stop-opacity="0.12"/>
<stop offset="1" stop-color="#808080" stop-opacity="0.1"/>
</linearGradient>
<clipPath id="clip0">
<rect width="240" height="148" fill="white"/>
</clipPath>
</defs>
</svg>
